<svg width="1151" height="145" viewBox="0 0 1151 145" fill="none" xmlns="http://www.w3.org/2000/svg">
<path d="M0 0H1V1H0V0Z" fill="#E84125"/>
<path d="M50 0H51V1H50V0Z" fill="#E84125"/>
<path d="M100 0H101V1H100V0Z" fill="#E84125"/>
<path d="M150 0H151V1H150V0Z" fill="#E84125"/>
<path d="M200 0H201V1H200V0Z" fill="#E84125"/>
<path d="M250 0H251V1H250V0Z" fill="#E84125"/>
<path d="M300 0H301V1H300V0Z" fill="#E84125"/>
<path d="M350 0H351V1H350V0Z" fill="#E84125"/>
<path d="M400 0H401V1H400V0Z" fill="#E84125"/>
<path d="M450 0H451V1H450V0Z" fill="#E84125"/>
<path d="M500 0H501V1H500V0Z" fill="#E84125"/>
<path d="M550 0H551V1H550V0Z" fill="#E84125"/>
<path d="M600 0H601V1H600V0Z" fill="#E84125"/>
<path d="M650 0H651V1H650V0Z" fill="#E84125"/>
<path d="M700 0H701V1H700V0Z" fill="#E84125"/>
<path d="M750 0H751V1H750V0Z" fill="#E84125"/>
<path d="M800 0H801V1H800V0Z" fill="#E84125"/>
<path d="M850 0H851V1H850V0Z" fill="#E84125"/>
<path d="M900 0H901V1H900V0Z" fill="#E84125"/>
<path d="M950 0H951V1H950V0Z" fill="#E84125"/>
<path d="M1000 0H1001V1H1000V0Z" fill="#E84125"/>
<path d="M1050 0H1051V1H1050V0Z" fill="#E84125"/>
<path d="M1100 0H1101V1H1100V0Z" fill="#E84125"/>
<path d="M1150 0H1151V1H1150V0Z" fill="#E84125"/>
<path d="M0 48H1V49H0V48Z" fill="#E84125"/>
<path d="M50 48H51V49H50V48Z" fill="#E84125"/>
<path d="M100 48H101V49H100V48Z" fill="#E84125"/>
<path d="M150 48H151V49H150V48Z" fill="#E84125"/>
<path d="M200 48H201V49H200V48Z" fill="#E84125"/>
<path d="M250 48H251V49H250V48Z" fill="#E84125"/>
<path d="M300 48H301V49H300V48Z" fill="#E84125"/>
<path d="M350 48H351V49H350V48Z" fill="#E84125"/>
<path d="M400 48H401V49H400V48Z" fill="#E84125"/>
<path d="M450 48H451V49H450V48Z" fill="#E84125"/>
<path d="M500 48H501V49H500V48Z" fill="#E84125"/>
<path d="M550 48H551V49H550V48Z" fill="#E84125"/>
<path d="M600 48H601V49H600V48Z" fill="#E84125"/>
<path d="M650 48H651V49H650V48Z" fill="#E84125"/>
<path d="M700 48H701V49H700V48Z" fill="#E84125"/>
<path d="M750 48H751V49H750V48Z" fill="#E84125"/>
<path d="M800 48H801V49H800V48Z" fill="#E84125"/>
<path d="M850 48H851V49H850V48Z" fill="#E84125"/>
<path d="M900 48H901V49H900V48Z" fill="#E84125"/>
<path d="M950 48H951V49H950V48Z" fill="#E84125"/>
<path d="M1000 48H1001V49H1000V48Z" fill="#E84125"/>
<path d="M1050 48H1051V49H1050V48Z" fill="#E84125"/>
<path d="M1100 48H1101V49H1100V48Z" fill="#E84125"/>
<path d="M1150 48H1151V49H1150V48Z" fill="#E84125"/>
<path d="M0 96H1V97H0V96Z" fill="#E84125"/>
<path d="M50 96H51V97H50V96Z" fill="#E84125"/>
<path d="M100 96H101V97H100V96Z" fill="#E84125"/>
<path d="M150 96H151V97H150V96Z" fill="#E84125"/>
<path d="M200 96H201V97H200V96Z" fill="#E84125"/>
<path d="M250 96H251V97H250V96Z" fill="#E84125"/>
<path d="M300 96H301V97H300V96Z" fill="#E84125"/>
<path d="M350 96H351V97H350V96Z" fill="#E84125"/>
<path d="M400 96H401V97H400V96Z" fill="#E84125"/>
<path d="M450 96H451V97H450V96Z" fill="#E84125"/>
<path d="M500 96H501V97H500V96Z" fill="#E84125"/>
<path d="M550 96H551V97H550V96Z" fill="#E84125"/>
<path d="M600 96H601V97H600V96Z" fill="#E84125"/>
<path d="M650 96H651V97H650V96Z" fill="#E84125"/>
<path d="M700 96H701V97H700V96Z" fill="#E84125"/>
<path d="M750 96H751V97H750V96Z" fill="#E84125"/>
<path d="M800 96H801V97H800V96Z" fill="#E84125"/>
<path d="M850 96H851V97H850V96Z" fill="#E84125"/>
<path d="M900 96H901V97H900V96Z" fill="#E84125"/>
<path d="M950 96H951V97H950V96Z" fill="#E84125"/>
<path d="M1000 96H1001V97H1000V96Z" fill="#E84125"/>
<path d="M1050 96H1051V97H1050V96Z" fill="#E84125"/>
<path d="M1100 96H1101V97H1100V96Z" fill="#E84125"/>
<path d="M1150 96H1151V97H1150V96Z" fill="#E84125"/>
<path d="M0 144H1V145H0V144Z" fill="#E84125"/>
<path d="M50 144H51V145H50V144Z" fill="#E84125"/>
<path d="M100 144H101V145H100V144Z" fill="#E84125"/>
<path d="M150 144H151V145H150V144Z" fill="#E84125"/>
<path d="M200 144H201V145H200V144Z" fill="#E84125"/>
<path d="M250 144H251V145H250V144Z" fill="#E84125"/>
<path d="M300 144H301V145H300V144Z" fill="#E84125"/>
<path d="M350 144H351V145H350V144Z" fill="#E84125"/>
<path d="M400 144H401V145H400V144Z" fill="#E84125"/>
<path d="M450 144H451V145H450V144Z" fill="#E84125"/>
<path d="M500 144H501V145H500V144Z" fill="#E84125"/>
<path d="M550 144H551V145H550V144Z" fill="#E84125"/>
<path d="M600 144H601V145H600V144Z" fill="#E84125"/>
<path d="M650 144H651V145H650V144Z" fill="#E84125"/>
<path d="M700 144H701V145H700V144Z" fill="#E84125"/>
<path d="M750 144H751V145H750V144Z" fill="#E84125"/>
<path d="M800 144H801V145H800V144Z" fill="#E84125"/>
<path d="M850 144H851V145H850V144Z" fill="#E84125"/>
<path d="M900 144H901V145H900V144Z" fill="#E84125"/>
<path d="M950 144H951V145H950V144Z" fill="#E84125"/>
<path d="M1000 144H1001V145H1000V144Z" fill="#E84125"/>
<path d="M1050 144H1051V145H1050V144Z" fill="#E84125"/>
<path d="M1100 144H1101V145H1100V144Z" fill="#E84125"/>
<path d="M1150 144H1151V145H1150V144Z" fill="#E84125"/>
</svg>
