<svg width="2046" height="94" viewBox="0 0 2046 94" fill="none" xmlns="http://www.w3.org/2000/svg">
<g clip-path="url(#clip0_480_28757)">
<rect opacity="0.7" x="24" y="24" width="2" height="2" fill="#E84125"/>
<rect opacity="0.7" x="24" y="46" width="2" height="2" fill="#E84125"/>
<rect opacity="0.7" x="24" y="68" width="2" height="2" fill="#E84125"/>
<rect opacity="0.24" x="46" y="24" width="2" height="2" fill="#E84125"/>
<rect opacity="0.7" x="46" y="46" width="2" height="2" fill="#E84125"/>
<rect opacity="0.7" x="46" y="68" width="2" height="2" fill="#E84125"/>
<rect opacity="0.24" x="68" y="24" width="2" height="2" fill="#E84125"/>
<rect opacity="0.7" x="68" y="46" width="2" height="2" fill="#E84125"/>
<rect opacity="0.7" x="68" y="68" width="2" height="2" fill="#E84125"/>
<rect opacity="0.7" x="90" y="24" width="2" height="2" fill="#E84125"/>
<rect opacity="0.7" x="90" y="46" width="2" height="2" fill="#E84125"/>
<rect opacity="0.7" x="90" y="68" width="2" height="2" fill="#E84125"/>
<rect opacity="0.24" x="112" y="24" width="2" height="2" fill="#E84125"/>
<rect opacity="0.24" x="112" y="46" width="2" height="2" fill="#E84125"/>
<rect opacity="0.24" x="112" y="68" width="2" height="2" fill="#E84125"/>
<rect opacity="0.7" x="134" y="24" width="2" height="2" fill="#E84125"/>
<rect opacity="0.7" x="134" y="46" width="2" height="2" fill="#E84125"/>
<rect opacity="0.7" x="134" y="68" width="2" height="2" fill="#E84125"/>
<rect opacity="0.7" x="156" y="24" width="2" height="2" fill="#E84125"/>
<rect opacity="0.7" x="156" y="46" width="2" height="2" fill="#E84125"/>
<rect opacity="0.24" x="156" y="68" width="2" height="2" fill="#E84125"/>
<rect opacity="0.7" x="178" y="24" width="2" height="2" fill="#E84125"/>
<rect opacity="0.7" x="178" y="46" width="2" height="2" fill="#E84125"/>
<rect opacity="0.24" x="178" y="68" width="2" height="2" fill="#E84125"/>
<rect opacity="0.7" x="200" y="24" width="2" height="2" fill="#E84125"/>
<rect opacity="0.7" x="200" y="46" width="2" height="2" fill="#E84125"/>
<rect opacity="0.7" x="200" y="68" width="2" height="2" fill="#E84125"/>
<rect opacity="0.24" x="222" y="24" width="2" height="2" fill="#E84125"/>
<rect opacity="0.24" x="222" y="46" width="2" height="2" fill="#E84125"/>
<rect opacity="0.24" x="222" y="68" width="2" height="2" fill="#E84125"/>
<rect opacity="0.7" x="244" y="24" width="2" height="2" fill="#E84125"/>
<rect opacity="0.7" x="244" y="46" width="2" height="2" fill="#E84125"/>
<rect opacity="0.7" x="244" y="68" width="2" height="2" fill="#E84125"/>
<rect opacity="0.24" x="266" y="24" width="2" height="2" fill="#E84125"/>
<rect opacity="0.7" x="266" y="46" width="2" height="2" fill="#E84125"/>
<rect opacity="0.7" x="266" y="68" width="2" height="2" fill="#E84125"/>
<rect opacity="0.7" x="288" y="24" width="2" height="2" fill="#E84125"/>
<rect opacity="0.7" x="288" y="46" width="2" height="2" fill="#E84125"/>
<rect opacity="0.7" x="288" y="68" width="2" height="2" fill="#E84125"/>
<rect opacity="0.7" x="310" y="24" width="2" height="2" fill="#E84125"/>
<rect opacity="0.7" x="310" y="46" width="2" height="2" fill="#E84125"/>
<rect opacity="0.7" x="310" y="68" width="2" height="2" fill="#E84125"/>
<rect opacity="0.24" x="332" y="24" width="2" height="2" fill="#E84125"/>
<rect opacity="0.24" x="332" y="46" width="2" height="2" fill="#E84125"/>
<rect opacity="0.24" x="332" y="68" width="2" height="2" fill="#E84125"/>
<rect opacity="0.7" x="354" y="24" width="2" height="2" fill="#E84125"/>
<rect opacity="0.24" x="354" y="46" width="2" height="2" fill="#E84125"/>
<rect opacity="0.7" x="354" y="68" width="2" height="2" fill="#E84125"/>
<rect opacity="0.7" x="376" y="24" width="2" height="2" fill="#E84125"/>
<rect opacity="0.7" x="376" y="46" width="2" height="2" fill="#E84125"/>
<rect opacity="0.24" x="376" y="68" width="2" height="2" fill="#E84125"/>
<rect opacity="0.7" x="398" y="24" width="2" height="2" fill="#E84125"/>
<rect opacity="0.7" x="398" y="46" width="2" height="2" fill="#E84125"/>
<rect opacity="0.24" x="398" y="68" width="2" height="2" fill="#E84125"/>
<rect opacity="0.7" x="420" y="24" width="2" height="2" fill="#E84125"/>
<rect opacity="0.7" x="420" y="46" width="2" height="2" fill="#E84125"/>
<rect opacity="0.7" x="420" y="68" width="2" height="2" fill="#E84125"/>
<rect opacity="0.24" x="442" y="24" width="2" height="2" fill="#E84125"/>
<rect opacity="0.24" x="442" y="46" width="2" height="2" fill="#E84125"/>
<rect opacity="0.24" x="442" y="68" width="2" height="2" fill="#E84125"/>
<rect opacity="0.7" x="464" y="24" width="2" height="2" fill="#E84125"/>
<rect opacity="0.7" x="464" y="46" width="2" height="2" fill="#E84125"/>
<rect opacity="0.7" x="464" y="68" width="2" height="2" fill="#E84125"/>
<rect opacity="0.24" x="486" y="24" width="2" height="2" fill="#E84125"/>
<rect opacity="0.7" x="486" y="46" width="2" height="2" fill="#E84125"/>
<rect opacity="0.7" x="486" y="68" width="2" height="2" fill="#E84125"/>
<rect opacity="0.24" x="508" y="24" width="2" height="2" fill="#E84125"/>
<rect opacity="0.24" x="508" y="46" width="2" height="2" fill="#E84125"/>
<rect opacity="0.7" x="508" y="68" width="2" height="2" fill="#E84125"/>
<rect opacity="0.7" x="530" y="24" width="2" height="2" fill="#E84125"/>
<rect opacity="0.24" x="530" y="46" width="2" height="2" fill="#E84125"/>
<rect opacity="0.24" x="530" y="68" width="2" height="2" fill="#E84125"/>
<rect opacity="0.24" x="552" y="24" width="2" height="2" fill="#E84125"/>
<rect opacity="0.24" x="552" y="46" width="2" height="2" fill="#E84125"/>
<rect opacity="0.24" x="552" y="68" width="2" height="2" fill="#E84125"/>
<rect opacity="0.7" x="574" y="24" width="2" height="2" fill="#E84125"/>
<rect opacity="0.7" x="574" y="46" width="2" height="2" fill="#E84125"/>
<rect opacity="0.7" x="574" y="68" width="2" height="2" fill="#E84125"/>
<rect opacity="0.7" x="596" y="24" width="2" height="2" fill="#E84125"/>
<rect opacity="0.7" x="596" y="46" width="2" height="2" fill="#E84125"/>
<rect opacity="0.24" x="596" y="68" width="2" height="2" fill="#E84125"/>
<rect opacity="0.7" x="618" y="24" width="2" height="2" fill="#E84125"/>
<rect opacity="0.7" x="618" y="46" width="2" height="2" fill="#E84125"/>
<rect opacity="0.24" x="618" y="68" width="2" height="2" fill="#E84125"/>
<rect opacity="0.7" x="640" y="24" width="2" height="2" fill="#E84125"/>
<rect opacity="0.7" x="640" y="46" width="2" height="2" fill="#E84125"/>
<rect opacity="0.7" x="640" y="68" width="2" height="2" fill="#E84125"/>
<rect opacity="0.24" x="662" y="24" width="2" height="2" fill="#E84125"/>
<rect opacity="0.24" x="662" y="46" width="2" height="2" fill="#E84125"/>
<rect opacity="0.24" x="662" y="68" width="2" height="2" fill="#E84125"/>
<rect opacity="0.7" x="684" y="24" width="2" height="2" fill="#E84125"/>
<rect opacity="0.7" x="684" y="46" width="2" height="2" fill="#E84125"/>
<rect opacity="0.7" x="684" y="68" width="2" height="2" fill="#E84125"/>
<rect opacity="0.7" x="706" y="24" width="2" height="2" fill="#E84125"/>
<rect opacity="0.7" x="706" y="46" width="2" height="2" fill="#E84125"/>
<rect opacity="0.7" x="706" y="68" width="2" height="2" fill="#E84125"/>
<rect opacity="0.24" x="728" y="24" width="2" height="2" fill="#E84125"/>
<rect opacity="0.7" x="728" y="46" width="2" height="2" fill="#E84125"/>
<rect opacity="0.7" x="728" y="68" width="2" height="2" fill="#E84125"/>
<rect opacity="0.7" x="750" y="24" width="2" height="2" fill="#E84125"/>
<rect opacity="0.7" x="750" y="46" width="2" height="2" fill="#E84125"/>
<rect opacity="0.7" x="750" y="68" width="2" height="2" fill="#E84125"/>
<rect opacity="0.24" x="772" y="24" width="2" height="2" fill="#E84125"/>
<rect opacity="0.24" x="772" y="46" width="2" height="2" fill="#E84125"/>
<rect opacity="0.24" x="772" y="68" width="2" height="2" fill="#E84125"/>
<rect opacity="0.7" x="794" y="24" width="2" height="2" fill="#E84125"/>
<rect opacity="0.7" x="794" y="46" width="2" height="2" fill="#E84125"/>
<rect opacity="0.7" x="794" y="68" width="2" height="2" fill="#E84125"/>
<rect opacity="0.7" x="816" y="24" width="2" height="2" fill="#E84125"/>
<rect opacity="0.7" x="816" y="46" width="2" height="2" fill="#E84125"/>
<rect opacity="0.24" x="816" y="68" width="2" height="2" fill="#E84125"/>
<rect opacity="0.7" x="838" y="24" width="2" height="2" fill="#E84125"/>
<rect opacity="0.7" x="838" y="46" width="2" height="2" fill="#E84125"/>
<rect opacity="0.24" x="838" y="68" width="2" height="2" fill="#E84125"/>
<rect opacity="0.7" x="860" y="24" width="2" height="2" fill="#E84125"/>
<rect opacity="0.7" x="860" y="46" width="2" height="2" fill="#E84125"/>
<rect opacity="0.7" x="860" y="68" width="2" height="2" fill="#E84125"/>
<rect opacity="0.24" x="882" y="24" width="2" height="2" fill="#E84125"/>
<rect opacity="0.24" x="882" y="46" width="2" height="2" fill="#E84125"/>
<rect opacity="0.24" x="882" y="68" width="2" height="2" fill="#E84125"/>
<rect opacity="0.7" x="904" y="24" width="2" height="2" fill="#E84125"/>
<rect opacity="0.24" x="904" y="46" width="2" height="2" fill="#E84125"/>
<rect opacity="0.24" x="904" y="68" width="2" height="2" fill="#E84125"/>
<rect opacity="0.24" x="926" y="24" width="2" height="2" fill="#E84125"/>
<rect opacity="0.7" x="926" y="46" width="2" height="2" fill="#E84125"/>
<rect opacity="0.24" x="926" y="68" width="2" height="2" fill="#E84125"/>
<rect opacity="0.24" x="948" y="24" width="2" height="2" fill="#E84125"/>
<rect opacity="0.7" x="948" y="46" width="2" height="2" fill="#E84125"/>
<rect opacity="0.24" x="948" y="68" width="2" height="2" fill="#E84125"/>
<rect opacity="0.7" x="970" y="24" width="2" height="2" fill="#E84125"/>
<rect opacity="0.7" x="970" y="46" width="2" height="2" fill="#E84125"/>
<rect opacity="0.7" x="970" y="68" width="2" height="2" fill="#E84125"/>
<rect opacity="0.24" x="992" y="24" width="2" height="2" fill="#E84125"/>
<rect opacity="0.24" x="992" y="46" width="2" height="2" fill="#E84125"/>
<rect opacity="0.24" x="992" y="68" width="2" height="2" fill="#E84125"/>
<rect opacity="0.7" x="1014" y="24" width="2" height="2" fill="#E84125"/>
<rect opacity="0.7" x="1014" y="46" width="2" height="2" fill="#E84125"/>
<rect opacity="0.24" x="1014" y="68" width="2" height="2" fill="#E84125"/>
<rect opacity="0.24" x="1036" y="24" width="2" height="2" fill="#E84125"/>
<rect opacity="0.7" x="1036" y="46" width="2" height="2" fill="#E84125"/>
<rect opacity="0.24" x="1036" y="68" width="2" height="2" fill="#E84125"/>
<rect opacity="0.24" x="1058" y="24" width="2" height="2" fill="#E84125"/>
<rect opacity="0.7" x="1058" y="46" width="2" height="2" fill="#E84125"/>
<rect opacity="0.24" x="1058" y="68" width="2" height="2" fill="#E84125"/>
<rect opacity="0.7" x="1080" y="24" width="2" height="2" fill="#E84125"/>
<rect opacity="0.24" x="1080" y="46" width="2" height="2" fill="#E84125"/>
<rect opacity="0.7" x="1080" y="68" width="2" height="2" fill="#E84125"/>
<rect opacity="0.24" x="1102" y="24" width="2" height="2" fill="#E84125"/>
<rect opacity="0.24" x="1102" y="46" width="2" height="2" fill="#E84125"/>
<rect opacity="0.24" x="1102" y="68" width="2" height="2" fill="#E84125"/>
<rect opacity="0.7" x="1124" y="24" width="2" height="2" fill="#E84125"/>
<rect opacity="0.7" x="1124" y="46" width="2" height="2" fill="#E84125"/>
<rect opacity="0.7" x="1124" y="68" width="2" height="2" fill="#E84125"/>
<rect opacity="0.24" x="1146" y="24" width="2" height="2" fill="#E84125"/>
<rect opacity="0.7" x="1146" y="46" width="2" height="2" fill="#E84125"/>
<rect opacity="0.7" x="1146" y="68" width="2" height="2" fill="#E84125"/>
<rect opacity="0.24" x="1168" y="24" width="2" height="2" fill="#E84125"/>
<rect opacity="0.7" x="1168" y="46" width="2" height="2" fill="#E84125"/>
<rect opacity="0.7" x="1168" y="68" width="2" height="2" fill="#E84125"/>
<rect opacity="0.7" x="1190" y="24" width="2" height="2" fill="#E84125"/>
<rect opacity="0.7" x="1190" y="46" width="2" height="2" fill="#E84125"/>
<rect opacity="0.7" x="1190" y="68" width="2" height="2" fill="#E84125"/>
<rect opacity="0.24" x="1212" y="24" width="2" height="2" fill="#E84125"/>
<rect opacity="0.24" x="1212" y="46" width="2" height="2" fill="#E84125"/>
<rect opacity="0.24" x="1212" y="68" width="2" height="2" fill="#E84125"/>
<rect opacity="0.7" x="1234" y="24" width="2" height="2" fill="#E84125"/>
<rect opacity="0.7" x="1234" y="46" width="2" height="2" fill="#E84125"/>
<rect opacity="0.7" x="1234" y="68" width="2" height="2" fill="#E84125"/>
<rect opacity="0.7" x="1256" y="24" width="2" height="2" fill="#E84125"/>
<rect opacity="0.7" x="1256" y="46" width="2" height="2" fill="#E84125"/>
<rect opacity="0.24" x="1256" y="68" width="2" height="2" fill="#E84125"/>
<rect opacity="0.7" x="1278" y="24" width="2" height="2" fill="#E84125"/>
<rect opacity="0.7" x="1278" y="46" width="2" height="2" fill="#E84125"/>
<rect opacity="0.24" x="1278" y="68" width="2" height="2" fill="#E84125"/>
<rect opacity="0.7" x="1300" y="24" width="2" height="2" fill="#E84125"/>
<rect opacity="0.7" x="1300" y="46" width="2" height="2" fill="#E84125"/>
<rect opacity="0.7" x="1300" y="68" width="2" height="2" fill="#E84125"/>
<rect opacity="0.24" x="1322" y="24" width="2" height="2" fill="#E84125"/>
<rect opacity="0.24" x="1322" y="46" width="2" height="2" fill="#E84125"/>
<rect opacity="0.24" x="1322" y="68" width="2" height="2" fill="#E84125"/>
<rect opacity="0.7" x="1344" y="24" width="2" height="2" fill="#E84125"/>
<rect opacity="0.7" x="1344" y="46" width="2" height="2" fill="#E84125"/>
<rect opacity="0.7" x="1344" y="68" width="2" height="2" fill="#E84125"/>
<rect opacity="0.24" x="1366" y="24" width="2" height="2" fill="#E84125"/>
<rect opacity="0.7" x="1366" y="46" width="2" height="2" fill="#E84125"/>
<rect opacity="0.7" x="1366" y="68" width="2" height="2" fill="#E84125"/>
<rect opacity="0.7" x="1388" y="24" width="2" height="2" fill="#E84125"/>
<rect opacity="0.7" x="1388" y="46" width="2" height="2" fill="#E84125"/>
<rect opacity="0.7" x="1388" y="68" width="2" height="2" fill="#E84125"/>
<rect opacity="0.7" x="1410" y="24" width="2" height="2" fill="#E84125"/>
<rect opacity="0.7" x="1410" y="46" width="2" height="2" fill="#E84125"/>
<rect opacity="0.7" x="1410" y="68" width="2" height="2" fill="#E84125"/>
<rect opacity="0.24" x="1432" y="24" width="2" height="2" fill="#E84125"/>
<rect opacity="0.24" x="1432" y="46" width="2" height="2" fill="#E84125"/>
<rect opacity="0.24" x="1432" y="68" width="2" height="2" fill="#E84125"/>
<rect opacity="0.7" x="1454" y="24" width="2" height="2" fill="#E84125"/>
<rect opacity="0.24" x="1454" y="46" width="2" height="2" fill="#E84125"/>
<rect opacity="0.7" x="1454" y="68" width="2" height="2" fill="#E84125"/>
<rect opacity="0.7" x="1476" y="24" width="2" height="2" fill="#E84125"/>
<rect opacity="0.7" x="1476" y="46" width="2" height="2" fill="#E84125"/>
<rect opacity="0.24" x="1476" y="68" width="2" height="2" fill="#E84125"/>
<rect opacity="0.7" x="1498" y="24" width="2" height="2" fill="#E84125"/>
<rect opacity="0.7" x="1498" y="46" width="2" height="2" fill="#E84125"/>
<rect opacity="0.24" x="1498" y="68" width="2" height="2" fill="#E84125"/>
<rect opacity="0.7" x="1520" y="24" width="2" height="2" fill="#E84125"/>
<rect opacity="0.7" x="1520" y="46" width="2" height="2" fill="#E84125"/>
<rect opacity="0.7" x="1520" y="68" width="2" height="2" fill="#E84125"/>
<rect opacity="0.24" x="1542" y="24" width="2" height="2" fill="#E84125"/>
<rect opacity="0.24" x="1542" y="46" width="2" height="2" fill="#E84125"/>
<rect opacity="0.24" x="1542" y="68" width="2" height="2" fill="#E84125"/>
<rect opacity="0.7" x="1564" y="24" width="2" height="2" fill="#E84125"/>
<rect opacity="0.7" x="1564" y="46" width="2" height="2" fill="#E84125"/>
<rect opacity="0.7" x="1564" y="68" width="2" height="2" fill="#E84125"/>
<rect opacity="0.24" x="1586" y="24" width="2" height="2" fill="#E84125"/>
<rect opacity="0.7" x="1586" y="46" width="2" height="2" fill="#E84125"/>
<rect opacity="0.7" x="1586" y="68" width="2" height="2" fill="#E84125"/>
<rect opacity="0.24" x="1608" y="24" width="2" height="2" fill="#E84125"/>
<rect opacity="0.24" x="1608" y="46" width="2" height="2" fill="#E84125"/>
<rect opacity="0.7" x="1608" y="68" width="2" height="2" fill="#E84125"/>
<rect opacity="0.7" x="1630" y="24" width="2" height="2" fill="#E84125"/>
<rect opacity="0.24" x="1630" y="46" width="2" height="2" fill="#E84125"/>
<rect opacity="0.24" x="1630" y="68" width="2" height="2" fill="#E84125"/>
<rect opacity="0.24" x="1652" y="24" width="2" height="2" fill="#E84125"/>
<rect opacity="0.24" x="1652" y="46" width="2" height="2" fill="#E84125"/>
<rect opacity="0.24" x="1652" y="68" width="2" height="2" fill="#E84125"/>
<rect opacity="0.7" x="1674" y="24" width="2" height="2" fill="#E84125"/>
<rect opacity="0.7" x="1674" y="46" width="2" height="2" fill="#E84125"/>
<rect opacity="0.7" x="1674" y="68" width="2" height="2" fill="#E84125"/>
<rect opacity="0.7" x="1696" y="24" width="2" height="2" fill="#E84125"/>
<rect opacity="0.7" x="1696" y="46" width="2" height="2" fill="#E84125"/>
<rect opacity="0.24" x="1696" y="68" width="2" height="2" fill="#E84125"/>
<rect opacity="0.7" x="1718" y="24" width="2" height="2" fill="#E84125"/>
<rect opacity="0.7" x="1718" y="46" width="2" height="2" fill="#E84125"/>
<rect opacity="0.24" x="1718" y="68" width="2" height="2" fill="#E84125"/>
<rect opacity="0.7" x="1740" y="24" width="2" height="2" fill="#E84125"/>
<rect opacity="0.7" x="1740" y="46" width="2" height="2" fill="#E84125"/>
<rect opacity="0.7" x="1740" y="68" width="2" height="2" fill="#E84125"/>
<rect opacity="0.24" x="1762" y="24" width="2" height="2" fill="#E84125"/>
<rect opacity="0.24" x="1762" y="46" width="2" height="2" fill="#E84125"/>
<rect opacity="0.24" x="1762" y="68" width="2" height="2" fill="#E84125"/>
<rect opacity="0.7" x="1784" y="24" width="2" height="2" fill="#E84125"/>
<rect opacity="0.7" x="1784" y="46" width="2" height="2" fill="#E84125"/>
<rect opacity="0.7" x="1784" y="68" width="2" height="2" fill="#E84125"/>
<rect opacity="0.7" x="1806" y="24" width="2" height="2" fill="#E84125"/>
<rect opacity="0.7" x="1806" y="46" width="2" height="2" fill="#E84125"/>
<rect opacity="0.7" x="1806" y="68" width="2" height="2" fill="#E84125"/>
<rect opacity="0.24" x="1828" y="24" width="2" height="2" fill="#E84125"/>
<rect opacity="0.7" x="1828" y="46" width="2" height="2" fill="#E84125"/>
<rect opacity="0.7" x="1828" y="68" width="2" height="2" fill="#E84125"/>
<rect opacity="0.7" x="1850" y="24" width="2" height="2" fill="#E84125"/>
<rect opacity="0.7" x="1850" y="46" width="2" height="2" fill="#E84125"/>
<rect opacity="0.7" x="1850" y="68" width="2" height="2" fill="#E84125"/>
<rect opacity="0.24" x="1872" y="24" width="2" height="2" fill="#E84125"/>
<rect opacity="0.24" x="1872" y="46" width="2" height="2" fill="#E84125"/>
<rect opacity="0.24" x="1872" y="68" width="2" height="2" fill="#E84125"/>
<rect opacity="0.7" x="1894" y="24" width="2" height="2" fill="#E84125"/>
<rect opacity="0.7" x="1894" y="46" width="2" height="2" fill="#E84125"/>
<rect opacity="0.7" x="1894" y="68" width="2" height="2" fill="#E84125"/>
<rect opacity="0.7" x="1916" y="24" width="2" height="2" fill="#E84125"/>
<rect opacity="0.7" x="1916" y="46" width="2" height="2" fill="#E84125"/>
<rect opacity="0.24" x="1916" y="68" width="2" height="2" fill="#E84125"/>
<rect opacity="0.7" x="1938" y="24" width="2" height="2" fill="#E84125"/>
<rect opacity="0.7" x="1938" y="46" width="2" height="2" fill="#E84125"/>
<rect opacity="0.24" x="1938" y="68" width="2" height="2" fill="#E84125"/>
<rect opacity="0.7" x="1960" y="24" width="2" height="2" fill="#E84125"/>
<rect opacity="0.7" x="1960" y="46" width="2" height="2" fill="#E84125"/>
<rect opacity="0.7" x="1960" y="68" width="2" height="2" fill="#E84125"/>
<rect opacity="0.24" x="1982" y="24" width="2" height="2" fill="#E84125"/>
<rect opacity="0.24" x="1982" y="46" width="2" height="2" fill="#E84125"/>
<rect opacity="0.24" x="1982" y="68" width="2" height="2" fill="#E84125"/>
<rect opacity="0.7" x="2004" y="24" width="2" height="2" fill="#E84125"/>
<rect opacity="0.24" x="2004" y="46" width="2" height="2" fill="#E84125"/>
<rect opacity="0.24" x="2004" y="68" width="2" height="2" fill="#E84125"/>
<rect opacity="0.24" x="2026" y="24" width="2" height="2" fill="#E84125"/>
<rect opacity="0.7" x="2026" y="46" width="2" height="2" fill="#E84125"/>
<rect opacity="0.24" x="2026" y="68" width="2" height="2" fill="#E84125"/>
</g>
<defs>
<clipPath id="clip0_480_28757">
<rect width="2046" height="94" fill="white"/>
</clipPath>
</defs>
</svg>
