<svg width="1184" height="209" viewBox="0 0 1184 209" fill="none" xmlns="http://www.w3.org/2000/svg">
<g clip-path="url(#clip0_399_13356)">
<path d="M8 8.5H1176" stroke="#321915"/>
<path d="M8 12.5H1176" stroke="#321915"/>
<path d="M8 16.5H1176" stroke="#321915"/>
<path d="M8 20.5H1176" stroke="#321915"/>
<path d="M8 24.5H1176" stroke="#321915"/>
<path d="M8 28.5H1176" stroke="#321915"/>
<path d="M8 32.5H1176" stroke="#321915"/>
<path d="M8 36.5H1176" stroke="#321915"/>
<path d="M8 40.5H1176" stroke="#321915"/>
<path d="M8 44.5H1176" stroke="#321915"/>
<path d="M8 48.5H1176" stroke="#321915"/>
<path d="M8 52.5H1176" stroke="#321915"/>
<path d="M8 56.5H1176" stroke="#321915"/>
<path d="M8 60.5H1176" stroke="#321915"/>
<path d="M8 64.5H1176" stroke="#321915"/>
<path d="M8 68.5H1176" stroke="#321915"/>
<path d="M8 72.5H1176" stroke="#321915"/>
<path d="M8 76.5H1176" stroke="#321915"/>
<path d="M8 80.5H1176" stroke="#321915"/>
<path d="M8 84.5H1176" stroke="#321915"/>
<path d="M8 88.5H1176" stroke="#321915"/>
<path d="M8 92.5H1176" stroke="#321915"/>
<path d="M8 96.5H1176" stroke="#321915"/>
<path d="M8 100.5H1176" stroke="#321915"/>
<path d="M8 104.5H1176" stroke="#321915"/>
<path d="M8 108.5H1176" stroke="#321915"/>
<path d="M8 112.5H1176" stroke="#321915"/>
<path d="M8 116.5H1176" stroke="#321915"/>
<path d="M8 120.5H1176" stroke="#321915"/>
<path d="M8 124.5H1176" stroke="#321915"/>
<path d="M8 128.5H1176" stroke="#321915"/>
<path d="M8 132.5H1176" stroke="#321915"/>
<path d="M8 136.5H1176" stroke="#321915"/>
<path d="M8 140.5H1176" stroke="#321915"/>
<path d="M8 144.5H1176" stroke="#321915"/>
<path d="M8 148.5H1176" stroke="#321915"/>
<path d="M8 152.5H1176" stroke="#321915"/>
<path d="M8 156.5H1176" stroke="#321915"/>
<path d="M8 160.5H1176" stroke="#321915"/>
<path d="M8 164.5H1176" stroke="#321915"/>
<path d="M8 168.5H1176" stroke="#321915"/>
<path d="M8 172.5H1176" stroke="#321915"/>
<path d="M8 176.5H1176" stroke="#321915"/>
<path d="M8 180.5H1176" stroke="#321915"/>
<path d="M8 184.5H1176" stroke="#321915"/>
<path d="M8 188.5H1176" stroke="#321915"/>
<path d="M8 192.5H1176" stroke="#321915"/>
<path d="M8 196.5H1176" stroke="#321915"/>
<path d="M8 200.5H1176" stroke="#321915"/>
<path d="M9 32H8V33H9V32Z" fill="#542D26"/>
<path d="M34 32H33V33H34V32Z" fill="#542D26"/>
<path d="M59 32H58V33H59V32Z" fill="#542D26"/>
<path d="M84 32H83V33H84V32Z" fill="#542D26"/>
<path d="M109 32H108V33H109V32Z" fill="#542D26"/>
<path d="M134 32H133V33H134V32Z" fill="#542D26"/>
<path d="M159 32H158V33H159V32Z" fill="#542D26"/>
<path d="M184 32H183V33H184V32Z" fill="#542D26"/>
<path d="M209 32H208V33H209V32Z" fill="#542D26"/>
<path d="M234 32H233V33H234V32Z" fill="#542D26"/>
<path d="M259 32H258V33H259V32Z" fill="#542D26"/>
<path d="M284 32H283V33H284V32Z" fill="#542D26"/>
<path d="M309 32H308V33H309V32Z" fill="#542D26"/>
<path d="M334 32H333V33H334V32Z" fill="#542D26"/>
<path d="M359 32H358V33H359V32Z" fill="#542D26"/>
<path d="M384 32H383V33H384V32Z" fill="#542D26"/>
<path d="M409 32H408V33H409V32Z" fill="#542D26"/>
<path d="M434 32H433V33H434V32Z" fill="#542D26"/>
<path d="M459 32H458V33H459V32Z" fill="#542D26"/>
<path d="M484 32H483V33H484V32Z" fill="#542D26"/>
<path d="M509 32H508V33H509V32Z" fill="#542D26"/>
<path d="M534 32H533V33H534V32Z" fill="#542D26"/>
<path d="M559 32H558V33H559V32Z" fill="#542D26"/>
<path d="M584 32H583V33H584V32Z" fill="#542D26"/>
<path d="M609 32H608V33H609V32Z" fill="#542D26"/>
<path d="M634 32H633V33H634V32Z" fill="#542D26"/>
<path d="M659 32H658V33H659V32Z" fill="#542D26"/>
<path d="M684 32H683V33H684V32Z" fill="#542D26"/>
<path d="M709 32H708V33H709V32Z" fill="#542D26"/>
<path d="M734 32H733V33H734V32Z" fill="#542D26"/>
<path d="M759 32H758V33H759V32Z" fill="#542D26"/>
<path d="M784 32H783V33H784V32Z" fill="#542D26"/>
<path d="M809 32H808V33H809V32Z" fill="#542D26"/>
<path d="M834 32H833V33H834V32Z" fill="#542D26"/>
<path d="M859 32H858V33H859V32Z" fill="#542D26"/>
<path d="M884 32H883V33H884V32Z" fill="#542D26"/>
<path d="M909 32H908V33H909V32Z" fill="#542D26"/>
<path d="M934 32H933V33H934V32Z" fill="#542D26"/>
<path d="M959 32H958V33H959V32Z" fill="#542D26"/>
<path d="M984 32H983V33H984V32Z" fill="#542D26"/>
<path d="M1009 32H1008V33H1009V32Z" fill="#542D26"/>
<path d="M1034 32H1033V33H1034V32Z" fill="#542D26"/>
<path d="M1059 32H1058V33H1059V32Z" fill="#542D26"/>
<path d="M1084 32H1083V33H1084V32Z" fill="#542D26"/>
<path d="M1109 32H1108V33H1109V32Z" fill="#542D26"/>
<path d="M1134 32H1133V33H1134V32Z" fill="#542D26"/>
<path d="M1159 32H1158V33H1159V32Z" fill="#542D26"/>
<path d="M9 56H8V57H9V56Z" fill="#542D26"/>
<path d="M34 56H33V57H34V56Z" fill="#542D26"/>
<path d="M59 56H58V57H59V56Z" fill="#542D26"/>
<path d="M84 56H83V57H84V56Z" fill="#542D26"/>
<path d="M109 56H108V57H109V56Z" fill="#542D26"/>
<path d="M134 56H133V57H134V56Z" fill="#542D26"/>
<path d="M159 56H158V57H159V56Z" fill="#542D26"/>
<path d="M184 56H183V57H184V56Z" fill="#542D26"/>
<path d="M209 56H208V57H209V56Z" fill="#542D26"/>
<path d="M234 56H233V57H234V56Z" fill="#542D26"/>
<path d="M259 56H258V57H259V56Z" fill="#542D26"/>
<path d="M284 56H283V57H284V56Z" fill="#542D26"/>
<path d="M309 56H308V57H309V56Z" fill="#542D26"/>
<path d="M334 56H333V57H334V56Z" fill="#542D26"/>
<path d="M359 56H358V57H359V56Z" fill="#542D26"/>
<path d="M384 56H383V57H384V56Z" fill="#542D26"/>
<path d="M409 56H408V57H409V56Z" fill="#542D26"/>
<path d="M434 56H433V57H434V56Z" fill="#542D26"/>
<path d="M459 56H458V57H459V56Z" fill="#542D26"/>
<path d="M484 56H483V57H484V56Z" fill="#542D26"/>
<path d="M509 56H508V57H509V56Z" fill="#542D26"/>
<path d="M534 56H533V57H534V56Z" fill="#542D26"/>
<path d="M559 56H558V57H559V56Z" fill="#542D26"/>
<path d="M584 56H583V57H584V56Z" fill="#542D26"/>
<path d="M609 56H608V57H609V56Z" fill="#542D26"/>
<path d="M634 56H633V57H634V56Z" fill="#542D26"/>
<path d="M659 56H658V57H659V56Z" fill="#542D26"/>
<path d="M684 56H683V57H684V56Z" fill="#542D26"/>
<path d="M709 56H708V57H709V56Z" fill="#542D26"/>
<path d="M734 56H733V57H734V56Z" fill="#542D26"/>
<path d="M759 56H758V57H759V56Z" fill="#542D26"/>
<path d="M784 56H783V57H784V56Z" fill="#542D26"/>
<path d="M809 56H808V57H809V56Z" fill="#542D26"/>
<path d="M834 56H833V57H834V56Z" fill="#542D26"/>
<path d="M859 56H858V57H859V56Z" fill="#542D26"/>
<path d="M884 56H883V57H884V56Z" fill="#542D26"/>
<path d="M909 56H908V57H909V56Z" fill="#542D26"/>
<path d="M934 56H933V57H934V56Z" fill="#542D26"/>
<path d="M959 56H958V57H959V56Z" fill="#542D26"/>
<path d="M984 56H983V57H984V56Z" fill="#542D26"/>
<path d="M1009 56H1008V57H1009V56Z" fill="#542D26"/>
<path d="M1034 56H1033V57H1034V56Z" fill="#542D26"/>
<path d="M1059 56H1058V57H1059V56Z" fill="#542D26"/>
<path d="M1084 56H1083V57H1084V56Z" fill="#542D26"/>
<path d="M1109 56H1108V57H1109V56Z" fill="#542D26"/>
<path d="M1134 56H1133V57H1134V56Z" fill="#542D26"/>
<path d="M1159 56H1158V57H1159V56Z" fill="#542D26"/>
<path d="M9 80H8V81H9V80Z" fill="#542D26"/>
<path d="M34 80H33V81H34V80Z" fill="#542D26"/>
<path d="M59 80H58V81H59V80Z" fill="#542D26"/>
<path d="M84 80H83V81H84V80Z" fill="#542D26"/>
<path d="M109 80H108V81H109V80Z" fill="#542D26"/>
<path d="M134 80H133V81H134V80Z" fill="#542D26"/>
<path d="M159 80H158V81H159V80Z" fill="#542D26"/>
<path d="M184 80H183V81H184V80Z" fill="#542D26"/>
<path d="M209 80H208V81H209V80Z" fill="#542D26"/>
<path d="M234 80H233V81H234V80Z" fill="#542D26"/>
<path d="M259 80H258V81H259V80Z" fill="#542D26"/>
<path d="M284 80H283V81H284V80Z" fill="#542D26"/>
<path d="M309 80H308V81H309V80Z" fill="#542D26"/>
<path d="M334 80H333V81H334V80Z" fill="#542D26"/>
<path d="M359 80H358V81H359V80Z" fill="#542D26"/>
<path d="M384 80H383V81H384V80Z" fill="#542D26"/>
<path d="M409 80H408V81H409V80Z" fill="#542D26"/>
<path d="M434 80H433V81H434V80Z" fill="#542D26"/>
<path d="M459 80H458V81H459V80Z" fill="#542D26"/>
<path d="M484 80H483V81H484V80Z" fill="#542D26"/>
<path d="M509 80H508V81H509V80Z" fill="#542D26"/>
<path d="M534 80H533V81H534V80Z" fill="#542D26"/>
<path d="M559 80H558V81H559V80Z" fill="#542D26"/>
<path d="M584 80H583V81H584V80Z" fill="#542D26"/>
<path d="M609 80H608V81H609V80Z" fill="#542D26"/>
<path d="M634 80H633V81H634V80Z" fill="#542D26"/>
<path d="M659 80H658V81H659V80Z" fill="#542D26"/>
<path d="M684 80H683V81H684V80Z" fill="#542D26"/>
<path d="M709 80H708V81H709V80Z" fill="#542D26"/>
<path d="M734 80H733V81H734V80Z" fill="#542D26"/>
<path d="M759 80H758V81H759V80Z" fill="#542D26"/>
<path d="M784 80H783V81H784V80Z" fill="#542D26"/>
<path d="M809 80H808V81H809V80Z" fill="#542D26"/>
<path d="M834 80H833V81H834V80Z" fill="#542D26"/>
<path d="M859 80H858V81H859V80Z" fill="#542D26"/>
<path d="M884 80H883V81H884V80Z" fill="#542D26"/>
<path d="M909 80H908V81H909V80Z" fill="#542D26"/>
<path d="M934 80H933V81H934V80Z" fill="#542D26"/>
<path d="M959 80H958V81H959V80Z" fill="#542D26"/>
<path d="M984 80H983V81H984V80Z" fill="#542D26"/>
<path d="M1009 80H1008V81H1009V80Z" fill="#542D26"/>
<path d="M1034 80H1033V81H1034V80Z" fill="#542D26"/>
<path d="M1059 80H1058V81H1059V80Z" fill="#542D26"/>
<path d="M1084 80H1083V81H1084V80Z" fill="#542D26"/>
<path d="M1109 80H1108V81H1109V80Z" fill="#542D26"/>
<path d="M1134 80H1133V81H1134V80Z" fill="#542D26"/>
<path d="M1159 80H1158V81H1159V80Z" fill="#542D26"/>
<path d="M9 104H8V105H9V104Z" fill="#542D26"/>
<path d="M34 104H33V105H34V104Z" fill="#542D26"/>
<path d="M59 104H58V105H59V104Z" fill="#542D26"/>
<path d="M84 104H83V105H84V104Z" fill="#542D26"/>
<path d="M109 104H108V105H109V104Z" fill="#542D26"/>
<path d="M134 104H133V105H134V104Z" fill="#542D26"/>
<path d="M159 104H158V105H159V104Z" fill="#542D26"/>
<path d="M184 104H183V105H184V104Z" fill="#542D26"/>
<path d="M209 104H208V105H209V104Z" fill="#542D26"/>
<path d="M234 104H233V105H234V104Z" fill="#542D26"/>
<path d="M259 104H258V105H259V104Z" fill="#542D26"/>
<path d="M284 104H283V105H284V104Z" fill="#542D26"/>
<path d="M309 104H308V105H309V104Z" fill="#542D26"/>
<path d="M334 104H333V105H334V104Z" fill="#542D26"/>
<path d="M359 104H358V105H359V104Z" fill="#542D26"/>
<path d="M384 104H383V105H384V104Z" fill="#542D26"/>
<path d="M409 104H408V105H409V104Z" fill="#542D26"/>
<path d="M434 104H433V105H434V104Z" fill="#542D26"/>
<path d="M459 104H458V105H459V104Z" fill="#542D26"/>
<path d="M484 104H483V105H484V104Z" fill="#542D26"/>
<path d="M509 104H508V105H509V104Z" fill="#542D26"/>
<path d="M534 104H533V105H534V104Z" fill="#542D26"/>
<path d="M559 104H558V105H559V104Z" fill="#542D26"/>
<path d="M584 104H583V105H584V104Z" fill="#542D26"/>
<path d="M609 104H608V105H609V104Z" fill="#542D26"/>
<path d="M634 104H633V105H634V104Z" fill="#542D26"/>
<path d="M659 104H658V105H659V104Z" fill="#542D26"/>
<path d="M684 104H683V105H684V104Z" fill="#542D26"/>
<path d="M709 104H708V105H709V104Z" fill="#542D26"/>
<path d="M734 104H733V105H734V104Z" fill="#542D26"/>
<path d="M759 104H758V105H759V104Z" fill="#542D26"/>
<path d="M784 104H783V105H784V104Z" fill="#542D26"/>
<path d="M809 104H808V105H809V104Z" fill="#542D26"/>
<path d="M834 104H833V105H834V104Z" fill="#542D26"/>
<path d="M859 104H858V105H859V104Z" fill="#542D26"/>
<path d="M884 104H883V105H884V104Z" fill="#542D26"/>
<path d="M909 104H908V105H909V104Z" fill="#542D26"/>
<path d="M934 104H933V105H934V104Z" fill="#542D26"/>
<path d="M959 104H958V105H959V104Z" fill="#542D26"/>
<path d="M984 104H983V105H984V104Z" fill="#542D26"/>
<path d="M1009 104H1008V105H1009V104Z" fill="#542D26"/>
<path d="M1034 104H1033V105H1034V104Z" fill="#542D26"/>
<path d="M1059 104H1058V105H1059V104Z" fill="#542D26"/>
<path d="M1084 104H1083V105H1084V104Z" fill="#542D26"/>
<path d="M1109 104H1108V105H1109V104Z" fill="#542D26"/>
<path d="M1134 104H1133V105H1134V104Z" fill="#542D26"/>
<path d="M1159 104H1158V105H1159V104Z" fill="#542D26"/>
<path d="M9 128H8V129H9V128Z" fill="#542D26"/>
<path d="M34 128H33V129H34V128Z" fill="#542D26"/>
<path d="M59 128H58V129H59V128Z" fill="#542D26"/>
<path d="M84 128H83V129H84V128Z" fill="#542D26"/>
<path d="M109 128H108V129H109V128Z" fill="#542D26"/>
<path d="M134 128H133V129H134V128Z" fill="#542D26"/>
<path d="M159 128H158V129H159V128Z" fill="#542D26"/>
<path d="M184 128H183V129H184V128Z" fill="#542D26"/>
<path d="M209 128H208V129H209V128Z" fill="#542D26"/>
<path d="M234 128H233V129H234V128Z" fill="#542D26"/>
<path d="M259 128H258V129H259V128Z" fill="#542D26"/>
<path d="M284 128H283V129H284V128Z" fill="#542D26"/>
<path d="M309 128H308V129H309V128Z" fill="#542D26"/>
<path d="M334 128H333V129H334V128Z" fill="#542D26"/>
<path d="M359 128H358V129H359V128Z" fill="#542D26"/>
<path d="M384 128H383V129H384V128Z" fill="#542D26"/>
<path d="M409 128H408V129H409V128Z" fill="#542D26"/>
<path d="M434 128H433V129H434V128Z" fill="#542D26"/>
<path d="M459 128H458V129H459V128Z" fill="#542D26"/>
<path d="M484 128H483V129H484V128Z" fill="#542D26"/>
<path d="M509 128H508V129H509V128Z" fill="#542D26"/>
<path d="M534 128H533V129H534V128Z" fill="#542D26"/>
<path d="M559 128H558V129H559V128Z" fill="#542D26"/>
<path d="M584 128H583V129H584V128Z" fill="#542D26"/>
<path d="M609 128H608V129H609V128Z" fill="#542D26"/>
<path d="M634 128H633V129H634V128Z" fill="#542D26"/>
<path d="M659 128H658V129H659V128Z" fill="#542D26"/>
<path d="M684 128H683V129H684V128Z" fill="#542D26"/>
<path d="M709 128H708V129H709V128Z" fill="#542D26"/>
<path d="M734 128H733V129H734V128Z" fill="#542D26"/>
<path d="M759 128H758V129H759V128Z" fill="#542D26"/>
<path d="M784 128H783V129H784V128Z" fill="#542D26"/>
<path d="M809 128H808V129H809V128Z" fill="#542D26"/>
<path d="M834 128H833V129H834V128Z" fill="#542D26"/>
<path d="M859 128H858V129H859V128Z" fill="#542D26"/>
<path d="M884 128H883V129H884V128Z" fill="#542D26"/>
<path d="M909 128H908V129H909V128Z" fill="#542D26"/>
<path d="M934 128H933V129H934V128Z" fill="#542D26"/>
<path d="M959 128H958V129H959V128Z" fill="#542D26"/>
<path d="M984 128H983V129H984V128Z" fill="#542D26"/>
<path d="M1009 128H1008V129H1009V128Z" fill="#542D26"/>
<path d="M1034 128H1033V129H1034V128Z" fill="#542D26"/>
<path d="M1059 128H1058V129H1059V128Z" fill="#542D26"/>
<path d="M1084 128H1083V129H1084V128Z" fill="#542D26"/>
<path d="M1109 128H1108V129H1109V128Z" fill="#542D26"/>
<path d="M1134 128H1133V129H1134V128Z" fill="#542D26"/>
<path d="M1159 128H1158V129H1159V128Z" fill="#542D26"/>
<path d="M9 152H8V153H9V152Z" fill="#542D26"/>
<path d="M34 152H33V153H34V152Z" fill="#542D26"/>
<path d="M59 152H58V153H59V152Z" fill="#542D26"/>
<path d="M84 152H83V153H84V152Z" fill="#542D26"/>
<path d="M109 152H108V153H109V152Z" fill="#542D26"/>
<path d="M134 152H133V153H134V152Z" fill="#542D26"/>
<path d="M159 152H158V153H159V152Z" fill="#542D26"/>
<path d="M184 152H183V153H184V152Z" fill="#542D26"/>
<path d="M209 152H208V153H209V152Z" fill="#542D26"/>
<path d="M234 152H233V153H234V152Z" fill="#542D26"/>
<path d="M259 152H258V153H259V152Z" fill="#542D26"/>
<path d="M284 152H283V153H284V152Z" fill="#542D26"/>
<path d="M309 152H308V153H309V152Z" fill="#542D26"/>
<path d="M334 152H333V153H334V152Z" fill="#542D26"/>
<path d="M359 152H358V153H359V152Z" fill="#542D26"/>
<path d="M384 152H383V153H384V152Z" fill="#542D26"/>
<path d="M409 152H408V153H409V152Z" fill="#542D26"/>
<path d="M434 152H433V153H434V152Z" fill="#542D26"/>
<path d="M459 152H458V153H459V152Z" fill="#542D26"/>
<path d="M484 152H483V153H484V152Z" fill="#542D26"/>
<path d="M509 152H508V153H509V152Z" fill="#542D26"/>
<path d="M534 152H533V153H534V152Z" fill="#542D26"/>
<path d="M559 152H558V153H559V152Z" fill="#542D26"/>
<path d="M584 152H583V153H584V152Z" fill="#542D26"/>
<path d="M609 152H608V153H609V152Z" fill="#542D26"/>
<path d="M634 152H633V153H634V152Z" fill="#542D26"/>
<path d="M659 152H658V153H659V152Z" fill="#542D26"/>
<path d="M684 152H683V153H684V152Z" fill="#542D26"/>
<path d="M709 152H708V153H709V152Z" fill="#542D26"/>
<path d="M734 152H733V153H734V152Z" fill="#542D26"/>
<path d="M759 152H758V153H759V152Z" fill="#542D26"/>
<path d="M784 152H783V153H784V152Z" fill="#542D26"/>
<path d="M809 152H808V153H809V152Z" fill="#542D26"/>
<path d="M834 152H833V153H834V152Z" fill="#542D26"/>
<path d="M859 152H858V153H859V152Z" fill="#542D26"/>
<path d="M884 152H883V153H884V152Z" fill="#542D26"/>
<path d="M909 152H908V153H909V152Z" fill="#542D26"/>
<path d="M934 152H933V153H934V152Z" fill="#542D26"/>
<path d="M959 152H958V153H959V152Z" fill="#542D26"/>
<path d="M984 152H983V153H984V152Z" fill="#542D26"/>
<path d="M1009 152H1008V153H1009V152Z" fill="#542D26"/>
<path d="M1034 152H1033V153H1034V152Z" fill="#542D26"/>
<path d="M1059 152H1058V153H1059V152Z" fill="#542D26"/>
<path d="M1084 152H1083V153H1084V152Z" fill="#542D26"/>
<path d="M1109 152H1108V153H1109V152Z" fill="#542D26"/>
<path d="M1134 152H1133V153H1134V152Z" fill="#542D26"/>
<path d="M1159 152H1158V153H1159V152Z" fill="#542D26"/>
<path d="M9 176H8V177H9V176Z" fill="#542D26"/>
<path d="M34 176H33V177H34V176Z" fill="#542D26"/>
<path d="M59 176H58V177H59V176Z" fill="#542D26"/>
<path d="M84 176H83V177H84V176Z" fill="#542D26"/>
<path d="M109 176H108V177H109V176Z" fill="#542D26"/>
<path d="M134 176H133V177H134V176Z" fill="#542D26"/>
<path d="M159 176H158V177H159V176Z" fill="#542D26"/>
<path d="M184 176H183V177H184V176Z" fill="#542D26"/>
<path d="M209 176H208V177H209V176Z" fill="#542D26"/>
<path d="M234 176H233V177H234V176Z" fill="#542D26"/>
<path d="M259 176H258V177H259V176Z" fill="#542D26"/>
<path d="M284 176H283V177H284V176Z" fill="#542D26"/>
<path d="M309 176H308V177H309V176Z" fill="#542D26"/>
<path d="M334 176H333V177H334V176Z" fill="#542D26"/>
<path d="M359 176H358V177H359V176Z" fill="#542D26"/>
<path d="M384 176H383V177H384V176Z" fill="#542D26"/>
<path d="M409 176H408V177H409V176Z" fill="#542D26"/>
<path d="M434 176H433V177H434V176Z" fill="#542D26"/>
<path d="M459 176H458V177H459V176Z" fill="#542D26"/>
<path d="M484 176H483V177H484V176Z" fill="#542D26"/>
<path d="M509 176H508V177H509V176Z" fill="#542D26"/>
<path d="M534 176H533V177H534V176Z" fill="#542D26"/>
<path d="M559 176H558V177H559V176Z" fill="#542D26"/>
<path d="M584 176H583V177H584V176Z" fill="#542D26"/>
<path d="M609 176H608V177H609V176Z" fill="#542D26"/>
<path d="M634 176H633V177H634V176Z" fill="#542D26"/>
<path d="M659 176H658V177H659V176Z" fill="#542D26"/>
<path d="M684 176H683V177H684V176Z" fill="#542D26"/>
<path d="M709 176H708V177H709V176Z" fill="#542D26"/>
<path d="M734 176H733V177H734V176Z" fill="#542D26"/>
<path d="M759 176H758V177H759V176Z" fill="#542D26"/>
<path d="M784 176H783V177H784V176Z" fill="#542D26"/>
<path d="M809 176H808V177H809V176Z" fill="#542D26"/>
<path d="M834 176H833V177H834V176Z" fill="#542D26"/>
<path d="M859 176H858V177H859V176Z" fill="#542D26"/>
<path d="M884 176H883V177H884V176Z" fill="#542D26"/>
<path d="M909 176H908V177H909V176Z" fill="#542D26"/>
<path d="M934 176H933V177H934V176Z" fill="#542D26"/>
<path d="M959 176H958V177H959V176Z" fill="#542D26"/>
<path d="M984 176H983V177H984V176Z" fill="#542D26"/>
<path d="M1009 176H1008V177H1009V176Z" fill="#542D26"/>
<path d="M1034 176H1033V177H1034V176Z" fill="#542D26"/>
<path d="M1059 176H1058V177H1059V176Z" fill="#542D26"/>
<path d="M1084 176H1083V177H1084V176Z" fill="#542D26"/>
<path d="M1109 176H1108V177H1109V176Z" fill="#542D26"/>
<path d="M1134 176H1133V177H1134V176Z" fill="#542D26"/>
<path d="M1159 176H1158V177H1159V176Z" fill="#542D26"/>
<path d="M9 32H8V33H9V32Z" fill="#E84125"/>
<path d="M59 32H58V33H59V32Z" fill="#E84125"/>
<path d="M109 32H108V33H109V32Z" fill="#E84125"/>
<path d="M159 32H158V33H159V32Z" fill="#E84125"/>
<path d="M209 32H208V33H209V32Z" fill="#E84125"/>
<path d="M259 32H258V33H259V32Z" fill="#E84125"/>
<path d="M309 32H308V33H309V32Z" fill="#E84125"/>
<path d="M359 32H358V33H359V32Z" fill="#E84125"/>
<path d="M409 32H408V33H409V32Z" fill="#E84125"/>
<path d="M459 32H458V33H459V32Z" fill="#E84125"/>
<path d="M509 32H508V33H509V32Z" fill="#E84125"/>
<path d="M559 32H558V33H559V32Z" fill="#E84125"/>
<path d="M609 32H608V33H609V32Z" fill="#E84125"/>
<path d="M659 32H658V33H659V32Z" fill="#E84125"/>
<path d="M709 32H708V33H709V32Z" fill="#E84125"/>
<path d="M759 32H758V33H759V32Z" fill="#E84125"/>
<path d="M809 32H808V33H809V32Z" fill="#E84125"/>
<path d="M859 32H858V33H859V32Z" fill="#E84125"/>
<path d="M909 32H908V33H909V32Z" fill="#E84125"/>
<path d="M959 32H958V33H959V32Z" fill="#E84125"/>
<path d="M1009 32H1008V33H1009V32Z" fill="#E84125"/>
<path d="M1059 32H1058V33H1059V32Z" fill="#E84125"/>
<path d="M1109 32H1108V33H1109V32Z" fill="#E84125"/>
<path d="M1159 32H1158V33H1159V32Z" fill="#E84125"/>
<path d="M9 80H8V81H9V80Z" fill="#E84125"/>
<path d="M59 80H58V81H59V80Z" fill="#E84125"/>
<path d="M109 80H108V81H109V80Z" fill="#E84125"/>
<path d="M159 80H158V81H159V80Z" fill="#E84125"/>
<path d="M209 80H208V81H209V80Z" fill="#E84125"/>
<path d="M259 80H258V81H259V80Z" fill="#E84125"/>
<path d="M309 80H308V81H309V80Z" fill="#E84125"/>
<path d="M359 80H358V81H359V80Z" fill="#E84125"/>
<path d="M409 80H408V81H409V80Z" fill="#E84125"/>
<path d="M459 80H458V81H459V80Z" fill="#E84125"/>
<path d="M509 80H508V81H509V80Z" fill="#E84125"/>
<path d="M559 80H558V81H559V80Z" fill="#E84125"/>
<path d="M609 80H608V81H609V80Z" fill="#E84125"/>
<path d="M659 80H658V81H659V80Z" fill="#E84125"/>
<path d="M709 80H708V81H709V80Z" fill="#E84125"/>
<path d="M759 80H758V81H759V80Z" fill="#E84125"/>
<path d="M809 80H808V81H809V80Z" fill="#E84125"/>
<path d="M859 80H858V81H859V80Z" fill="#E84125"/>
<path d="M909 80H908V81H909V80Z" fill="#E84125"/>
<path d="M959 80H958V81H959V80Z" fill="#E84125"/>
<path d="M1009 80H1008V81H1009V80Z" fill="#E84125"/>
<path d="M1059 80H1058V81H1059V80Z" fill="#E84125"/>
<path d="M1109 80H1108V81H1109V80Z" fill="#E84125"/>
<path d="M1159 80H1158V81H1159V80Z" fill="#E84125"/>
<path d="M9 128H8V129H9V128Z" fill="#E84125"/>
<path d="M59 128H58V129H59V128Z" fill="#E84125"/>
<path d="M109 128H108V129H109V128Z" fill="#E84125"/>
<path d="M159 128H158V129H159V128Z" fill="#E84125"/>
<path d="M209 128H208V129H209V128Z" fill="#E84125"/>
<path d="M259 128H258V129H259V128Z" fill="#E84125"/>
<path d="M309 128H308V129H309V128Z" fill="#E84125"/>
<path d="M359 128H358V129H359V128Z" fill="#E84125"/>
<path d="M409 128H408V129H409V128Z" fill="#E84125"/>
<path d="M459 128H458V129H459V128Z" fill="#E84125"/>
<path d="M509 128H508V129H509V128Z" fill="#E84125"/>
<path d="M559 128H558V129H559V128Z" fill="#E84125"/>
<path d="M609 128H608V129H609V128Z" fill="#E84125"/>
<path d="M659 128H658V129H659V128Z" fill="#E84125"/>
<path d="M709 128H708V129H709V128Z" fill="#E84125"/>
<path d="M759 128H758V129H759V128Z" fill="#E84125"/>
<path d="M809 128H808V129H809V128Z" fill="#E84125"/>
<path d="M859 128H858V129H859V128Z" fill="#E84125"/>
<path d="M909 128H908V129H909V128Z" fill="#E84125"/>
<path d="M959 128H958V129H959V128Z" fill="#E84125"/>
<path d="M1009 128H1008V129H1009V128Z" fill="#E84125"/>
<path d="M1059 128H1058V129H1059V128Z" fill="#E84125"/>
<path d="M1109 128H1108V129H1109V128Z" fill="#E84125"/>
<path d="M1159 128H1158V129H1159V128Z" fill="#E84125"/>
<path d="M9 176H8V177H9V176Z" fill="#E84125"/>
<path d="M59 176H58V177H59V176Z" fill="#E84125"/>
<path d="M109 176H108V177H109V176Z" fill="#E84125"/>
<path d="M159 176H158V177H159V176Z" fill="#E84125"/>
<path d="M209 176H208V177H209V176Z" fill="#E84125"/>
<path d="M259 176H258V177H259V176Z" fill="#E84125"/>
<path d="M309 176H308V177H309V176Z" fill="#E84125"/>
<path d="M359 176H358V177H359V176Z" fill="#E84125"/>
<path d="M409 176H408V177H409V176Z" fill="#E84125"/>
<path d="M459 176H458V177H459V176Z" fill="#E84125"/>
<path d="M509 176H508V177H509V176Z" fill="#E84125"/>
<path d="M559 176H558V177H559V176Z" fill="#E84125"/>
<path d="M609 176H608V177H609V176Z" fill="#E84125"/>
<path d="M659 176H658V177H659V176Z" fill="#E84125"/>
<path d="M709 176H708V177H709V176Z" fill="#E84125"/>
<path d="M759 176H758V177H759V176Z" fill="#E84125"/>
<path d="M809 176H808V177H809V176Z" fill="#E84125"/>
<path d="M859 176H858V177H859V176Z" fill="#E84125"/>
<path d="M909 176H908V177H909V176Z" fill="#E84125"/>
<path d="M959 176H958V177H959V176Z" fill="#E84125"/>
<path d="M1009 176H1008V177H1009V176Z" fill="#E84125"/>
<path d="M1059 176H1058V177H1059V176Z" fill="#E84125"/>
<path d="M1109 176H1108V177H1109V176Z" fill="#E84125"/>
<path d="M1159 176H1158V177H1159V176Z" fill="#E84125"/>
<g filter="url(#filter0_d_399_13356)">
<path d="M13 8.5H8.5V13" stroke="#E84125"/>
</g>
<g filter="url(#filter1_d_399_13356)">
<path d="M13 104.5H8.5M8.5 104.5V100M8.5 104.5V109" stroke="#E84125"/>
</g>
<g filter="url(#filter2_d_399_13356)">
<path d="M1171 104.5H1175.5M1175.5 104.5V109M1175.5 104.5V100" stroke="#E84125"/>
</g>
<g filter="url(#filter3_d_399_13356)">
<path d="M1175.5 13V8.5H1171" stroke="#E84125"/>
</g>
<g filter="url(#filter4_d_399_13356)">
<path d="M8.5 196V200.5H13" stroke="#E84125"/>
</g>
<g filter="url(#filter5_d_399_13356)">
<path d="M1171 200.5H1175.5V196" stroke="#E84125"/>
</g>
</g>
<defs>
<filter id="filter0_d_399_13356" x="0" y="0" width="21" height="21" filterUnits="userSpaceOnUse" color-interpolation-filters="sRGB">
<feFlood flood-opacity="0" result="BackgroundImageFix"/>
<feColorMatrix in="SourceAlpha" type="matrix" values="0 0 0 0 0 0 0 0 0 0 0 0 0 0 0 0 0 0 127 0" result="hardAlpha"/>
<feOffset/>
<feGaussianBlur stdDeviation="4"/>
<feComposite in2="hardAlpha" operator="out"/>
<feColorMatrix type="matrix" values="0 0 0 0 0.909804 0 0 0 0 0.254902 0 0 0 0 0.145098 0 0 0 1 0"/>
<feBlend mode="normal" in2="BackgroundImageFix" result="effect1_dropShadow_399_13356"/>
<feBlend mode="normal" in="SourceGraphic" in2="effect1_dropShadow_399_13356" result="shape"/>
</filter>
<filter id="filter1_d_399_13356" x="0" y="92" width="21" height="25" filterUnits="userSpaceOnUse" color-interpolation-filters="sRGB">
<feFlood flood-opacity="0" result="BackgroundImageFix"/>
<feColorMatrix in="SourceAlpha" type="matrix" values="0 0 0 0 0 0 0 0 0 0 0 0 0 0 0 0 0 0 127 0" result="hardAlpha"/>
<feOffset/>
<feGaussianBlur stdDeviation="4"/>
<feComposite in2="hardAlpha" operator="out"/>
<feColorMatrix type="matrix" values="0 0 0 0 0.909804 0 0 0 0 0.254902 0 0 0 0 0.145098 0 0 0 1 0"/>
<feBlend mode="normal" in2="BackgroundImageFix" result="effect1_dropShadow_399_13356"/>
<feBlend mode="normal" in="SourceGraphic" in2="effect1_dropShadow_399_13356" result="shape"/>
</filter>
<filter id="filter2_d_399_13356" x="1163" y="92" width="21" height="25" filterUnits="userSpaceOnUse" color-interpolation-filters="sRGB">
<feFlood flood-opacity="0" result="BackgroundImageFix"/>
<feColorMatrix in="SourceAlpha" type="matrix" values="0 0 0 0 0 0 0 0 0 0 0 0 0 0 0 0 0 0 127 0" result="hardAlpha"/>
<feOffset/>
<feGaussianBlur stdDeviation="4"/>
<feComposite in2="hardAlpha" operator="out"/>
<feColorMatrix type="matrix" values="0 0 0 0 0.909804 0 0 0 0 0.254902 0 0 0 0 0.145098 0 0 0 1 0"/>
<feBlend mode="normal" in2="BackgroundImageFix" result="effect1_dropShadow_399_13356"/>
<feBlend mode="normal" in="SourceGraphic" in2="effect1_dropShadow_399_13356" result="shape"/>
</filter>
<filter id="filter3_d_399_13356" x="1163" y="0" width="21" height="21" filterUnits="userSpaceOnUse" color-interpolation-filters="sRGB">
<feFlood flood-opacity="0" result="BackgroundImageFix"/>
<feColorMatrix in="SourceAlpha" type="matrix" values="0 0 0 0 0 0 0 0 0 0 0 0 0 0 0 0 0 0 127 0" result="hardAlpha"/>
<feOffset/>
<feGaussianBlur stdDeviation="4"/>
<feComposite in2="hardAlpha" operator="out"/>
<feColorMatrix type="matrix" values="0 0 0 0 0.909804 0 0 0 0 0.254902 0 0 0 0 0.145098 0 0 0 1 0"/>
<feBlend mode="normal" in2="BackgroundImageFix" result="effect1_dropShadow_399_13356"/>
<feBlend mode="normal" in="SourceGraphic" in2="effect1_dropShadow_399_13356" result="shape"/>
</filter>
<filter id="filter4_d_399_13356" x="0" y="188" width="21" height="21" filterUnits="userSpaceOnUse" color-interpolation-filters="sRGB">
<feFlood flood-opacity="0" result="BackgroundImageFix"/>
<feColorMatrix in="SourceAlpha" type="matrix" values="0 0 0 0 0 0 0 0 0 0 0 0 0 0 0 0 0 0 127 0" result="hardAlpha"/>
<feOffset/>
<feGaussianBlur stdDeviation="4"/>
<feComposite in2="hardAlpha" operator="out"/>
<feColorMatrix type="matrix" values="0 0 0 0 0.909804 0 0 0 0 0.254902 0 0 0 0 0.145098 0 0 0 1 0"/>
<feBlend mode="normal" in2="BackgroundImageFix" result="effect1_dropShadow_399_13356"/>
<feBlend mode="normal" in="SourceGraphic" in2="effect1_dropShadow_399_13356" result="shape"/>
</filter>
<filter id="filter5_d_399_13356" x="1163" y="188" width="21" height="21" filterUnits="userSpaceOnUse" color-interpolation-filters="sRGB">
<feFlood flood-opacity="0" result="BackgroundImageFix"/>
<feColorMatrix in="SourceAlpha" type="matrix" values="0 0 0 0 0 0 0 0 0 0 0 0 0 0 0 0 0 0 127 0" result="hardAlpha"/>
<feOffset/>
<feGaussianBlur stdDeviation="4"/>
<feComposite in2="hardAlpha" operator="out"/>
<feColorMatrix type="matrix" values="0 0 0 0 0.909804 0 0 0 0 0.254902 0 0 0 0 0.145098 0 0 0 1 0"/>
<feBlend mode="normal" in2="BackgroundImageFix" result="effect1_dropShadow_399_13356"/>
<feBlend mode="normal" in="SourceGraphic" in2="effect1_dropShadow_399_13356" result="shape"/>
</filter>
<clipPath id="clip0_399_13356">
<rect width="1184" height="209" fill="white"/>
</clipPath>
</defs>
</svg>
