<svg xmlns="http://www.w3.org/2000/svg"  fill="none" viewBox="0 0 601 127"><path fill="black" d="M62.596 1.675C61.689 3.063 49.895 23.67 48.988 25.38L48.4 26.5l4.162-1.227c7.898-2.296 16.383-2.19 23.961.32 1.655.534 3.042.961 3.149.908.32-.374-14.89-25.787-15.53-25.894-.426-.107-1.12.373-1.547 1.068ZM36.073 10.911c-5.603 2.723-9.286 4.805-9.179 5.179.054.374 1.12 1.602 2.295 2.67 5.283 4.858 14.088 3.042 17.077-3.524 1.44-3.15 1.28-8.863-.267-8.863-.32 0-4.803 2.029-9.926 4.538ZM80.687 7.547c-2.829 10.572 9.82 18.473 17.77 11.212 1.175-1.067 2.242-2.242 2.295-2.616.16-.587-17.77-9.717-19.105-9.77-.373 0-.747.534-.96 1.174ZM13.286 25.326c-.267.748 9.552 27.069 10.513 28.19.213.214.64-.64 1.014-1.868 2.295-7.582 8.325-15.537 15.743-20.662 1.76-1.228 2.935-2.19 2.668-2.19-.267 0-6.83-.96-14.622-2.135-7.791-1.175-14.356-2.136-14.569-2.136-.213 0-.534.374-.747.801ZM104.648 25.86c-4.109.64-10.3 1.602-13.768 2.136l-6.297.96 2.561 1.71c6.724 4.537 12.434 11.638 15.529 19.38l1.548 3.897 4.696-11.906a3355.69 3355.69 0 0 1 5.444-13.881c.48-1.121.693-2.403.48-2.83-.374-1.014-.907-.96-10.193.534ZM183.096 34.67c-2.935.854-6.351 1.761-7.578 2.135l-2.295.587v68.286H190.3V79.517h37.356v26.161h16.543V34.669h-16.543v29.899H190.3v-15.75c0-14.682-.053-15.75-.907-15.697-.534 0-3.362.694-6.297 1.548ZM449.924 34.616c-2.935.854-6.35 1.815-7.631 2.136l-2.295.64.16 23.332c.214 22.53.267 23.438 1.388 26.481 2.615 7.047 7.204 11.96 14.248 15.323 8.005 3.844 17.238 5.232 27.911 4.271 17.824-1.655 28.817-9.236 31.859-21.997.64-2.776.801-7.848.801-26.801V34.67h-16.544v21.996c0 22.798-.267 25.574-2.241 28.457-3.095 4.485-7.632 6.193-17.077 6.567-10.513.374-16.597-1.121-20.279-4.912-3.256-3.364-3.256-3.524-3.469-29.845-.16-18.046-.374-23.865-.854-23.812-.373 0-3.042.694-5.977 1.495ZM258.074 70.174v35.504h64.306l2.188-7.368 2.135-7.314-25.776-.16-25.776-.107V77.38h43.76V62.966h-43.76V49.62h47.229l1.494-4.966c.801-2.67 1.815-6.033 2.242-7.474l.747-2.51h-68.789v35.505ZM337.589 70.174v35.504l31.006-.107 31.005-.16 2.082-6.674c1.12-3.684 2.081-6.994 2.081-7.367 0-.481-5.337-.641-24.815-.641h-24.815v-56.06h-16.544v35.505ZM411.768 70.174v35.504h16.543V34.669h-16.543v35.505ZM542.033 35.737c-6.99 1.869-11.9 5.713-14.782 11.532-1.441 2.884-1.547 3.631-1.547 9.023 0 5.66.053 5.98 1.814 9.237 3.149 5.766 9.072 9.984 16.01 11.318 1.601.267 9.499.534 17.61.534 8.112 0 15.583.214 16.544.534 4.216 1.175 6.297 5.179 4.589 8.756-1.814 3.79-1.441 3.737-28.497 4.058l-24.228.267-2.028 6.887c-1.174 3.791-2.081 7.154-2.081 7.368 0 .267 12.274.427 28.177.32 27.857-.16 28.177-.16 31.592-1.388 7.098-2.563 11.581-6.727 13.875-12.76.961-2.616 1.121-3.898.961-8.169-.213-4.218-.48-5.552-1.708-7.901-1.814-3.524-5.123-7.261-8.058-8.917-5.123-3.043-5.657-3.096-24.281-3.417-15.53-.267-17.558-.427-19.372-1.334-4.643-2.296-4.75-8.543-.214-11.159.854-.48 7.312-.694 24.602-.907l23.428-.267 2.027-6.888c1.175-3.79 2.082-7.1 2.082-7.367 0-.214-11.847-.428-26.256-.374-24.282 0-26.63.107-30.259 1.014ZM4.16 51.594C2.933 57.147 1.92 61.952 1.92 62.272c0 .961 3.842.854 6.297-.107 4.163-1.762 6.51-5.392 6.51-10.144 0-3.79-1.44-6.674-4.375-8.81-3.736-2.722-3.682-2.775-6.19 8.383ZM119.057 42.625c-3.789 2.242-5.924 6.406-5.444 10.517.587 5.553 4.483 9.344 10.033 9.717 2.989.214 3.255.16 2.989-.747-.427-1.335-4.643-19.808-4.643-20.181 0-.641-1.334-.32-2.935.694ZM105.342 64.3c.267 8.383-2.295 17.353-6.884 24.24-.854 1.281-1.014 1.762-.48 1.548.426-.16 6.083-1.868 12.54-3.844 17.504-5.339 16.81-5.072 16.81-6.193 0-.801-11.793-12.226-20.225-19.54l-1.921-1.656.16 5.446ZM11.632 69.16C3.733 76.473.852 79.462.958 80.21c.16.854 2.669 1.815 15.21 5.713l15.049 4.645-1.494-2.19c-4.59-6.673-6.511-12.813-6.938-22.156l-.32-7.101-10.833 10.037ZM32.871 94.146c0 2.83 2.188 29.311 2.455 29.738.64 1.068 2.401.107 13.448-7.368 16.01-10.838 14.782-9.503 9.606-10.304-8.432-1.228-16.277-4.912-22.36-10.518-2.989-2.776-3.149-2.883-3.149-1.548ZM93.708 94.2c-2.135 2.295-7.471 6.139-10.887 7.847-4.589 2.35-6.884 3.097-12.434 4.111l-4.963.855 12.434 8.542c7.578 5.179 12.915 8.489 13.715 8.489l1.335.053 1.174-15.216c.64-8.382 1.12-15.43 1.067-15.643-.053-.267-.747.214-1.441.961ZM11.952 94.306c-1.12.427-2.028 1.014-2.028 1.281 0 .267 2.455 3.524 5.497 7.315 2.988 3.737 6.03 7.474 6.724 8.382l1.227 1.602 1.494-1.709c2.028-2.242 2.989-6.567 2.188-9.663-1.707-6.247-9.019-9.77-15.102-7.208ZM109.184 93.986c-5.336 2.135-8.165 8.382-6.297 13.881.694 2.136 2.401 4.752 3.095 4.752.267 0 3.469-3.791 7.151-8.383 5.177-6.513 6.564-8.542 6.03-9.022-1.761-1.656-7.257-2.296-9.979-1.228ZM59.287 116.783c-1.174.587-2.668 1.602-3.309 2.296-1.387 1.495-2.828 4.752-2.828 6.353 0 1.015.32 1.068 10.94 1.068 12.488 0 11.9.267 9.66-4.645-1.815-3.791-4.644-5.659-9.073-5.873-2.348-.16-3.842.054-5.39.801Z"/></svg>