<svg xmlns="http://www.w3.org/2000/svg" fill="none" viewBox="0 0 600 126"><path fill="white" d="M61.64 1.083c-.907 1.388-12.7 21.996-13.608 23.705l-.587 1.12 4.163-1.227c7.898-2.296 16.383-2.189 23.96.32 1.655.534 3.043.961 3.15.908.32-.374-14.89-25.787-15.53-25.894-.427-.107-1.12.374-1.548 1.068ZM35.117 10.32c-5.603 2.722-9.285 4.804-9.178 5.178.053.374 1.12 1.602 2.294 2.67 5.284 4.858 14.089 3.043 17.077-3.524 1.441-3.15 1.281-8.863-.267-8.863-.32 0-4.802 2.029-9.925 4.538ZM79.731 6.956c-2.828 10.57 9.82 18.472 17.771 11.211 1.174-1.067 2.241-2.242 2.295-2.616.16-.587-17.771-9.717-19.105-9.77-.374 0-.747.534-.96 1.175ZM12.33 24.734c-.267.748 9.553 27.069 10.513 28.19.214.214.64-.64 1.014-1.868 2.295-7.582 8.325-15.537 15.743-20.662 1.761-1.228 2.935-2.19 2.669-2.19-.267 0-6.831-.96-14.623-2.135-7.791-1.174-14.355-2.136-14.569-2.136-.213 0-.533.374-.747.801ZM103.692 25.268c-4.109.64-10.3 1.602-13.768 2.136l-6.297.96 2.562 1.71c6.724 4.537 12.434 11.638 15.529 19.38l1.548 3.897 4.696-11.906a3258.598 3258.598 0 0 1 5.443-13.881c.48-1.121.694-2.402.48-2.83-.373-1.014-.907-.96-10.193.534ZM182.14 34.078c-2.935.854-6.35 1.761-7.578 2.135l-2.295.587v68.286H189.344V78.925H226.7v26.161h16.544V34.078H226.7v29.898h-37.356v-15.75c0-14.682-.053-15.75-.907-15.697-.533 0-3.362.694-6.297 1.549ZM448.969 34.024c-2.935.854-6.351 1.815-7.632 2.136l-2.294.64.16 23.332c.213 22.53.267 23.438 1.387 26.481 2.615 7.048 7.205 11.96 14.249 15.323 8.005 3.844 17.237 5.232 27.91 4.271 17.824-1.655 28.818-9.236 31.859-21.996.641-2.777.801-7.849.801-26.802V34.078h-16.543v21.996c0 22.798-.267 25.574-2.242 28.457-3.095 4.485-7.631 6.193-17.077 6.567-10.513.374-16.597-1.121-20.279-4.912-3.255-3.364-3.255-3.524-3.469-29.845-.16-18.046-.373-23.865-.853-23.812-.374 0-3.042.694-5.977 1.495ZM257.119 69.582v35.504H321.425l2.188-7.368 2.134-7.314-25.775-.16-25.776-.107V76.789h43.76V62.374h-43.76V49.027h47.229l1.494-4.965c.8-2.67 1.814-6.034 2.241-7.475l.747-2.51h-68.788v35.505ZM336.634 69.582v35.504l31.005-.107 31.006-.16 2.081-6.674c1.121-3.683 2.081-6.994 2.081-7.367 0-.48-5.336-.641-24.815-.641h-24.815v-56.06h-16.543v35.505ZM410.812 69.582v35.504h16.544V34.078h-16.544v35.504ZM541.078 35.145c-6.991 1.869-11.901 5.713-14.782 11.533-1.441 2.883-1.548 3.63-1.548 9.022 0 5.66.053 5.98 1.814 9.237 3.149 5.766 9.073 9.984 16.01 11.319 1.601.266 9.499.533 17.611.533 8.111 0 15.583.214 16.543.534 4.216 1.175 6.297 5.18 4.59 8.756-1.815 3.79-1.441 3.738-28.498 4.058l-24.228.267-2.028 6.887c-1.174 3.791-2.081 7.154-2.081 7.368 0 .267 12.274.427 28.177.32 27.857-.16 28.177-.16 31.593-1.388 7.097-2.563 11.58-6.727 13.875-12.76.96-2.616 1.121-3.898.96-8.169-.213-4.218-.48-5.552-1.707-7.901-1.815-3.524-5.123-7.261-8.059-8.916-5.123-3.044-5.656-3.097-24.281-3.417-15.529-.267-17.557-.428-19.372-1.335-4.642-2.296-4.749-8.543-.213-11.159.854-.48 7.311-.694 24.601-.907l23.428-.267 2.028-6.887c1.174-3.791 2.081-7.101 2.081-7.368 0-.214-11.847-.427-26.256-.374-24.281 0-26.629.107-30.258 1.014ZM3.205 51.002C1.977 56.555.963 61.36.963 61.68c0 .961 3.843.854 6.298-.107 4.162-1.761 6.51-5.392 6.51-10.144 0-3.79-1.44-6.674-4.376-8.81-3.735-2.722-3.682-2.775-6.19 8.383ZM118.101 42.033c-3.789 2.242-5.923 6.406-5.443 10.517.587 5.553 4.483 9.344 10.033 9.717 2.988.214 3.255.16 2.988-.747-.427-1.335-4.643-19.808-4.643-20.181 0-.641-1.334-.32-2.935.694ZM104.386 63.709c.267 8.382-2.295 17.352-6.884 24.239-.854 1.281-1.014 1.762-.48 1.548.427-.16 6.083-1.868 12.541-3.844 17.504-5.339 16.81-5.072 16.81-6.193 0-.8-11.794-12.226-20.226-19.54l-1.921-1.656.16 5.446ZM10.676 68.567C2.778 75.882-.104 78.872.003 79.62c.16.854 2.668 1.815 15.21 5.713l15.048 4.645-1.494-2.19c-4.59-6.673-6.51-12.813-6.938-22.156l-.32-7.1-10.833 10.036ZM31.916 93.554c0 2.83 2.187 29.311 2.454 29.738.64 1.068 2.402.107 13.449-7.368 16.01-10.838 14.782-9.503 9.605-10.304-8.431-1.228-16.276-4.912-22.36-10.518-2.988-2.776-3.148-2.883-3.148-1.548ZM92.752 93.607c-2.134 2.296-7.47 6.14-10.886 7.849-4.59 2.349-6.884 3.096-12.434 4.111l-4.963.854 12.434 8.542c7.578 5.179 12.914 8.489 13.715 8.489l1.334.054 1.174-15.217c.64-8.382 1.12-15.43 1.067-15.643-.053-.267-.747.214-1.44.961ZM10.996 93.714c-1.12.427-2.028 1.014-2.028 1.281 0 .267 2.455 3.524 5.497 7.315 2.988 3.737 6.03 7.474 6.724 8.382l1.227 1.602 1.495-1.709c2.028-2.242 2.988-6.567 2.188-9.663-1.708-6.247-9.02-9.77-15.103-7.208ZM108.229 93.394c-5.337 2.135-8.165 8.382-6.298 13.881.694 2.136 2.402 4.752 3.096 4.752.266 0 3.468-3.791 7.151-8.382 5.176-6.514 6.564-8.543 6.03-9.023-1.761-1.656-7.258-2.296-9.979-1.228ZM58.332 116.191c-1.175.587-2.669 1.602-3.31 2.296-1.387 1.495-2.828 4.752-2.828 6.353 0 1.015.32 1.068 10.94 1.068 12.488 0 11.901.267 9.66-4.645-1.815-3.791-4.643-5.659-9.072-5.873-2.349-.16-3.843.054-5.39.801Z"/></svg>