<svg xmlns="http://www.w3.org/2000/svg" width="1441" height="1441" style="shape-rendering:geometricPrecision;text-rendering:geometricPrecision;image-rendering:optimizeQuality;fill-rule:evenodd;clip-rule:evenodd">
<script type="application/ecmascript">;</script>
  <path fill="#27282c" d="M715.5 102.5c8.611-1.443 15.111 1.557 19.5 9l142 246c1.187 1.544 1.52 3.211 1 5-89.292-36.886-180.458-42.053-273.5-15.5a3189.588 3189.588 0 0 0-43 14.5 46946.724 46946.724 0 0 0 145.5-252c2.464-2.981 5.297-5.314 8.5-7Z" style="opacity:.988"/>
  <path fill="#27282c" d="M545.5 154.5c2.186 1.323 3.686 3.323 4.5 6 17.015 49.107 6.515 91.274-31.5 126.5-37.034 27.419-76.7 31.753-119 13-21.58-11.746-37.913-28.58-49-50.5a26420.375 26420.375 0 0 0 195-95Z" style="opacity:.986"/>
  <path fill="#27282c" d="M888.5 154.5a26739.794 26739.794 0 0 1 197 95c-23.25 43.302-59.59 63.802-109 61.5-47.87-6.542-79.37-32.709-94.5-78.5-7.153-26.803-4.986-52.803 6.5-78Z" style="opacity:.985"/>
  <path fill="#27282c" d="M228.5 336.5a13613.213 13613.213 0 0 1 296 44c-99.247 57.404-164.747 141.404-196.5 252a49016.484 49016.484 0 0 1-108-273c-3.848-10.28-1.015-17.947 8.5-23ZM1204.5 336.5c12.78.611 18.61 7.278 17.5 20a24837.196 24837.196 0 0 1-109 276c-31.55-110.189-96.72-194.022-195.5-251.5 95.75-14.987 191.42-29.82 287-44.5Z" style="opacity:.988"/>
  <path fill="#27282c" d="M155.5 501.5c45.245 11.745 73.079 40.412 83.5 86 6.791 48.23-9.709 86.063-49.5 113.5-25.628 14.994-52.961 19.494-82 13.5a16366.215 16366.215 0 0 1 48-213ZM1286.5 501.5c1.09.12 1.75.787 2 2a48538.524 48538.524 0 0 1 48 211c-47.27 8.603-85.43-6.064-114.5-44-25.11-40.254-25.78-80.921-2-122 16.27-24.114 38.43-39.78 66.5-47Z" style="opacity:.986"/>
  <path fill="#27282c" d="M1120.5 667.5a21523.913 21523.913 0 0 1 221.5 206c2.52 6.674 1.69 12.841-2.5 18.5a45.68 45.68 0 0 1-14 6 69628.344 69628.344 0 0 0-283.5 87.5c-1.26-.35-1.59-1.017-1-2 61.85-80.995 89.85-172.661 84-275a703.135 703.135 0 0 0-4.5-41ZM318.5 668.5c.997-.03 1.664.47 2 1.5-17.575 117.041 9.425 222.375 81 316-3.725-.011-7.392-.677-11-2A69531.027 69531.027 0 0 0 107 896.5c-5.515-2.182-8.849-6.182-10-12-.458-3.842.209-7.509 2-11l12.5-12.5a18863.323 18863.323 0 0 0 207-192.5Z" style="opacity:.988"/>
  <path fill="#27282c" d="M410.5 999.5c12.08 11.57 24.414 23.74 37 36.5 75.928 67.22 164.928 102.55 267 106a53871.476 53871.476 0 0 1-257 176c-7.535 3.36-14.368 2.19-20.5-3.5a20.504 20.504 0 0 1-3-8 55138.089 55138.089 0 0 0-23.5-307ZM1026.5 1000.5c1.29 1.37 1.95 3.2 2 5.5-7.55 99.83-15.05 199.66-22.5 299.5-3.48 13.4-11.648 17.23-24.5 11.5-85.333-58.33-170.667-116.67-256-175 115.404-4.3 212.904-47.8 292.5-130.5 3.07-3.56 5.91-7.23 8.5-11Z" style="opacity:.989"/>
  <path fill="#27282c" d="M241.5 1010.5c43.563-2.96 78.063 13.04 103.5 48 23.019 38.44 24.019 77.44 3 117-6.67 10.68-14.837 20.18-24.5 28.5-1.867.71-3.367.21-4.5-1.5a32539.06 32539.06 0 0 1-133.5-168c16.58-12.96 35.246-20.96 56-24Z" style="opacity:.986"/>
  <path fill="#27282c" d="M1189.5 1010.5c30.25-2.47 57.25 5.53 81 24-45 57.16-90.5 113.83-136.5 170-26.62-21.9-40.45-50.24-41.5-85 2.26-45.7 23.59-78.87 64-99.5 10.75-4.53 21.75-7.7 33-9.5Z" style="opacity:.985"/>
  <path fill="#27282c" d="M717.5 1228.5c48.349 1.22 82.849 23.55 103.5 67 5.629 13.77 8.462 28.1 8.5 43h-218c1.702-47.6 24.035-81.43 67-101.5 12.697-4.93 25.697-7.76 39-8.5Z" style="opacity:.986"/>
</svg>