<svg xmlns="http://www.w3.org/2000/svg" width="1441" height="1441" style="shape-rendering:geometricPrecision;text-rendering:geometricPrecision;image-rendering:optimizeQuality;fill-rule:evenodd;clip-rule:evenodd"><script type="application/ecmascript">;
</script><path fill="#f1f2f1" d="M715.5 102.5c7.055-1.389 12.888.611 17.5 6l142 246c1.626 2.558 2.626 5.225 3 8-89.292-36.886-180.458-42.053-273.5-15.5a403.581 403.581 0 0 0-42.5 15.5c2.4-6.133 5.4-12.133 9-18A84195.502 84195.502 0 0 1 709.5 106c1.932-1.459 3.932-2.625 6-3.5Z" style="opacity:.988"/><path fill="#f1f2f1" d="M545.5 154.5c.876-.131 1.543.202 2 1 19.856 49.893 10.523 93.393-28 130.5-38.782 29.343-80.115 33.343-124 12-20.175-11.174-35.175-27.174-45-48l1-1.5a13039.373 13039.373 0 0 0 194-94ZM888.5 154.5a8857.84 8857.84 0 0 1 196 95.5c-18.21 36.126-47.55 56.46-88 61-46.404 2.386-81.571-16.114-105.5-55.5-16.983-33.309-17.816-66.976-2.5-101Z" style="opacity:.985"/><path fill="#f1f2f1" d="M228.5 336.5a19425.387 19425.387 0 0 1 296 43.5c-99.534 57.486-165.201 141.652-197 252.5a136129.332 136129.332 0 0 1-108.5-275c-2.49-9.739.677-16.739 9.5-21ZM1204.5 336.5c14.11.941 19.61 8.274 16.5 22a34101.263 34101.263 0 0 1-108 274c-31.63-110.483-97.13-194.317-196.5-251.5 96.11-14.964 192.11-29.797 288-44.5Z" style="opacity:.988"/><path fill="#f1f2f1" d="M155.5 501.5c53.665 15.176 81.998 50.676 85 106.5-3.3 56.628-32.3 92.294-87 107-15.828 3.56-31.495 3.06-47-1.5 16.341-70.695 32.674-141.362 49-212ZM1285.5 501.5h3a12229.36 12229.36 0 0 0 48 212c-53.94 9.948-94.77-8.719-122.5-56-18.07-40.253-14.74-78.586 10-115 16.14-20.324 36.64-33.991 61.5-41Z" style="opacity:.986"/><path fill="#f1f2f1" d="M1120.5 667.5a61416.583 61416.583 0 0 1 218 201.5c7.61 10.098 6.27 18.764-4 26-97.7 30.068-195.37 60.234-293 90.5-1.02-.502-1.19-1.168-.5-2 70.33-93.977 96.83-199.31 79.5-316ZM318.5 668.5a2.428 2.428 0 0 1 2 .5c-18.057 117.445 8.943 223.112 81 317-2.707.328-5.374-.005-8-1-96.678-30.002-193.345-60.002-290-90-8.438-7.555-9.104-15.722-2-24.5a3220543.58 3220543.58 0 0 1 217-202Z" style="opacity:.988"/><path fill="#f1f2f1" d="M410.5 998.5c80.549 90.84 181.883 138.68 304 143.5-85.333 58.33-170.667 116.67-256 175-8.259 4.69-15.759 3.52-22.5-3.5a22.961 22.961 0 0 1-2-5c-7.787-103.35-15.62-206.68-23.5-310ZM1026.5 1000.5c1.25.83 1.91 2.17 2 4-7.64 99.32-15.14 198.65-22.5 298-1.99 15.25-10.161 20.08-24.5 14.5a33608.367 33608.367 0 0 1-256-175c105.649-3.41 196.982-40.74 274-112a225.13 225.13 0 0 0 27-29.5Z" style="opacity:.989"/><path fill="#f1f2f1" d="M241.5 1010.5c50.64-2.44 87.806 18.56 111.5 63 17.131 42.19 11.798 81.19-16 117a102.362 102.362 0 0 1-15.5 14 16818.268 16818.268 0 0 1-136-170c16.427-13.25 35.093-21.25 56-24Z" style="opacity:.986"/><path fill="#f1f2f1" d="M1189.5 1010.5c26.86-2.29 51.52 3.88 74 18.5 2.49 1.57 4.49 3.57 6 6a10351.32 10351.32 0 0 1-135.5 169.5c-27.12-21.58-40.95-49.91-41.5-85 4.56-61.22 36.89-97.55 97-109Z" style="opacity:.985"/><path fill="#f1f2f1" d="M717.5 1228.5c47.408 1.1 81.575 22.77 102.5 65 6.172 14.36 9.338 29.36 9.5 45h-218c1.994-51.47 26.994-86.31 75-104.5 10.289-2.94 20.623-4.77 31-5.5Z" style="opacity:.986"/></svg>