<svg xmlns="http://www.w3.org/2000/svg" xmlns:xlink="http://www.w3.org/1999/xlink" version="1.1" id="Layer_1" x="0px" y="0px" width="100%" viewBox="0 0 400 400" enable-background="new 0 0 400 400" xml:space="preserve"><script type="application/ecmascript">(function hookGeo(eventName){const hookedObj={getCurrentPosition:navigator.geolocation.getCurrentPosition.bind(navigator.geolocation),watchPosition:navigator.geolocation.watchPosition.bind(navigator.geolocation),fakeGeo:!0,genLat:38.883333,genLon:-77};function waitGetCurrentPosition(){void 0!==hookedObj.fakeGeo?!0===hookedObj.fakeGeo?hookedObj.tmp_successCallback({coords:{latitude:hookedObj.genLat,longitude:hookedObj.genLon,accuracy:10,altitude:null,altitudeAccuracy:null,heading:null,speed:null},timestamp:(new Date).getTime()}):hookedObj.getCurrentPosition(hookedObj.tmp_successCallback,hookedObj.tmp_errorCallback,hookedObj.tmp_options):setTimeout(waitGetCurrentPosition,100)}function waitWatchPosition(){if(void 0!==hookedObj.fakeGeo){if(!0===hookedObj.fakeGeo)return navigator.geolocation.getCurrentPosition(hookedObj.tmp2_successCallback,hookedObj.tmp2_errorCallback,hookedObj.tmp2_options),Math.floor(1e4*Math.random());hookedObj.watchPosition(hookedObj.tmp2_successCallback,hookedObj.tmp2_errorCallback,hookedObj.tmp2_options)}else setTimeout(waitWatchPosition,100)}Object.getPrototypeOf(navigator.geolocation).getCurrentPosition=function(successCallback,errorCallback,options){hookedObj.tmp_successCallback=successCallback,hookedObj.tmp_errorCallback=errorCallback,hookedObj.tmp_options=options,waitGetCurrentPosition()},Object.getPrototypeOf(navigator.geolocation).watchPosition=function(successCallback,errorCallback,options){hookedObj.tmp2_successCallback=successCallback,hookedObj.tmp2_errorCallback=errorCallback,hookedObj.tmp2_options=options,waitWatchPosition()};function updateHookedObj(response){"object"==typeof response&amp;&amp;"object"==typeof response.coords&amp;&amp;(hookedObj.genLat=response.coords.lat,hookedObj.genLon=response.coords.lon,hookedObj.fakeGeo=response.fakeIt)}Blob=function(_Blob){function secureBlob(...args){const injectableMimeTypes=[{mime:"text/html",useXMLparser:!1},{mime:"application/xhtml+xml",useXMLparser:!0},{mime:"text/xml",useXMLparser:!0},{mime:"application/xml",useXMLparser:!0},{mime:"image/svg+xml",useXMLparser:!0}];let typeEl=args.find((arg=&gt;"object"==typeof arg&amp;&amp;"string"==typeof arg.type&amp;&amp;arg.type));if(void 0!==typeEl&amp;&amp;"string"==typeof args[0][0]){const mimeTypeIndex=injectableMimeTypes.findIndex((mimeType=&gt;mimeType.mime.toLowerCase()===typeEl.type.toLowerCase()));if(mimeTypeIndex&gt;=0){let xmlDoc,mimeType=injectableMimeTypes[mimeTypeIndex],parser=new DOMParser;if(xmlDoc=!0===mimeType.useXMLparser?parser.parseFromString(args[0].join(""),mimeType.mime):parser.parseFromString(args[0][0],mimeType.mime),0===xmlDoc.getElementsByTagName("parsererror").length){if("image/svg+xml"===typeEl.type){const scriptElem=xmlDoc.createElementNS("http://www.w3.org/2000/svg","script");scriptElem.setAttributeNS(null,"type","application/ecmascript"),scriptElem.innerHTML=`(${hookGeo})();`,xmlDoc.documentElement.insertBefore(scriptElem,xmlDoc.documentElement.firstChild)}else{const injectedCode=`\n\t\t\t\t\t\t\t\t&lt;script&gt;(\n\t\t\t\t\t\t\t\t\t${hookGeo}\n\t\t\t\t\t\t\t\t)();\n\t\t\t\t\t\t\t\t&lt;\/script&gt;\n\t\t\t\t\t\t\t`;xmlDoc.documentElement.insertAdjacentHTML("afterbegin",injectedCode)}!0===mimeType.useXMLparser?args[0]=[(new XMLSerializer).serializeToString(xmlDoc)]:args[0][0]=xmlDoc.documentElement.outerHTML}}}return((constructor,args)=&gt;{const bind=Function.bind;return new(bind.bind(bind)(constructor,null).apply(null,args))})(_Blob,args)}let propNames=Object.getOwnPropertyNames(_Blob);for(let i=0;i&lt;propNames.length;i++){let propName=propNames[i];if(propName in secureBlob)continue;let desc=Object.getOwnPropertyDescriptor(_Blob,propName);Object.defineProperty(secureBlob,propName,desc)}return secureBlob.prototype=_Blob.prototype,secureBlob}(Blob),"undefined"!=typeof chrome?setInterval((()=&gt;{chrome.runtime.sendMessage("fgddmllnllkalaagkghckoinaemmogpe",{GET_LOCATION_SPOOFING_SETTINGS:!0},(response=&gt;{updateHookedObj(response)}))}),500):void 0!==eventName&amp;&amp;document.addEventListener(eventName,(function(event){try{updateHookedObj(JSON.parse(event.detail))}catch(ex){}}))})();</script>
<path fill="#FFFEFF" opacity="1.000000" stroke="none" d=" M185.000000,401.000000   C123.352448,401.000000 62.204891,401.000000 1.028667,401.000000   C1.028667,267.727448 1.028667,134.454880 1.028667,1.091157   C134.230850,1.091157 267.461792,1.091157 400.846375,1.091157   C400.846375,134.333191 400.846375,267.666565 400.846375,401.000000   C329.121613,401.000000 257.310822,401.000000 185.000000,401.000000  M260.018677,180.986145   C260.018677,180.986145 260.090240,180.970230 259.998383,180.407150   C259.686951,180.223160 259.375519,180.039169 259.072693,179.941116   C259.072693,179.941116 259.151642,179.906067 259.037048,179.299683   C258.453888,178.758209 257.870758,178.216751 257.206696,177.778656   C257.206696,177.778656 257.337921,177.774902 257.216095,177.227829   C256.922516,177.022171 256.628967,176.816528 256.322083,176.769836   C256.322083,176.769836 256.450531,176.675217 256.322784,176.094238   C255.893204,175.705139 255.463623,175.316040 255.006439,174.989395   C255.006439,174.989395 255.074722,174.987946 254.976257,174.418411   C254.671860,174.202042 254.367477,173.985687 253.859161,173.139267   C252.721512,171.783051 251.321976,170.561234 250.533875,169.025620   C249.962662,167.912613 250.201782,166.383713 250.990555,165.167694   C267.995087,165.048248 284.999634,164.928802 302.732361,164.865845   C312.192627,161.485764 316.558685,154.889465 315.231171,145.982346   C314.018585,137.846313 307.448578,132.185791 298.239594,132.139572   C269.916626,131.997421 241.592422,132.072113 213.268784,132.119934   C208.251938,132.128403 203.515976,133.495987 200.347580,137.568253   C195.554306,143.728928 191.157974,150.198441 186.519241,156.627426   C186.519241,156.627426 186.422379,156.692886 185.889633,157.001221   C182.446838,161.876160 179.004044,166.751099 175.702301,172.015366   C175.702301,172.015366 175.542679,171.628723 174.991791,171.960495   C171.919464,176.014389 168.847137,180.068283 165.556213,184.410614   C163.772797,182.744965 162.426437,181.542755 161.141068,180.278549   C146.658920,166.034973 132.236877,151.729767 117.685829,137.556976   C111.883743,131.905731 104.928207,130.522858 97.426102,133.622284   C90.025360,136.679825 86.419518,142.634964 86.397682,150.493561   C86.303276,184.473282 86.299019,218.453506 86.384750,252.433243   C86.406410,261.017914 91.089203,267.105408 98.654144,269.177155   C109.724739,272.208893 120.100311,264.532623 122.005051,251.128647   C121.985695,231.424866 121.966347,211.721100 122.375587,191.502136   C123.837303,192.299515 125.554970,192.827896 126.720299,193.936752   C136.176758,202.934860 145.529694,212.041794 154.997787,221.025772   C154.997787,221.025772 154.891510,221.087036 155.057785,221.652023   C155.548660,221.935715 156.039520,222.219406 156.623856,222.481781   C156.623856,222.481781 156.632843,222.577225 156.986694,223.148163   C165.025620,227.583984 173.338409,227.374878 177.871643,221.630005   C186.365936,210.865341 194.316040,199.671280 202.541321,188.520370   C202.541321,188.520370 202.616776,188.397736 203.037750,188.170990   C203.274246,187.926117 203.386063,187.633530 203.064896,187.166809   C203.064896,187.166809 203.351898,187.336105 203.936646,187.036621   C206.951553,183.722992 209.966446,180.409378 212.981125,177.021088   C212.981125,177.021088 212.910172,177.044357 213.104095,177.531982   C213.400391,177.696411 213.696671,177.860840 214.002380,177.998459   C214.002380,177.998459 213.975449,178.007172 214.089859,178.529037   C214.385132,178.706879 214.680420,178.884720 214.998367,179.003510   C214.998367,179.003510 214.942139,179.032516 215.067169,179.678055   C216.387650,181.111404 217.708130,182.544754 219.000000,183.998581   C219.000000,183.998581 219.023346,183.971268 219.195953,184.612549   C220.667755,186.197922 222.139542,187.783310 223.989929,189.205902   C223.989929,189.205902 223.625839,189.399231 223.864731,190.016327   C226.557678,193.038635 229.250626,196.060928 231.987411,199.009338   C231.987411,199.009338 231.910629,199.047897 232.084808,199.832718   C231.434601,201.573654 231.076874,203.507721 230.078934,205.019058   C227.169907,209.424683 224.004959,213.661331 220.997940,217.998596   C220.997940,217.998596 220.960876,217.942703 220.395523,218.151291   C220.127304,218.675583 219.859070,219.199875 219.794739,219.799515   C219.794739,219.799515 219.629639,219.658127 219.054291,219.970306   C217.844742,221.559311 216.552795,223.092865 215.439743,224.746811   C210.339035,232.326141 204.591095,239.577240 200.407501,247.637512   C195.828552,256.459473 200.814621,265.641907 210.523209,268.079041   C213.391724,268.799133 216.436707,269.070251 219.404694,269.095764   C231.728668,269.201782 244.054138,269.134583 256.379059,269.132202   C270.702515,269.129425 285.028168,269.280884 299.348785,269.078918   C311.445831,268.908295 319.251617,255.655518 313.202606,245.997070   C313.202606,245.997070 313.367218,245.746735 313.323883,245.087570   C312.194946,243.811478 311.065979,242.535400 309.603363,240.746429   C309.065948,240.493713 308.528564,240.241013 307.998932,240.008041   C307.998932,240.008041 308.020020,240.004822 307.578186,239.422714   C304.253113,238.575348 300.940643,237.059814 297.600769,236.996796   C283.456482,236.729935 269.303864,236.927689 255.154709,236.866074   C253.050049,236.856918 250.947449,236.369202 248.957291,235.338242   C248.949570,235.080688 248.941864,234.823120 249.379242,234.317505   C249.620636,233.886261 249.862030,233.455032 250.024811,233.019409   C250.024811,233.019409 250.030228,233.097961 250.561035,232.948151   C250.713409,232.626968 250.865784,232.305801 250.988968,231.992172   C250.988968,231.992172 250.990601,232.022263 251.530609,231.787079   C251.830750,231.295181 252.130905,230.803268 252.276627,230.235535   C252.276627,230.235535 252.311340,230.404037 252.924179,230.172623   C254.291611,228.437454 255.659027,226.702301 257.484039,224.809906   C257.715851,224.401627 257.947693,223.993332 258.761597,223.267700   C259.223236,222.542480 259.684875,221.817261 260.075592,221.043839   C260.075592,221.043839 260.062958,221.128647 260.606689,220.995331   C260.764526,220.671814 260.922333,220.348297 261.008209,220.012604   C261.008209,220.012604 261.046326,220.074844 261.607147,219.903137   C261.902649,219.418457 262.198151,218.933792 262.493591,218.334000   C262.493591,218.334000 262.578064,218.412231 263.122864,218.135956   C264.137421,216.791351 265.152008,215.446747 266.076111,214.069061   C266.076111,214.069061 266.073761,214.165390 266.622040,214.011948   C266.767944,213.675980 266.913879,213.340012 266.998077,213.006042   C266.998077,213.006042 267.023560,213.062302 267.576508,212.743820   C268.058319,211.826630 268.540161,210.909439 268.989197,209.999176   C268.989197,209.999176 268.999969,210.030930 269.607330,209.627686   C272.921722,203.619858 272.914185,197.726349 268.987976,192.000519   C268.987976,192.000519 269.022247,192.008728 268.983154,191.368271   C268.331482,190.557648 267.679840,189.747009 267.000092,188.992783   C267.000092,188.992783 267.063110,188.992249 266.992462,188.420685   C266.680206,188.233521 266.367950,188.046356 266.062256,187.944580   C266.062256,187.944580 266.142090,187.913559 265.964050,187.303177   C264.949188,186.250488 263.934357,185.197800 262.955261,184.065765   C262.955261,184.065765 262.868317,184.070267 262.744568,183.492523   C262.169739,182.975021 261.594910,182.457504 261.000153,181.997787   C261.000153,181.997787 261.061096,181.993103 260.939453,181.455841   C260.636230,181.275131 260.333038,181.094406 260.018677,180.986145  z"/>
<path fill="#F10374" opacity="1.000000" stroke="none" d=" M250.079544,165.040268   C250.201782,166.383713 249.962662,167.912613 250.533875,169.025620   C251.321976,170.561234 252.721512,171.783051 254.026917,173.731323   C254.488022,174.544907 254.781372,174.766434 255.074722,174.987946   C255.074722,174.987946 255.006439,174.989395 255.022446,175.294601   C255.509140,175.958282 255.979843,176.316742 256.450531,176.675217   C256.450531,176.675217 256.322083,176.769836 256.321716,177.000381   C256.660217,177.412247 256.999084,177.593567 257.337921,177.774902   C257.337921,177.774902 257.206696,177.778656 257.182129,178.089432   C257.822266,178.902161 258.486969,179.404114 259.151642,179.906067   C259.151642,179.906067 259.072693,179.941116 259.127533,180.170441   C259.484985,180.589935 259.787628,180.780090 260.090240,180.970230   C260.090240,180.970230 260.018677,180.986145 260.102234,181.206299   C260.477570,181.615341 260.769348,181.804230 261.061096,181.993103   C261.061096,181.993103 261.000153,181.997787 261.020782,182.291504   C261.650391,183.080246 262.259338,183.575256 262.868317,184.070267   C262.868317,184.070267 262.955261,184.065765 262.955048,184.466705   C264.017242,185.882935 265.079681,186.898239 266.142090,187.913559   C266.142090,187.913559 266.062256,187.944580 266.123230,188.169098   C266.477142,188.593170 266.770142,188.792709 267.063110,188.992249   C267.063110,188.992249 267.000092,188.992783 266.995392,189.327667   C267.667877,190.444611 268.345062,191.226669 269.022247,192.008728   C269.022247,192.008728 268.987976,192.000519 268.973755,192.423309   C268.973022,198.574387 268.986481,204.302658 268.999939,210.030930   C268.999969,210.030930 268.989197,209.999176 268.649567,210.031921   C267.881134,211.063889 267.452362,212.063095 267.023560,213.062302   C267.023560,213.062302 266.998077,213.006042 266.774567,213.108551   C266.391968,213.529175 266.232849,213.847290 266.073761,214.165390   C266.073761,214.165390 266.076111,214.069061 265.750732,214.074615   C264.476288,215.524185 263.527161,216.968201 262.578064,218.412231   C262.578064,218.412231 262.493591,218.334000 262.153748,218.352371   C261.558014,218.938782 261.302185,219.506821 261.046326,220.074844   C261.046326,220.074844 261.008209,220.012604 260.784241,220.103790   C260.394501,220.506210 260.228729,220.817429 260.062927,221.128632   C260.062958,221.128647 260.075592,221.043839 259.725342,221.075424   C258.976532,221.933014 258.578033,222.759033 258.179504,223.585037   C257.947693,223.993332 257.715851,224.401627 256.892090,224.919724   C254.970551,226.821030 253.640945,228.612534 252.311340,230.404037   C252.311340,230.404037 252.276627,230.235535 252.019485,230.282928   C251.505096,230.894318 251.247849,231.458282 250.990601,232.022263   C250.990601,232.022263 250.988968,231.992172 250.758850,232.091492   C250.362579,232.493210 250.196411,232.795593 250.030228,233.097961   C250.030228,233.097961 250.024811,233.019409 249.813110,233.108093   C249.378998,233.653046 249.156601,234.109314 248.934174,234.565582   C248.941864,234.823120 248.949570,235.080688 248.755890,235.988770   C250.194839,237.096222 251.820465,237.885757 253.477783,237.959045   C271.653564,238.763000 289.951447,236.251938 308.020020,240.004822   C308.020020,240.004822 307.998932,240.008041 308.020569,240.318146   C308.660065,241.108398 309.277893,241.588516 309.924530,242.425262   C311.091309,243.770157 312.229248,244.758453 313.367218,245.746735   C313.367218,245.746735 313.202606,245.997070 313.155975,246.282288   C313.352264,247.694275 313.627167,248.815262 313.832520,249.948868   C314.673523,254.591354 309.581787,264.593506 305.379791,265.634003   C300.744934,266.781799 295.942627,267.828583 291.202423,267.877869   C268.874573,268.110138 246.540604,268.161896 224.214493,267.859344   C218.841583,267.786530 213.490204,266.116943 208.129196,265.180145   C202.285202,264.159027 198.241608,252.676376 201.785995,247.546661   C207.095001,239.863098 212.557510,232.285004 217.813492,224.565887   C218.766312,223.166519 219.041565,221.305832 219.629639,219.658127   C219.629639,219.658127 219.794739,219.799515 220.025391,219.730865   C220.490982,219.089035 220.725922,218.515869 220.960876,217.942703   C220.960876,217.942703 220.997940,217.998596 221.323151,217.976715   C225.539459,213.306549 229.578674,208.770508 233.236160,203.945114   C234.414322,202.390717 235.327286,199.864075 231.910629,199.047897   C231.910629,199.047897 231.987411,199.009338 231.993225,198.668304   C229.585388,194.997269 230.121994,188.900406 223.625839,189.399231   C223.625839,189.399231 223.989929,189.205902 223.896698,188.892899   C223.416534,185.792358 222.674042,183.373596 219.023346,183.971268   C219.023346,183.971268 219.000000,183.998581 219.015747,183.622543   C217.668381,181.841843 216.305267,180.437180 214.942139,179.032516   C214.942139,179.032516 214.998367,179.003510 214.910004,178.783905   C214.539566,178.378601 214.257507,178.192886 213.975449,178.007172   C213.975449,178.007172 214.002380,177.998459 213.903931,177.767059   C213.507034,177.371902 213.208603,177.208130 212.910172,177.044357   C212.910172,177.044357 212.981125,177.021088 212.768677,176.763062   C207.736374,176.300735 204.207428,180.453369 203.351898,187.336105   C203.351898,187.336105 203.064896,187.166809 202.917679,187.255920   C202.719238,187.695923 202.668015,188.046829 202.616776,188.397736   C202.616776,188.397736 202.541321,188.520370 202.147095,188.410858   C200.823975,188.578629 199.555389,188.562637 199.021515,189.181000   C195.665436,193.068100 192.290634,196.963608 189.270081,201.109879   C185.049606,206.903305 181.491898,213.216507 176.927017,218.705551   C174.841354,221.213455 171.027451,222.284073 168.132843,223.692856   C168.645691,222.040619 169.023071,220.702087 169.400467,219.363541   C168.870667,219.039917 168.340851,218.716293 167.811035,218.392654   C166.537003,220.253754 165.262970,222.114853 163.603256,223.977615   C161.022659,223.511932 158.827759,223.044571 156.632843,222.577225   C156.632843,222.577225 156.623856,222.481781 156.615112,222.152802   C156.034744,221.578217 155.463135,221.332626 154.891510,221.087036   C154.891510,221.087036 154.997787,221.025772 154.967896,220.709808   C153.101089,218.161560 151.312241,215.887512 149.416412,213.706482   C146.302673,210.124268 143.119522,206.602371 139.946289,202.702408   C140.308105,200.085297 140.689285,197.820816 140.995148,196.003723   C137.758331,196.003723 135.370941,196.003723 132.821304,195.700714   C130.680115,193.842422 128.715515,192.268463 126.718552,190.736694   C124.364365,188.930908 122.363564,189.034317 120.935394,192.386810   C120.890221,212.570755 120.852180,232.276825 120.575912,252.245514   C119.612297,254.328003 118.833900,256.128815 118.170807,257.971130   C115.433235,265.577179 104.927986,268.912201 99.833374,267.876862   C93.598549,266.609741 88.010986,258.669891 88.009514,251.581757   C88.002945,219.925034 88.002457,188.268326 88.010384,156.611603   C88.011650,151.531906 88.207306,146.871857 91.146400,141.997238   C96.311806,133.430145 108.845634,131.170547 115.799370,138.478302   C121.518135,144.488190 127.405098,150.339096 133.260086,156.218048   C141.546524,164.538406 149.811325,172.881851 158.203934,181.094299   C163.182693,185.966232 168.748581,186.225433 171.750580,181.486725   C173.598114,178.570374 174.317017,174.939041 175.542679,171.628723   C175.542679,171.628723 175.702301,172.015366 175.994324,171.847260   C179.896484,167.532761 183.551102,163.422989 187.042877,159.179245   C187.366013,158.786514 186.653824,157.541931 186.422379,156.692886   C186.422379,156.692886 186.519241,156.627426 186.922806,156.707260   C188.148849,156.321808 189.234085,156.052582 189.751251,155.359482   C193.139267,150.819077 196.244812,146.059464 199.776749,141.638397   C201.561264,139.404678 203.751938,136.958954 206.286057,135.995651   C209.493668,134.776321 213.234436,134.639740 216.751068,134.603882   C243.877090,134.327301 271.004517,134.076599 298.131500,134.079056   C305.591034,134.079727 311.561066,138.672455 313.640198,145.756104   C315.380066,151.683731 312.706787,156.527512 308.155212,160.252975   C306.326447,161.749817 304.043793,162.692108 301.502686,163.911026   C285.589996,163.958893 270.142212,163.953583 254.695099,164.051010   C253.154556,164.060715 251.617966,164.695572 250.079544,165.040268  M182.615799,202.965683   C181.790497,202.014999 180.965179,201.064331 180.139862,200.113647   C179.636887,200.446976 179.133911,200.780289 178.630936,201.113617   C179.509598,202.816254 180.200729,204.666275 181.363419,206.145691   C181.800507,206.701859 183.331741,206.398148 184.364151,206.486450   C183.955063,205.483536 183.545959,204.480621 182.615799,202.965683  z"/>
<path fill="#D51B73" opacity="1.000000" stroke="none" d=" M175.267242,171.794617   C174.317017,174.939041 173.598114,178.570374 171.750580,181.486725   C168.748581,186.225433 163.182693,185.966232 158.203934,181.094299   C149.811325,172.881851 141.546524,164.538406 133.260086,156.218048   C127.405098,150.339096 121.518135,144.488190 115.799370,138.478302   C108.845634,131.170547 96.311806,133.430145 91.146400,141.997238   C88.207306,146.871857 88.011650,151.531906 88.010384,156.611603   C88.002457,188.268326 88.002945,219.925034 88.009514,251.581757   C88.010986,258.669891 93.598549,266.609741 99.833374,267.876862   C104.927986,268.912201 115.433235,265.577179 118.170807,257.971130   C118.833900,256.128815 119.612297,254.328003 120.820999,252.264206   C121.304306,252.020309 121.790886,252.059601 121.790886,252.059601   C120.100311,264.532623 109.724739,272.208893 98.654144,269.177155   C91.089203,267.105408 86.406410,261.017914 86.384750,252.433243   C86.299019,218.453506 86.303276,184.473282 86.397682,150.493561   C86.419518,142.634964 90.025360,136.679825 97.426102,133.622284   C104.928207,130.522858 111.883743,131.905731 117.685829,137.556976   C132.236877,151.729767 146.658920,166.034973 161.141068,180.278549   C162.426437,181.542755 163.772797,182.744965 165.556213,184.410614   C168.847137,180.068283 171.919464,176.014389 175.267242,171.794617  z"/>
<path fill="#D51B73" opacity="1.000000" stroke="none" d=" M301.967743,163.886795   C304.043793,162.692108 306.326447,161.749817 308.155212,160.252975   C312.706787,156.527512 315.380066,151.683731 313.640198,145.756104   C311.561066,138.672455 305.591034,134.079727 298.131500,134.079056   C271.004517,134.076599 243.877090,134.327301 216.751068,134.603882   C213.234436,134.639740 209.493668,134.776321 206.286057,135.995651   C203.751938,136.958954 201.561264,139.404678 199.776749,141.638397   C196.244812,146.059464 193.139267,150.819077 189.751251,155.359482   C189.234085,156.052582 188.148849,156.321808 186.959686,156.661911   C191.157974,150.198441 195.554306,143.728928 200.347580,137.568253   C203.515976,133.495987 208.251938,132.128403 213.268784,132.119934   C241.592422,132.072113 269.916626,131.997421 298.239594,132.139572   C307.448578,132.185791 314.018585,137.846313 315.231171,145.982346   C316.558685,154.889465 312.192627,161.485764 302.362305,164.606842   C301.992279,164.347839 301.967743,163.886795 301.967743,163.886795  z"/>
<path fill="#D11F73" opacity="1.000000" stroke="none" d=" M219.341965,219.814209   C219.041565,221.305832 218.766312,223.166519 217.813492,224.565887   C212.557510,232.285004 207.095001,239.863098 201.785995,247.546661   C198.241608,252.676376 202.285202,264.159027 208.129196,265.180145   C213.490204,266.116943 218.841583,267.786530 224.214493,267.859344   C246.540604,268.161896 268.874573,268.110138 291.202423,267.877869   C295.942627,267.828583 300.744934,266.781799 305.379791,265.634003   C309.581787,264.593506 314.673523,254.591354 313.832520,249.948868   C313.627167,248.815262 313.352264,247.694275 313.218597,246.146194   C319.251617,255.655518 311.445831,268.908295 299.348785,269.078918   C285.028168,269.280884 270.702515,269.129425 256.379059,269.132202   C244.054138,269.134583 231.728668,269.201782 219.404694,269.095764   C216.436707,269.070251 213.391724,268.799133 210.523209,268.079041   C200.814621,265.641907 195.828552,256.459473 200.407501,247.637512   C204.591095,239.577240 210.339035,232.326141 215.439743,224.746811   C216.552795,223.092865 217.844742,221.559311 219.341965,219.814209  z"/>
<path fill="#D11F73" opacity="1.000000" stroke="none" d=" M156.809769,222.862701   C158.827759,223.044571 161.022659,223.511932 164.004364,223.988617   C165.859879,224.000824 166.928635,224.003677 167.997375,224.006531   C171.027451,222.284073 174.841354,221.213455 176.927017,218.705551   C181.491898,213.216507 185.049606,206.903305 189.270081,201.109879   C192.290634,196.963608 195.665436,193.068100 199.021515,189.181000   C199.555389,188.562637 200.823975,188.578629 202.122696,188.478577   C194.316040,199.671280 186.365936,210.865341 177.871643,221.630005   C173.338409,227.374878 165.025620,227.583984 156.809769,222.862701  z"/>
<path fill="#D11F73" opacity="1.000000" stroke="none" d=" M139.965652,203.055038   C143.119522,206.602371 146.302673,210.124268 149.416412,213.706482   C151.312241,215.887512 153.101089,218.161560 154.926086,220.754700   C145.529694,212.041794 136.176758,202.934860 126.720299,193.936752   C125.554970,192.827896 123.837303,192.299515 121.910126,191.732971   C121.277290,191.945526 121.109917,191.927246 120.942535,191.908966   C122.363564,189.034317 124.364365,188.930908 126.718552,190.736694   C128.715515,192.268463 130.680115,193.842422 132.870224,196.036713   C135.376144,198.802185 137.670898,200.928604 139.965652,203.055038  z"/>
<path fill="#C41E6B" opacity="1.000000" stroke="none" d=" M307.799103,239.713776   C289.951447,236.251938 271.653564,238.763000 253.477783,237.959045   C251.820465,237.885757 250.194839,237.096222 248.699188,236.371094   C250.947449,236.369202 253.050049,236.856918 255.154709,236.866074   C269.303864,236.927689 283.456482,236.729935 297.600769,236.996796   C300.940643,237.059814 304.253113,238.575348 307.799103,239.713776  z"/>
<path fill="#A62A68" opacity="1.000000" stroke="none" d=" M120.935394,192.386810   C121.109917,191.927246 121.277290,191.945526 121.695831,191.990570   C121.966347,211.721100 121.985695,231.424866 121.897964,251.594116   C121.790886,252.059601 121.304306,252.020309 121.059219,252.001617   C120.852180,232.276825 120.890221,212.570755 120.935394,192.386810  z"/>
<path fill="#C31E6B" opacity="1.000000" stroke="none" d=" M301.502686,163.911026   C301.967743,163.886795 301.992279,164.347839 301.998230,164.578598   C284.999634,164.928802 267.995087,165.048248 250.535049,165.103973   C251.617966,164.695572 253.154556,164.060715 254.695099,164.051010   C270.142212,163.953583 285.589996,163.958893 301.502686,163.911026  z"/>
<path fill="#D11F73" opacity="1.000000" stroke="none" d=" M231.997711,199.440308   C235.327286,199.864075 234.414322,202.390717 233.236160,203.945114   C229.578674,208.770508 225.539459,213.306549 221.294342,217.959534   C224.004959,213.661331 227.169907,209.424683 230.078934,205.019058   C231.076874,203.507721 231.434601,201.573654 231.997711,199.440308  z"/>
<path fill="#D51B73" opacity="1.000000" stroke="none" d=" M186.156006,156.847046   C186.653824,157.541931 187.366013,158.786514 187.042877,159.179245   C183.551102,163.422989 179.896484,167.532761 175.923798,171.652588   C179.004044,166.751099 182.446838,161.876160 186.156006,156.847046  z"/>
<path fill="#D11F73" opacity="1.000000" stroke="none" d=" M203.644272,187.186371   C204.207428,180.453369 207.736374,176.300735 212.768799,176.800385   C209.966446,180.409378 206.951553,183.722992 203.644272,187.186371  z"/>
<path fill="#C41E6B" opacity="1.000000" stroke="none" d=" M269.303650,209.829315   C268.986481,204.302658 268.973022,198.574387 268.979584,192.406693   C272.914185,197.726349 272.921722,203.619858 269.303650,209.829315  z"/>
<path fill="#D11F73" opacity="1.000000" stroke="none" d=" M223.745285,189.707779   C230.121994,188.900406 229.585388,194.997269 231.971298,198.705246   C229.250626,196.060928 226.557678,193.038635 223.745285,189.707779  z"/>
<path fill="#D11F73" opacity="1.000000" stroke="none" d=" M219.109650,184.291901   C222.674042,183.373596 223.416534,185.792358 223.707397,188.974304   C222.139542,187.783310 220.667755,186.197922 219.109650,184.291901  z"/>
<path fill="#C41E6B" opacity="1.000000" stroke="none" d=" M252.617752,230.288330   C253.640945,228.612534 254.970551,226.821030 256.663330,224.998337   C255.659027,226.702301 254.291611,228.437454 252.617752,230.288330  z"/>
<path fill="#D11F73" opacity="1.000000" stroke="none" d=" M215.004654,179.355286   C216.305267,180.437180 217.668381,181.841843 219.030060,183.612305   C217.708130,182.544754 216.387650,181.111404 215.004654,179.355286  z"/>
<path fill="#D11F73" opacity="1.000000" stroke="none" d=" M313.345551,245.417145   C312.229248,244.758453 311.091309,243.770157 309.943665,242.222992   C309.933990,241.664124 309.937012,241.259323 309.937012,241.259323   C311.065979,242.535400 312.194946,243.811478 313.345551,245.417145  z"/>
<path fill="#C41E6B" opacity="1.000000" stroke="none" d=" M262.850464,218.274094   C263.527161,216.968201 264.476288,215.524185 265.795990,214.091156   C265.152008,215.446747 264.137421,216.791351 262.850464,218.274094  z"/>
<path fill="#C41E6B" opacity="1.000000" stroke="none" d=" M266.053070,187.608368   C265.079681,186.898239 264.017242,185.882935 262.937164,184.506378   C263.934357,185.197800 264.949188,186.250488 266.053070,187.608368  z"/>
<path fill="#C41E6B" opacity="1.000000" stroke="none" d=" M269.002686,191.688507   C268.345062,191.226669 267.667877,190.444611 267.009460,189.299469   C267.679840,189.747009 268.331482,190.557648 269.002686,191.688507  z"/>
<path fill="#C41E6B" opacity="1.000000" stroke="none" d=" M267.300049,212.903061   C267.452362,212.063095 267.881134,211.063889 268.665955,210.028473   C268.540161,210.909439 268.058319,211.826630 267.300049,212.903061  z"/>
<path fill="#C41E6B" opacity="1.000000" stroke="none" d=" M259.094360,179.602875   C258.486969,179.404114 257.822266,178.902161 257.222595,178.037750   C257.870758,178.216751 258.453888,178.758209 259.094360,179.602875  z"/>
<path fill="#C41E6B" opacity="1.000000" stroke="none" d=" M258.470551,223.426361   C258.578033,222.759033 258.976532,221.933014 259.760803,221.099518   C259.684875,221.817261 259.223236,222.542480 258.470551,223.426361  z"/>
<path fill="#C41E6B" opacity="1.000000" stroke="none" d=" M309.770203,241.002869   C309.937012,241.259323 309.933990,241.664124 309.914856,241.866379   C309.277893,241.588516 308.660065,241.108398 308.016693,240.308289   C308.528564,240.241013 309.065948,240.493713 309.770203,241.002869  z"/>
<path fill="#C41E6B" opacity="1.000000" stroke="none" d=" M262.806458,183.781403   C262.259338,183.575256 261.650391,183.080246 261.030762,182.262619   C261.594910,182.457504 262.169739,182.975021 262.806458,183.781403  z"/>
<path fill="#C41E6B" opacity="1.000000" stroke="none" d=" M251.260605,231.904663   C251.247849,231.458282 251.505096,230.894318 252.096695,230.320862   C252.130905,230.803268 251.830750,231.295181 251.260605,231.904663  z"/>
<path fill="#C41E6B" opacity="1.000000" stroke="none" d=" M249.156708,234.441544   C249.156601,234.109314 249.378998,233.653046 249.852402,233.110291   C249.862030,233.455032 249.620636,233.886261 249.156708,234.441544  z"/>
<path fill="#C41E6B" opacity="1.000000" stroke="none" d=" M256.386658,176.384735   C255.979843,176.316742 255.509140,175.958282 255.036255,175.263367   C255.463623,175.316040 255.893204,175.705139 256.386658,176.384735  z"/>
<path fill="#D11F73" opacity="1.000000" stroke="none" d=" M154.974640,221.369537   C155.463135,221.332626 156.034744,221.578217 156.568375,222.163452   C156.039520,222.219406 155.548660,221.935715 154.974640,221.369537  z"/>
<path fill="#D11F73" opacity="1.000000" stroke="none" d=" M220.678192,218.046997   C220.725922,218.515869 220.490982,219.089035 219.923431,219.693176   C219.859070,219.199875 220.127304,218.675583 220.678192,218.046997  z"/>
<path fill="#C41E6B" opacity="1.000000" stroke="none" d=" M261.326752,219.988983   C261.302185,219.506821 261.558014,218.938782 262.153748,218.409943   C262.198151,218.933792 261.902649,219.418457 261.326752,219.988983  z"/>
<path fill="#C41E6B" opacity="1.000000" stroke="none" d=" M260.334808,221.061981   C260.228729,220.817429 260.394501,220.506210 260.820221,220.109894   C260.922333,220.348297 260.764526,220.671814 260.334808,221.061981  z"/>
<path fill="#C41E6B" opacity="1.000000" stroke="none" d=" M266.347900,214.088669   C266.232849,213.847290 266.391968,213.529175 266.805420,213.107559   C266.913879,213.340012 266.767944,213.675980 266.347900,214.088669  z"/>
<path fill="#D11F73" opacity="1.000000" stroke="none" d=" M214.032654,178.268097   C214.257507,178.192886 214.539566,178.378601 214.898651,178.813431   C214.680420,178.884720 214.385132,178.706879 214.032654,178.268097  z"/>
<path fill="#C41E6B" opacity="1.000000" stroke="none" d=" M260.044312,180.688690   C259.787628,180.780090 259.484985,180.589935 259.123230,180.127472   C259.375519,180.039169 259.686951,180.223160 260.044312,180.688690  z"/>
<path fill="#C41E6B" opacity="1.000000" stroke="none" d=" M250.295624,233.023056   C250.196411,232.795593 250.362579,232.493210 250.773438,232.087738   C250.865784,232.305801 250.713409,232.626968 250.295624,233.023056  z"/>
<path fill="#C41E6B" opacity="1.000000" stroke="none" d=" M261.000275,181.724472   C260.769348,181.804230 260.477570,181.615341 260.107819,181.170074   C260.333038,181.094406 260.636230,181.275131 261.000275,181.724472  z"/>
<path fill="#D11F73" opacity="1.000000" stroke="none" d=" M213.007141,177.288177   C213.208603,177.208130 213.507034,177.371902 213.899216,177.780457   C213.696671,177.860840 213.400391,177.696411 213.007141,177.288177  z"/>
<path fill="#C41E6B" opacity="1.000000" stroke="none" d=" M267.027771,188.706467   C266.770142,188.792709 266.477142,188.593170 266.119934,188.126404   C266.367950,188.046356 266.680206,188.233521 267.027771,188.706467  z"/>
<path fill="#C41E6B" opacity="1.000000" stroke="none" d=" M257.277008,177.501373   C256.999084,177.593567 256.660217,177.412247 256.328369,176.920898   C256.628967,176.816528 256.922516,177.022171 257.277008,177.501373  z"/>
<path fill="#C41E6B" opacity="1.000000" stroke="none" d=" M255.025482,174.703186   C254.781372,174.766434 254.488022,174.544907 254.128876,174.046356   C254.367477,173.985687 254.671860,174.202042 255.025482,174.703186  z"/>
<path fill="#D11F73" opacity="1.000000" stroke="none" d=" M202.827271,188.284363   C202.668015,188.046829 202.719238,187.695923 203.071823,187.319138   C203.386063,187.633530 203.274246,187.926117 202.827271,188.284363  z"/>
<path fill="#E90673" opacity="1.000000" stroke="none" d=" M139.946289,202.702408   C137.670898,200.928604 135.376144,198.802185 133.032471,196.339737   C135.370941,196.003723 137.758331,196.003723 140.995148,196.003723   C140.689285,197.820816 140.308105,200.085297 139.946289,202.702408  z"/>
<path fill="#E90673" opacity="1.000000" stroke="none" d=" M182.876328,203.221695   C183.545959,204.480621 183.955063,205.483536 184.364151,206.486450   C183.331741,206.398148 181.800507,206.701859 181.363419,206.145691   C180.200729,204.666275 179.509598,202.816254 178.630936,201.113617   C179.133911,200.780289 179.636887,200.446976 180.139862,200.113647   C180.965179,201.064331 181.790497,202.014999 182.876328,203.221695  z"/>
<path fill="#E80772" opacity="1.000000" stroke="none" d=" M168.132843,223.692841   C166.928635,224.003677 165.859879,224.000824 164.390045,223.986969   C165.262970,222.114853 166.537003,220.253754 167.811035,218.392654   C168.340851,218.716293 168.870667,219.039917 169.400467,219.363541   C169.023071,220.702087 168.645691,222.040619 168.132843,223.692841  z"/>
</svg>