<svg width="70" height="70" viewBox="0 0 70 70" fill="none" xmlns="http://www.w3.org/2000/svg">
<rect x="9.5" y="9.5" width="51" height="51" stroke="#42201A"/>
<rect x="11.5" y="11.5" width="47" height="47" fill="#170A08"/>
<rect x="11.5" y="11.5" width="47" height="47" stroke="#2D1611"/>
<mask id="mask0_355_23020" style="mask-type:alpha" maskUnits="userSpaceOnUse" x="21" y="21" width="28" height="28">
<path fill-rule="evenodd" clip-rule="evenodd" d="M21 21H49V49H21V21ZM31.5667 29.2334L33.7666 31.4333L30.1999 35L33.7666 38.5667L31.5667 40.7666L25.8001 35L31.5667 29.2334ZM36.2334 31.4333L39.8001 35L36.2334 38.5667L38.4333 40.7666L44.1999 35L38.4333 29.2334L36.2334 31.4333Z" fill="#E84125"/>
</mask>
<g mask="url(#mask0_355_23020)">
<path d="M-9 7H79M-9 8.93103H79M-9 10.8621H79M-9 12.7931H79M-9 14.7241H79M-9 16.6552H79M-9 18.5862H79M-9 20.5172H79M-9 22.4483H79M-9 24.3793H79M-9 26.3103H79M-9 28.2414H79M-9 30.1724H79M-9 32.1034H79M-9 34.0345H79M-9 35.9655H79M-9 37.8966H79M-9 39.8276H79M-9 41.7586H79M-9 43.6897H79M-9 45.6207H79M-9 47.5517H79M-9 49.4828H79M-9 51.4138H79M-9 53.3448H79M-9 55.2759H79M-9 57.2069H79M-9 59.1379H79M-9 61.069H79M-9 63H79" stroke="#E84125"/>
</g>
<g filter="url(#filter0_d_355_23020)">
<path d="M61 13.5V9H56.5" stroke="#E84125"/>
</g>
<g filter="url(#filter1_d_355_23020)">
<path d="M13.5 9H9V13.5" stroke="#E84125"/>
</g>
<g filter="url(#filter2_d_355_23020)">
<path d="M9 56.5L9 61L13.5 61" stroke="#E84125"/>
</g>
<g filter="url(#filter3_d_355_23020)">
<path d="M56.5 61H61V56.5" stroke="#E84125"/>
</g>
<defs>
<filter id="filter0_d_355_23020" x="48.5" y="0.5" width="21" height="21" filterUnits="userSpaceOnUse" color-interpolation-filters="sRGB">
<feFlood flood-opacity="0" result="BackgroundImageFix"/>
<feColorMatrix in="SourceAlpha" type="matrix" values="0 0 0 0 0 0 0 0 0 0 0 0 0 0 0 0 0 0 127 0" result="hardAlpha"/>
<feOffset/>
<feGaussianBlur stdDeviation="4"/>
<feComposite in2="hardAlpha" operator="out"/>
<feColorMatrix type="matrix" values="0 0 0 0 0.909804 0 0 0 0 0.254902 0 0 0 0 0.145098 0 0 0 1 0"/>
<feBlend mode="normal" in2="BackgroundImageFix" result="effect1_dropShadow_355_23020"/>
<feBlend mode="normal" in="SourceGraphic" in2="effect1_dropShadow_355_23020" result="shape"/>
</filter>
<filter id="filter1_d_355_23020" x="0.5" y="0.5" width="21" height="21" filterUnits="userSpaceOnUse" color-interpolation-filters="sRGB">
<feFlood flood-opacity="0" result="BackgroundImageFix"/>
<feColorMatrix in="SourceAlpha" type="matrix" values="0 0 0 0 0 0 0 0 0 0 0 0 0 0 0 0 0 0 127 0" result="hardAlpha"/>
<feOffset/>
<feGaussianBlur stdDeviation="4"/>
<feComposite in2="hardAlpha" operator="out"/>
<feColorMatrix type="matrix" values="0 0 0 0 0.909804 0 0 0 0 0.254902 0 0 0 0 0.145098 0 0 0 1 0"/>
<feBlend mode="normal" in2="BackgroundImageFix" result="effect1_dropShadow_355_23020"/>
<feBlend mode="normal" in="SourceGraphic" in2="effect1_dropShadow_355_23020" result="shape"/>
</filter>
<filter id="filter2_d_355_23020" x="0.5" y="48.5" width="21" height="21" filterUnits="userSpaceOnUse" color-interpolation-filters="sRGB">
<feFlood flood-opacity="0" result="BackgroundImageFix"/>
<feColorMatrix in="SourceAlpha" type="matrix" values="0 0 0 0 0 0 0 0 0 0 0 0 0 0 0 0 0 0 127 0" result="hardAlpha"/>
<feOffset/>
<feGaussianBlur stdDeviation="4"/>
<feComposite in2="hardAlpha" operator="out"/>
<feColorMatrix type="matrix" values="0 0 0 0 0.909804 0 0 0 0 0.254902 0 0 0 0 0.145098 0 0 0 1 0"/>
<feBlend mode="normal" in2="BackgroundImageFix" result="effect1_dropShadow_355_23020"/>
<feBlend mode="normal" in="SourceGraphic" in2="effect1_dropShadow_355_23020" result="shape"/>
</filter>
<filter id="filter3_d_355_23020" x="48.5" y="48.5" width="21" height="21" filterUnits="userSpaceOnUse" color-interpolation-filters="sRGB">
<feFlood flood-opacity="0" result="BackgroundImageFix"/>
<feColorMatrix in="SourceAlpha" type="matrix" values="0 0 0 0 0 0 0 0 0 0 0 0 0 0 0 0 0 0 127 0" result="hardAlpha"/>
<feOffset/>
<feGaussianBlur stdDeviation="4"/>
<feComposite in2="hardAlpha" operator="out"/>
<feColorMatrix type="matrix" values="0 0 0 0 0.909804 0 0 0 0 0.254902 0 0 0 0 0.145098 0 0 0 1 0"/>
<feBlend mode="normal" in2="BackgroundImageFix" result="effect1_dropShadow_355_23020"/>
<feBlend mode="normal" in="SourceGraphic" in2="effect1_dropShadow_355_23020" result="shape"/>
</filter>
</defs>
</svg>
