<svg width="14" height="24" viewBox="0 0 14 24" fill="none" xmlns="http://www.w3.org/2000/svg">
<path d="M0 2H2V4H0V2Z" fill="#050100"/>
<path d="M8 2H10V4H8V2Z" fill="#050100"/>
<path d="M4 2H6V4H4V2Z" fill="#050100"/>
<path d="M12 2H14V4H12V2Z" fill="#050100"/>
<path d="M2 0H4V2H2V0Z" fill="#050100"/>
<path d="M6 0H8V2H6V0Z" fill="#050100"/>
<path d="M10 0H12V2H10V0Z" fill="#050100"/>
<path d="M0 6H2V8H0V6Z" fill="#050100"/>
<path d="M8 6H10V8H8V6Z" fill="#050100"/>
<path d="M4 6H6V8H4V6Z" fill="#050100"/>
<path d="M12 6H14V8H12V6Z" fill="#050100"/>
<path d="M2 4H4V6H2V4Z" fill="#050100"/>
<path d="M6 4H8V6H6V4Z" fill="#050100"/>
<path d="M10 4H12V6H10V4Z" fill="#050100"/>
<path d="M0 10H2V12H0V10Z" fill="#050100"/>
<path d="M8 10H10V12H8V10Z" fill="#050100"/>
<path d="M4 10H6V12H4V10Z" fill="#050100"/>
<path d="M12 10H14V12H12V10Z" fill="#050100"/>
<path d="M2 8H4V10H2V8Z" fill="#050100"/>
<path d="M6 8H8V10H6V8Z" fill="#050100"/>
<path d="M10 8H12V10H10V8Z" fill="#050100"/>
<path d="M0 14H2V16H0V14Z" fill="#050100"/>
<path d="M8 14H10V16H8V14Z" fill="#050100"/>
<path d="M4 14H6V16H4V14Z" fill="#050100"/>
<path d="M12 14H14V16H12V14Z" fill="#050100"/>
<path d="M2 12H4V14H2V12Z" fill="#050100"/>
<path d="M6 12H8V14H6V12Z" fill="#050100"/>
<path d="M10 12H12V14H10V12Z" fill="#050100"/>
<path d="M0 18H2V20H0V18Z" fill="#050100"/>
<path d="M8 18H10V20H8V18Z" fill="#050100"/>
<path d="M4 18H6V20H4V18Z" fill="#050100"/>
<path d="M12 18H14V20H12V18Z" fill="#050100"/>
<path d="M2 16H4V18H2V16Z" fill="#050100"/>
<path d="M6 16H8V18H6V16Z" fill="#050100"/>
<path d="M10 16H12V18H10V16Z" fill="#050100"/>
<path d="M0 22H2V24H0V22Z" fill="#050100"/>
<path d="M8 22H10V24H8V22Z" fill="#050100"/>
<path d="M4 22H6V24H4V22Z" fill="#050100"/>
<path d="M12 22H14V24H12V22Z" fill="#050100"/>
<path d="M2 20H4V22H2V20Z" fill="#050100"/>
<path d="M6 20H8V22H6V20Z" fill="#050100"/>
<path d="M10 20H12V22H10V20Z" fill="#050100"/>
</svg>
