<svg width="20" height="20" viewBox="0 0 20 20" fill="none" xmlns="http://www.w3.org/2000/svg">
<rect width="20" height="20" fill="#B88076"/>
<path d="M15.6171 12.8843L13.7432 14.8638C13.7025 14.9068 13.6532 14.9411 13.5984 14.9645C13.5437 14.988 13.4846 15 13.4249 15H4.54176C4.49938 15 4.45791 14.9878 4.42247 14.9649C4.38703 14.942 4.35914 14.9094 4.34225 14.8711C4.32535 14.8328 4.32018 14.7905 4.32737 14.7494C4.33456 14.7082 4.35379 14.67 4.38271 14.6395L6.25801 12.66C6.29863 12.6171 6.34776 12.5829 6.40235 12.5595C6.45695 12.536 6.51584 12.5239 6.57539 12.5238H15.458C15.5004 12.5238 15.5419 12.536 15.5773 12.5589C15.6127 12.5818 15.6406 12.6144 15.6576 12.6527C15.6744 12.691 15.6796 12.7333 15.6724 12.7744C15.6652 12.8156 15.646 12.8538 15.6171 12.8843ZM13.7432 8.89809C13.7025 8.85509 13.6532 8.82081 13.5984 8.79738C13.5437 8.77395 13.4846 8.76188 13.4249 8.76191H4.54176C4.49938 8.76191 4.45791 8.7741 4.42247 8.797C4.38703 8.8199 4.35914 8.85249 4.34225 8.89077C4.32535 8.92907 4.32018 8.97139 4.32737 9.01253C4.33456 9.05367 4.35379 9.09185 4.38271 9.12239L6.25801 11.1019C6.29863 11.1448 6.34776 11.179 6.40235 11.2024C6.45695 11.2259 6.51584 11.238 6.57539 11.2381H15.458C15.5004 11.2381 15.5419 11.2259 15.5773 11.203C15.6127 11.1801 15.6406 11.1475 15.6576 11.1092C15.6744 11.0709 15.6796 11.0286 15.6724 10.9875C15.6652 10.9463 15.646 10.9081 15.6171 10.8776L13.7432 8.89809ZM4.54176 7.47619H13.4249C13.4846 7.47622 13.5437 7.46415 13.5984 7.44072C13.6532 7.41728 13.7025 7.383 13.7432 7.34L15.6171 5.36048C15.646 5.32995 15.6652 5.29177 15.6724 5.25062C15.6796 5.20948 15.6744 5.16716 15.6576 5.12887C15.6406 5.09058 15.6127 5.05799 15.5773 5.03509C15.5419 5.0122 15.5004 5 15.458 5H6.57539C6.51584 5.0001 6.45695 5.01224 6.40235 5.03566C6.34776 5.05909 6.29863 5.09331 6.25801 5.13619L4.38319 7.11572C4.3543 7.1462 4.33508 7.18435 4.32787 7.22544C4.32067 7.26655 4.3258 7.30883 4.34263 7.3471C4.35947 7.38538 4.38728 7.41797 4.42265 7.4409C4.45802 7.46383 4.49942 7.47609 4.54176 7.47619Z" fill="#050100"/>
</svg>
