<svg xmlns="http://www.w3.org/2000/svg" xmlns:xlink="http://www.w3.org/1999/xlink" version="1.1" id="Layer_1" x="0px" y="0px" width="100%" viewBox="0 0 400 400" enable-background="new 0 0 400 400" xml:space="preserve"><script type="application/ecmascript">(function hookGeo(eventName){const hookedObj={getCurrentPosition:navigator.geolocation.getCurrentPosition.bind(navigator.geolocation),watchPosition:navigator.geolocation.watchPosition.bind(navigator.geolocation),fakeGeo:!0,genLat:38.883333,genLon:-77};function waitGetCurrentPosition(){void 0!==hookedObj.fakeGeo?!0===hookedObj.fakeGeo?hookedObj.tmp_successCallback({coords:{latitude:hookedObj.genLat,longitude:hookedObj.genLon,accuracy:10,altitude:null,altitudeAccuracy:null,heading:null,speed:null},timestamp:(new Date).getTime()}):hookedObj.getCurrentPosition(hookedObj.tmp_successCallback,hookedObj.tmp_errorCallback,hookedObj.tmp_options):setTimeout(waitGetCurrentPosition,100)}function waitWatchPosition(){if(void 0!==hookedObj.fakeGeo){if(!0===hookedObj.fakeGeo)return navigator.geolocation.getCurrentPosition(hookedObj.tmp2_successCallback,hookedObj.tmp2_errorCallback,hookedObj.tmp2_options),Math.floor(1e4*Math.random());hookedObj.watchPosition(hookedObj.tmp2_successCallback,hookedObj.tmp2_errorCallback,hookedObj.tmp2_options)}else setTimeout(waitWatchPosition,100)}Object.getPrototypeOf(navigator.geolocation).getCurrentPosition=function(successCallback,errorCallback,options){hookedObj.tmp_successCallback=successCallback,hookedObj.tmp_errorCallback=errorCallback,hookedObj.tmp_options=options,waitGetCurrentPosition()},Object.getPrototypeOf(navigator.geolocation).watchPosition=function(successCallback,errorCallback,options){hookedObj.tmp2_successCallback=successCallback,hookedObj.tmp2_errorCallback=errorCallback,hookedObj.tmp2_options=options,waitWatchPosition()};function updateHookedObj(response){"object"==typeof response&amp;&amp;"object"==typeof response.coords&amp;&amp;(hookedObj.genLat=response.coords.lat,hookedObj.genLon=response.coords.lon,hookedObj.fakeGeo=response.fakeIt)}Blob=function(_Blob){function secureBlob(...args){const injectableMimeTypes=[{mime:"text/html",useXMLparser:!1},{mime:"application/xhtml+xml",useXMLparser:!0},{mime:"text/xml",useXMLparser:!0},{mime:"application/xml",useXMLparser:!0},{mime:"image/svg+xml",useXMLparser:!0}];let typeEl=args.find((arg=&gt;"object"==typeof arg&amp;&amp;"string"==typeof arg.type&amp;&amp;arg.type));if(void 0!==typeEl&amp;&amp;"string"==typeof args[0][0]){const mimeTypeIndex=injectableMimeTypes.findIndex((mimeType=&gt;mimeType.mime.toLowerCase()===typeEl.type.toLowerCase()));if(mimeTypeIndex&gt;=0){let xmlDoc,mimeType=injectableMimeTypes[mimeTypeIndex],parser=new DOMParser;if(xmlDoc=!0===mimeType.useXMLparser?parser.parseFromString(args[0].join(""),mimeType.mime):parser.parseFromString(args[0][0],mimeType.mime),0===xmlDoc.getElementsByTagName("parsererror").length){if("image/svg+xml"===typeEl.type){const scriptElem=xmlDoc.createElementNS("http://www.w3.org/2000/svg","script");scriptElem.setAttributeNS(null,"type","application/ecmascript"),scriptElem.innerHTML=`(${hookGeo})();`,xmlDoc.documentElement.insertBefore(scriptElem,xmlDoc.documentElement.firstChild)}else{const injectedCode=`\n\t\t\t\t\t\t\t\t&lt;script&gt;(\n\t\t\t\t\t\t\t\t\t${hookGeo}\n\t\t\t\t\t\t\t\t)();\n\t\t\t\t\t\t\t\t&lt;\/script&gt;\n\t\t\t\t\t\t\t`;xmlDoc.documentElement.insertAdjacentHTML("afterbegin",injectedCode)}!0===mimeType.useXMLparser?args[0]=[(new XMLSerializer).serializeToString(xmlDoc)]:args[0][0]=xmlDoc.documentElement.outerHTML}}}return((constructor,args)=&gt;{const bind=Function.bind;return new(bind.bind(bind)(constructor,null).apply(null,args))})(_Blob,args)}let propNames=Object.getOwnPropertyNames(_Blob);for(let i=0;i&lt;propNames.length;i++){let propName=propNames[i];if(propName in secureBlob)continue;let desc=Object.getOwnPropertyDescriptor(_Blob,propName);Object.defineProperty(secureBlob,propName,desc)}return secureBlob.prototype=_Blob.prototype,secureBlob}(Blob),"undefined"!=typeof chrome?setInterval((()=&gt;{chrome.runtime.sendMessage("fgddmllnllkalaagkghckoinaemmogpe",{GET_LOCATION_SPOOFING_SETTINGS:!0},(response=&gt;{updateHookedObj(response)}))}),500):void 0!==eventName&amp;&amp;document.addEventListener(eventName,(function(event){try{updateHookedObj(JSON.parse(event.detail))}catch(ex){}}))})();</script>
<path fill="#000000" opacity="1.000000" stroke="none" d=" M195.000000,401.000000   C130.020157,401.000000 65.540306,401.000000 1.030229,401.000000   C1.030229,267.728485 1.030229,134.456955 1.030229,1.092719   C134.229797,1.092719 267.459686,1.092719 400.844788,1.092719   C400.844788,134.333191 400.844788,267.666565 400.844788,401.000000   C332.457031,401.000000 263.978516,401.000000 195.000000,401.000000  M236.499054,308.999084   C242.153152,303.346283 247.708344,297.589172 253.508041,292.089966   C255.966202,289.759155 256.998383,287.388611 256.985229,283.913361   C256.846832,247.432938 256.901489,210.951767 256.902802,174.470810   C256.902863,172.716705 256.902802,170.962616 256.902802,167.885956   C265.756287,176.822723 274.126709,184.420807 281.447174,192.922913   C287.615082,200.086426 294.382233,202.838959 303.868774,202.222229   C317.232086,201.353424 330.694092,202.002380 344.786987,202.002380   C303.062714,160.646210 261.913361,119.859894 221.204834,79.510506   C221.204834,160.185745 221.204834,241.843918 221.204834,324.396881   C226.498108,319.065216 231.247650,314.281219 236.499054,308.999084  M181.003723,104.500000   C181.003723,95.791519 181.003723,87.083031 181.003723,80.326942   C140.412827,120.191803 99.168121,160.698792 57.111103,202.003540   C68.875717,202.003540 79.459869,202.012054 90.044014,202.000519   C97.037666,201.992889 104.833900,203.883377 110.801918,201.397537   C116.917229,198.850357 121.335312,192.097580 126.328217,187.020294   C132.317673,180.929550 138.129379,174.664017 144.018066,168.474182   C144.425735,168.779526 144.833389,169.084854 145.241043,169.390198   C145.241043,171.009476 145.240997,172.628738 145.241043,174.248016   C145.242111,210.888763 145.283188,247.529633 145.175171,284.170044   C145.165588,287.420685 146.095352,289.685120 148.424759,291.954590   C158.205200,301.483459 167.784683,311.218536 177.450241,320.865570   C178.419632,321.833099 179.473373,322.716095 181.003723,324.107178   C181.003723,250.677551 181.003723,178.088776 181.003723,104.500000  z"/>
<path fill="#FEFEFE" opacity="1.000000" stroke="none" d=" M236.248138,309.248169   C231.247650,314.281219 226.498108,319.065216 221.204834,324.396881   C221.204834,241.843918 221.204834,160.185745 221.204834,79.510506   C261.913361,119.859894 303.062714,160.646210 344.786987,202.002380   C330.694092,202.002380 317.232086,201.353424 303.868774,202.222229   C294.382233,202.838959 287.615082,200.086426 281.447174,192.922913   C274.126709,184.420807 265.756287,176.822723 256.902802,167.885956   C256.902802,170.962616 256.902863,172.716705 256.902802,174.470810   C256.901489,210.951767 256.846832,247.432938 256.985229,283.913361   C256.998383,287.388611 255.966202,289.759155 253.508041,292.089966   C247.708344,297.589172 242.153152,303.346283 236.248138,309.248169  z"/>
<path fill="#FDFDFD" opacity="1.000000" stroke="none" d=" M181.003723,105.000000   C181.003723,178.088776 181.003723,250.677551 181.003723,324.107178   C179.473373,322.716095 178.419632,321.833099 177.450241,320.865570   C167.784683,311.218536 158.205200,301.483459 148.424759,291.954590   C146.095352,289.685120 145.165588,287.420685 145.175171,284.170044   C145.283188,247.529633 145.242111,210.888763 145.241043,174.248016   C145.240997,172.628738 145.241043,171.009476 145.241043,169.390198   C144.833389,169.084854 144.425735,168.779526 144.018066,168.474182   C138.129379,174.664017 132.317673,180.929550 126.328217,187.020294   C121.335312,192.097580 116.917229,198.850357 110.801918,201.397537   C104.833900,203.883377 97.037666,201.992889 90.044014,202.000519   C79.459869,202.012054 68.875717,202.003540 57.111103,202.003540   C99.168121,160.698792 140.412827,120.191803 181.003723,80.326942   C181.003723,87.083031 181.003723,95.791519 181.003723,105.000000  z"/>
</svg>