<svg width="390" height="570" viewBox="0 0 390 570" fill="none" xmlns="http://www.w3.org/2000/svg">
<g filter="url(#filter0_d_382_16373)">
<path d="M12 13H378M12 17H378M12 21H378M12 25H378M12 29H378M12 33H378M12 37H378M12 41H378M12 45H378M12 49H378M12 53H378M12 57H378M12 61H378M12 65H378M12 69H378M12 73H378M12 77H378M12 81H378M12 85H378M12 89H378M12 93H378M12 97H378M12 101H378M12 105H378M12 109H378M12 113H378M12 117H378M12 121H378M12 125H378M12 129H378M12 133H378M12 137H378M12 141H378M12 145H378M12 149H378M12 153H378M12 157H378M12 161H378M12 165H378M12 169H378M12 173H378M12 177H378M12 181H378M12 185H378M12 189H378M12 193H378M12 197H378M12 201H378M12 205H378M12 209H378M12 213H378M12 217H378M12 221H378M12 225H378M12 229H378M12 233H378M12 237H378M12 241H378M12 245H378M12 249H378M12 253H378M12 257H378M12 261H378M12 265H378M12 269H378M12 273H378M12 277H378M12 281H378M12 285H378M12 289H378M12 293H378M12 297H378M12 301H378M12 305H378M12 309H378M12 313H378M12 317H378M12 321H378M12 325H378M12 329H378M12 333H378M12 337H378M12 341H378M12 345H378M12 349H378M12 353H378M12 357H378M12 361H378M12 365H378M12 369H378M12 373H378M12 377H378M12 381H378M12 385H378M12 389H378M12 393H378M12 397H378M12 401H378M12 405H378M12 409H378M12 413H378M12 417H378M12 421H378M12 425H378M12 429H378M12 433H378M12 437H378M12 441H378M12 445H378M12 449H378M12 453H378M12 457H378M12 461H378M12 465H378M12 469H378M12 473H378M12 477H378M12 481H378M12 485H378M12 489H378M12 493H378M12 497H378M12 501H378M12 505H378M12 509H378M12 513H378M12 517H378M12 521H378M12 525H378M12 529H378M12 533H378M12 537H378M12 541H378M12 545H378M12 549H378M12 553H378M12 557H378" stroke="#E84125"/>
</g>
<defs>
<filter id="filter0_d_382_16373" x="0" y="0.5" width="390" height="569" filterUnits="userSpaceOnUse" color-interpolation-filters="sRGB">
<feFlood flood-opacity="0" result="BackgroundImageFix"/>
<feColorMatrix in="SourceAlpha" type="matrix" values="0 0 0 0 0 0 0 0 0 0 0 0 0 0 0 0 0 0 127 0" result="hardAlpha"/>
<feOffset/>
<feGaussianBlur stdDeviation="6"/>
<feComposite in2="hardAlpha" operator="out"/>
<feColorMatrix type="matrix" values="0 0 0 0 0.909804 0 0 0 0 0.254902 0 0 0 0 0.145098 0 0 0 1 0"/>
<feBlend mode="normal" in2="BackgroundImageFix" result="effect1_dropShadow_382_16373"/>
<feBlend mode="normal" in="SourceGraphic" in2="effect1_dropShadow_382_16373" result="shape"/>
</filter>
</defs>
</svg>
