<svg width="1224" height="390" viewBox="0 0 1224 390" fill="none" xmlns="http://www.w3.org/2000/svg">
<g filter="url(#filter0_d_382_16234)">
<path d="M12 13H1212M12 17H1212M12 21H1212M12 25H1212M12 29H1212M12 33H1212M12 37H1212M12 41H1212M12 45H1212M12 49H1212M12 53H1212M12 57H1212M12 61H1212M12 65H1212M12 69H1212M12 73H1212M12 77H1212M12 81H1212M12 85H1212M12 89H1212M12 93H1212M12 97H1212M12 101H1212M12 105H1212M12 109H1212M12 113H1212M12 117H1212M12 121H1212M12 125H1212M12 129H1212M12 133H1212M12 137H1212M12 141H1212M12 145H1212M12 149H1212M12 153H1212M12 157H1212M12 161H1212M12 165H1212M12 169H1212M12 173H1212M12 177H1212M12 181H1212M12 185H1212M12 189H1212M12 193H1212M12 197H1212M12 201H1212M12 205H1212M12 209H1212M12 213H1212M12 217H1212M12 221H1212M12 225H1212M12 229H1212M12 233H1212M12 237H1212M12 241H1212M12 245H1212M12 249H1212M12 253H1212M12 257H1212M12 261H1212M12 265H1212M12 269H1212M12 273H1212M12 277H1212M12 281H1212M12 285H1212M12 289H1212M12 293H1212M12 297H1212M12 301H1212M12 305H1212M12 309H1212M12 313H1212M12 317H1212M12 321H1212M12 325H1212M12 329H1212M12 333H1212M12 337H1212M12 341H1212M12 345H1212M12 349H1212M12 353H1212M12 357H1212M12 361H1212M12 365H1212M12 369H1212M12 373H1212M12 377H1212" stroke="#E84125"/>
</g>
<defs>
<filter id="filter0_d_382_16234" x="0" y="0.5" width="1224" height="389" filterUnits="userSpaceOnUse" color-interpolation-filters="sRGB">
<feFlood flood-opacity="0" result="BackgroundImageFix"/>
<feColorMatrix in="SourceAlpha" type="matrix" values="0 0 0 0 0 0 0 0 0 0 0 0 0 0 0 0 0 0 127 0" result="hardAlpha"/>
<feOffset/>
<feGaussianBlur stdDeviation="6"/>
<feComposite in2="hardAlpha" operator="out"/>
<feColorMatrix type="matrix" values="0 0 0 0 0.909804 0 0 0 0 0.254902 0 0 0 0 0.145098 0 0 0 1 0"/>
<feBlend mode="normal" in2="BackgroundImageFix" result="effect1_dropShadow_382_16234"/>
<feBlend mode="normal" in="SourceGraphic" in2="effect1_dropShadow_382_16234" result="shape"/>
</filter>
</defs>
</svg>
