<?xml version="1.0" encoding="UTF-8"?>
<svg id="Layer_2" xmlns="http://www.w3.org/2000/svg" xmlns:xlink="http://www.w3.org/1999/xlink" viewBox="0 0 105.56 105.64">
  <defs>
    <style>
      .cls-1 {
        fill: url(#linear-gradient-4);
      }

      .cls-2 {
        fill: url(#linear-gradient-3);
      }

      .cls-3 {
        fill: url(#linear-gradient-2);
      }

      .cls-4 {
        fill: url(#linear-gradient);
      }
    </style>
    <linearGradient id="linear-gradient" x1="44.24" y1="74.98" x2="105.56" y2="74.98" gradientUnits="userSpaceOnUse">
      <stop offset="0" stop-color="#e35930"/>
      <stop offset="1" stop-color="#e84125"/>
    </linearGradient>
    <linearGradient id="linear-gradient-2" x1="44.24" y1="30.66" x2="105.56" y2="30.66" xlink:href="#linear-gradient"/>
    <linearGradient id="linear-gradient-3" x1="0" y1="74.98" x2="61.32" y2="74.98" xlink:href="#linear-gradient"/>
    <linearGradient id="linear-gradient-4" x1="0" y1="30.66" x2="61.32" y2="30.66" xlink:href="#linear-gradient"/>
  </defs>
  <g id="Layer_1-2" data-name="Layer_1">
    <g id="Icon">
      <polygon class="cls-4" points="105.56 105.64 94.7 65.1 87.31 72.48 89.66 81.25 52.73 44.32 44.24 52.81 75.61 84.18 81.17 89.74 72.41 87.39 65.02 94.78 105.56 105.64"/>
      <polygon class="cls-3" points="105.56 0 65.02 10.86 72.41 18.25 81.17 15.9 44.24 52.83 52.73 61.32 84.1 29.95 89.66 24.39 87.31 33.15 94.7 40.54 105.56 0"/>
      <polygon class="cls-2" points="0 105.64 10.86 65.1 18.25 72.48 15.9 81.25 52.83 44.32 61.32 52.81 29.95 84.18 24.39 89.74 33.15 87.39 40.54 94.78 0 105.64"/>
      <polygon class="cls-1" points="0 0 40.54 10.86 33.15 18.25 24.39 15.9 61.32 52.83 52.83 61.32 21.46 29.95 15.9 24.39 18.25 33.15 10.86 40.54 0 0"/>
    </g>
  </g>
</svg>