<?xml version="1.0" encoding="UTF-8"?>
<!DOCTYPE svg PUBLIC "-//W3C//DTD SVG 1.1//EN" "http://www.w3.org/Graphics/SVG/1.1/DTD/svg11.dtd">
<svg xmlns="http://www.w3.org/2000/svg" version="1.1" width="86px" height="30px" style="shape-rendering:geometricPrecision; text-rendering:geometricPrecision; image-rendering:optimizeQuality; fill-rule:evenodd; clip-rule:evenodd" xmlns:xlink="http://www.w3.org/1999/xlink">
<g><path style="opacity:0.498" fill="#e84023" d="M 1.5,4.5 C 1.89657,3.47498 2.56323,3.30831 3.5,4C 2.90558,4.46434 2.23891,4.63101 1.5,4.5 Z"/></g>
<g><path style="opacity:0.498" fill="#e84023" d="M 4.5,4.5 C 4.89657,3.47498 5.56323,3.30831 6.5,4C 5.90558,4.46434 5.23891,4.63101 4.5,4.5 Z"/></g>
<g><path style="opacity:0.498" fill="#030000" d="M 7.5,4.5 C 7.89657,3.47498 8.56323,3.30831 9.5,4C 8.90558,4.46434 8.23891,4.63101 7.5,4.5 Z"/></g>
<g><path style="opacity:0.498" fill="#030000" d="M 10.5,4.5 C 10.8966,3.47498 11.5632,3.30831 12.5,4C 11.9056,4.46434 11.2389,4.63101 10.5,4.5 Z"/></g>
<g><path style="opacity:0.498" fill="#e84023" d="M 13.5,4.5 C 13.8966,3.47498 14.5632,3.30831 15.5,4C 14.9056,4.46434 14.2389,4.63101 13.5,4.5 Z"/></g>
<g><path style="opacity:0.498" fill="#e84023" d="M 16.5,4.5 C 16.8966,3.47498 17.5632,3.30831 18.5,4C 17.9056,4.46434 17.2389,4.63101 16.5,4.5 Z"/></g>
<g><path style="opacity:0.498" fill="#e84023" d="M 23.5,4.5 C 23.8966,3.47498 24.5632,3.30831 25.5,4C 24.9056,4.46434 24.2389,4.63101 23.5,4.5 Z"/></g>
<g><path style="opacity:0.498" fill="#e84023" d="M 26.5,4.5 C 26.8966,3.47498 27.5632,3.30831 28.5,4C 27.9056,4.46434 27.2389,4.63101 26.5,4.5 Z"/></g>
<g><path style="opacity:0.498" fill="#e84023" d="M 29.5,4.5 C 29.8966,3.47498 30.5632,3.30831 31.5,4C 30.9056,4.46434 30.2389,4.63101 29.5,4.5 Z"/></g>
<g><path style="opacity:0.498" fill="#e84023" d="M 32.5,4.5 C 32.8966,3.47498 33.5632,3.30831 34.5,4C 33.9056,4.46434 33.2389,4.63101 32.5,4.5 Z"/></g>
<g><path style="opacity:0.498" fill="#e84023" d="M 35.5,4.5 C 35.8966,3.47498 36.5632,3.30831 37.5,4C 36.9056,4.46434 36.2389,4.63101 35.5,4.5 Z"/></g>
<g><path style="opacity:0.498" fill="#030000" d="M 38.5,4.5 C 38.8966,3.47498 39.5632,3.30831 40.5,4C 39.9056,4.46434 39.2389,4.63101 38.5,4.5 Z"/></g>
<g><path style="opacity:0.498" fill="#030000" d="M 45.5,4.5 C 45.8966,3.47498 46.5632,3.30831 47.5,4C 46.9056,4.46434 46.2389,4.63101 45.5,4.5 Z"/></g>
<g><path style="opacity:0.498" fill="#e84023" d="M 48.5,4.5 C 48.8966,3.47498 49.5632,3.30831 50.5,4C 49.9056,4.46434 49.2389,4.63101 48.5,4.5 Z"/></g>
<g><path style="opacity:0.498" fill="#e84023" d="M 51.5,4.5 C 51.8966,3.47498 52.5632,3.30831 53.5,4C 52.9056,4.46434 52.2389,4.63101 51.5,4.5 Z"/></g>
<g><path style="opacity:0.498" fill="#e84023" d="M 54.5,4.5 C 54.8966,3.47498 55.5632,3.30831 56.5,4C 55.9056,4.46434 55.2389,4.63101 54.5,4.5 Z"/></g>
<g><path style="opacity:0.498" fill="#e84023" d="M 57.5,4.5 C 57.8966,3.47498 58.5632,3.30831 59.5,4C 58.9056,4.46434 58.2389,4.63101 57.5,4.5 Z"/></g>
<g><path style="opacity:0.498" fill="#030000" d="M 60.5,4.5 C 60.8966,3.47498 61.5632,3.30831 62.5,4C 61.9056,4.46434 61.2389,4.63101 60.5,4.5 Z"/></g>
<g><path style="opacity:0.498" fill="#e84023" d="M 66.5,4.5 C 66.8966,3.47498 67.5632,3.30831 68.5,4C 67.9056,4.46434 67.2389,4.63101 66.5,4.5 Z"/></g>
<g><path style="opacity:0.498" fill="#e84023" d="M 69.5,4.5 C 69.8966,3.47498 70.5632,3.30831 71.5,4C 70.9056,4.46434 70.2389,4.63101 69.5,4.5 Z"/></g>
<g><path style="opacity:0.498" fill="#030000" d="M 72.5,4.5 C 72.8966,3.47498 73.5632,3.30831 74.5,4C 73.9056,4.46434 73.2389,4.63101 72.5,4.5 Z"/></g>
<g><path style="opacity:0.498" fill="#030000" d="M 75.5,4.5 C 75.8966,3.47498 76.5632,3.30831 77.5,4C 76.9056,4.46434 76.2389,4.63101 75.5,4.5 Z"/></g>
<g><path style="opacity:0.498" fill="#e84023" d="M 78.5,4.5 C 78.8966,3.47498 79.5632,3.30831 80.5,4C 79.9056,4.46434 79.2389,4.63101 78.5,4.5 Z"/></g>
<g><path style="opacity:0.498" fill="#e84023" d="M 81.5,4.5 C 81.8966,3.47498 82.5632,3.30831 83.5,4C 82.9056,4.46434 82.2389,4.63101 81.5,4.5 Z"/></g>
<g><path style="opacity:0.498" fill="#e84023" d="M 1.5,7.5 C 1.89657,6.47498 2.56323,6.30831 3.5,7C 2.90558,7.46434 2.23891,7.63101 1.5,7.5 Z"/></g>
<g><path style="opacity:0.498" fill="#e84023" d="M 4.5,7.5 C 4.89657,6.47498 5.56323,6.30831 6.5,7C 5.90558,7.46434 5.23891,7.63101 4.5,7.5 Z"/></g>
<g><path style="opacity:0.498" fill="#030000" d="M 7.5,7.5 C 7.89657,6.47498 8.56323,6.30831 9.5,7C 8.90558,7.46434 8.23891,7.63101 7.5,7.5 Z"/></g>
<g><path style="opacity:0.498" fill="#030000" d="M 10.5,7.5 C 10.8966,6.47498 11.5632,6.30831 12.5,7C 11.9056,7.46434 11.2389,7.63101 10.5,7.5 Z"/></g>
<g><path style="opacity:0.498" fill="#e84023" d="M 13.5,7.5 C 13.8966,6.47498 14.5632,6.30831 15.5,7C 14.9056,7.46434 14.2389,7.63101 13.5,7.5 Z"/></g>
<g><path style="opacity:0.498" fill="#e84023" d="M 16.5,7.5 C 16.8966,6.47498 17.5632,6.30831 18.5,7C 17.9056,7.46434 17.2389,7.63101 16.5,7.5 Z"/></g>
<g><path style="opacity:0.498" fill="#e84023" d="M 23.5,7.5 C 23.8966,6.47498 24.5632,6.30831 25.5,7C 24.9056,7.46434 24.2389,7.63101 23.5,7.5 Z"/></g>
<g><path style="opacity:0.498" fill="#e84023" d="M 26.5,7.5 C 26.8966,6.47498 27.5632,6.30831 28.5,7C 27.9056,7.46434 27.2389,7.63101 26.5,7.5 Z"/></g>
<g><path style="opacity:0.498" fill="#e84023" d="M 29.5,7.5 C 29.8966,6.47498 30.5632,6.30831 31.5,7C 30.9056,7.46434 30.2389,7.63101 29.5,7.5 Z"/></g>
<g><path style="opacity:0.498" fill="#e84023" d="M 32.5,7.5 C 32.8966,6.47498 33.5632,6.30831 34.5,7C 33.9056,7.46434 33.2389,7.63101 32.5,7.5 Z"/></g>
<g><path style="opacity:0.498" fill="#e84023" d="M 35.5,7.5 C 35.8966,6.47498 36.5632,6.30831 37.5,7C 36.9056,7.46434 36.2389,7.63101 35.5,7.5 Z"/></g>
<g><path style="opacity:0.498" fill="#e84023" d="M 38.5,7.5 C 38.8966,6.47498 39.5632,6.30831 40.5,7C 39.9056,7.46434 39.2389,7.63101 38.5,7.5 Z"/></g>
<g><path style="opacity:0.498" fill="#e84023" d="M 45.5,7.5 C 45.8966,6.47498 46.5632,6.30831 47.5,7C 46.9056,7.46434 46.2389,7.63101 45.5,7.5 Z"/></g>
<g><path style="opacity:0.498" fill="#e84023" d="M 48.5,7.5 C 48.8966,6.47498 49.5632,6.30831 50.5,7C 49.9056,7.46434 49.2389,7.63101 48.5,7.5 Z"/></g>
<g><path style="opacity:0.498" fill="#e84023" d="M 51.5,7.5 C 51.8966,6.47498 52.5632,6.30831 53.5,7C 52.9056,7.46434 52.2389,7.63101 51.5,7.5 Z"/></g>
<g><path style="opacity:0.498" fill="#e84023" d="M 54.5,7.5 C 54.8966,6.47498 55.5632,6.30831 56.5,7C 55.9056,7.46434 55.2389,7.63101 54.5,7.5 Z"/></g>
<g><path style="opacity:0.498" fill="#e84023" d="M 57.5,7.5 C 57.8966,6.47498 58.5632,6.30831 59.5,7C 58.9056,7.46434 58.2389,7.63101 57.5,7.5 Z"/></g>
<g><path style="opacity:0.498" fill="#e84023" d="M 60.5,7.5 C 60.8966,6.47498 61.5632,6.30831 62.5,7C 61.9056,7.46434 61.2389,7.63101 60.5,7.5 Z"/></g>
<g><path style="opacity:0.498" fill="#e84023" d="M 66.5,7.5 C 66.8966,6.47498 67.5632,6.30831 68.5,7C 67.9056,7.46434 67.2389,7.63101 66.5,7.5 Z"/></g>
<g><path style="opacity:0.498" fill="#e84023" d="M 69.5,7.5 C 69.8966,6.47498 70.5632,6.30831 71.5,7C 70.9056,7.46434 70.2389,7.63101 69.5,7.5 Z"/></g>
<g><path style="opacity:0.498" fill="#030000" d="M 72.5,7.5 C 72.8966,6.47498 73.5632,6.30831 74.5,7C 73.9056,7.46434 73.2389,7.63101 72.5,7.5 Z"/></g>
<g><path style="opacity:0.498" fill="#030000" d="M 75.5,7.5 C 75.8966,6.47498 76.5632,6.30831 77.5,7C 76.9056,7.46434 76.2389,7.63101 75.5,7.5 Z"/></g>
<g><path style="opacity:0.498" fill="#e84023" d="M 78.5,7.5 C 78.8966,6.47498 79.5632,6.30831 80.5,7C 79.9056,7.46434 79.2389,7.63101 78.5,7.5 Z"/></g>
<g><path style="opacity:0.498" fill="#e84023" d="M 81.5,7.5 C 81.8966,6.47498 82.5632,6.30831 83.5,7C 82.9056,7.46434 82.2389,7.63101 81.5,7.5 Z"/></g>
<g><path style="opacity:0.498" fill="#e84023" d="M 1.5,10.5 C 1.89657,9.47498 2.56323,9.30831 3.5,10C 2.90558,10.4643 2.23891,10.631 1.5,10.5 Z"/></g>
<g><path style="opacity:0.498" fill="#e84023" d="M 4.5,10.5 C 4.89657,9.47498 5.56323,9.30831 6.5,10C 5.90558,10.4643 5.23891,10.631 4.5,10.5 Z"/></g>
<g><path style="opacity:0.498" fill="#030000" d="M 7.5,10.5 C 7.89657,9.47498 8.56323,9.30831 9.5,10C 8.90558,10.4643 8.23891,10.631 7.5,10.5 Z"/></g>
<g><path style="opacity:0.498" fill="#030000" d="M 10.5,10.5 C 10.8966,9.47498 11.5632,9.30831 12.5,10C 11.9056,10.4643 11.2389,10.631 10.5,10.5 Z"/></g>
<g><path style="opacity:0.498" fill="#e84023" d="M 13.5,10.5 C 13.8966,9.47498 14.5632,9.30831 15.5,10C 14.9056,10.4643 14.2389,10.631 13.5,10.5 Z"/></g>
<g><path style="opacity:0.498" fill="#e84023" d="M 16.5,10.5 C 16.8966,9.47498 17.5632,9.30831 18.5,10C 17.9056,10.4643 17.2389,10.631 16.5,10.5 Z"/></g>
<g><path style="opacity:0.498" fill="#e84023" d="M 23.5,10.5 C 23.8966,9.47498 24.5632,9.30831 25.5,10C 24.9056,10.4643 24.2389,10.631 23.5,10.5 Z"/></g>
<g><path style="opacity:0.498" fill="#e84023" d="M 26.5,10.5 C 26.8966,9.47498 27.5632,9.30831 28.5,10C 27.9056,10.4643 27.2389,10.631 26.5,10.5 Z"/></g>
<g><path style="opacity:0.498" fill="#030000" d="M 29.5,10.5 C 29.8966,9.47498 30.5632,9.30831 31.5,10C 30.9056,10.4643 30.2389,10.631 29.5,10.5 Z"/></g>
<g><path style="opacity:0.498" fill="#030000" d="M 32.5,10.5 C 32.8966,9.47498 33.5632,9.30831 34.5,10C 33.9056,10.4643 33.2389,10.631 32.5,10.5 Z"/></g>
<g><path style="opacity:0.498" fill="#e84023" d="M 35.5,10.5 C 35.8966,9.47498 36.5632,9.30831 37.5,10C 36.9056,10.4643 36.2389,10.631 35.5,10.5 Z"/></g>
<g><path style="opacity:0.498" fill="#e84023" d="M 38.5,10.5 C 38.8966,9.47498 39.5632,9.30831 40.5,10C 39.9056,10.4643 39.2389,10.631 38.5,10.5 Z"/></g>
<g><path style="opacity:0.498" fill="#e84023" d="M 45.5,10.5 C 45.8966,9.47498 46.5632,9.30831 47.5,10C 46.9056,10.4643 46.2389,10.631 45.5,10.5 Z"/></g>
<g><path style="opacity:0.498" fill="#e84023" d="M 48.5,10.5 C 48.8966,9.47498 49.5632,9.30831 50.5,10C 49.9056,10.4643 49.2389,10.631 48.5,10.5 Z"/></g>
<g><path style="opacity:0.498" fill="#030000" d="M 51.5,10.5 C 51.8966,9.47498 52.5632,9.30831 53.5,10C 52.9056,10.4643 52.2389,10.631 51.5,10.5 Z"/></g>
<g><path style="opacity:0.498" fill="#030000" d="M 54.5,10.5 C 54.8966,9.47498 55.5632,9.30831 56.5,10C 55.9056,10.4643 55.2389,10.631 54.5,10.5 Z"/></g>
<g><path style="opacity:0.498" fill="#e84023" d="M 57.5,10.5 C 57.8966,9.47498 58.5632,9.30831 59.5,10C 58.9056,10.4643 58.2389,10.631 57.5,10.5 Z"/></g>
<g><path style="opacity:0.498" fill="#e84023" d="M 60.5,10.5 C 60.8966,9.47498 61.5632,9.30831 62.5,10C 61.9056,10.4643 61.2389,10.631 60.5,10.5 Z"/></g>
<g><path style="opacity:0.498" fill="#e84023" d="M 66.5,10.5 C 66.8966,9.47498 67.5632,9.30831 68.5,10C 67.9056,10.4643 67.2389,10.631 66.5,10.5 Z"/></g>
<g><path style="opacity:0.498" fill="#e84023" d="M 69.5,10.5 C 69.8966,9.47498 70.5632,9.30831 71.5,10C 70.9056,10.4643 70.2389,10.631 69.5,10.5 Z"/></g>
<g><path style="opacity:0.498" fill="#030000" d="M 72.5,10.5 C 72.8966,9.47498 73.5632,9.30831 74.5,10C 73.9056,10.4643 73.2389,10.631 72.5,10.5 Z"/></g>
<g><path style="opacity:0.498" fill="#030000" d="M 75.5,10.5 C 75.8966,9.47498 76.5632,9.30831 77.5,10C 76.9056,10.4643 76.2389,10.631 75.5,10.5 Z"/></g>
<g><path style="opacity:0.498" fill="#e84023" d="M 78.5,10.5 C 78.8966,9.47498 79.5632,9.30831 80.5,10C 79.9056,10.4643 79.2389,10.631 78.5,10.5 Z"/></g>
<g><path style="opacity:0.498" fill="#e84023" d="M 81.5,10.5 C 81.8966,9.47498 82.5632,9.30831 83.5,10C 82.9056,10.4643 82.2389,10.631 81.5,10.5 Z"/></g>
<g><path style="opacity:0.498" fill="#030000" d="M 1.5,13.5 C 1.89657,12.475 2.56323,12.3083 3.5,13C 2.90558,13.4643 2.23891,13.631 1.5,13.5 Z"/></g>
<g><path style="opacity:0.498" fill="#030000" d="M 4.5,13.5 C 4.89657,12.475 5.56323,12.3083 6.5,13C 5.90558,13.4643 5.23891,13.631 4.5,13.5 Z"/></g>
<g><path style="opacity:0.498" fill="#e84023" d="M 7.5,13.5 C 7.89657,12.475 8.56323,12.3083 9.5,13C 8.90558,13.4643 8.23891,13.631 7.5,13.5 Z"/></g>
<g><path style="opacity:0.498" fill="#e84023" d="M 10.5,13.5 C 10.8966,12.475 11.5632,12.3083 12.5,13C 11.9056,13.4643 11.2389,13.631 10.5,13.5 Z"/></g>
<g><path style="opacity:0.498" fill="#030000" d="M 13.5,13.5 C 13.8966,12.475 14.5632,12.3083 15.5,13C 14.9056,13.4643 14.2389,13.631 13.5,13.5 Z"/></g>
<g><path style="opacity:0.498" fill="#030000" d="M 16.5,13.5 C 16.8966,12.475 17.5632,12.3083 18.5,13C 17.9056,13.4643 17.2389,13.631 16.5,13.5 Z"/></g>
<g><path style="opacity:0.498" fill="#e84023" d="M 23.5,13.5 C 23.8966,12.475 24.5632,12.3083 25.5,13C 24.9056,13.4643 24.2389,13.631 23.5,13.5 Z"/></g>
<g><path style="opacity:0.498" fill="#e84023" d="M 26.5,13.5 C 26.8966,12.475 27.5632,12.3083 28.5,13C 27.9056,13.4643 27.2389,13.631 26.5,13.5 Z"/></g>
<g><path style="opacity:0.498" fill="#e84023" d="M 29.5,13.5 C 29.8966,12.475 30.5632,12.3083 31.5,13C 30.9056,13.4643 30.2389,13.631 29.5,13.5 Z"/></g>
<g><path style="opacity:0.498" fill="#e84023" d="M 32.5,13.5 C 32.8966,12.475 33.5632,12.3083 34.5,13C 33.9056,13.4643 33.2389,13.631 32.5,13.5 Z"/></g>
<g><path style="opacity:0.498" fill="#e84023" d="M 35.5,13.5 C 35.8966,12.475 36.5632,12.3083 37.5,13C 36.9056,13.4643 36.2389,13.631 35.5,13.5 Z"/></g>
<g><path style="opacity:0.498" fill="#030000" d="M 38.5,13.5 C 38.8966,12.475 39.5632,12.3083 40.5,13C 39.9056,13.4643 39.2389,13.631 38.5,13.5 Z"/></g>
<g><path style="opacity:0.498" fill="#e84023" d="M 45.5,13.5 C 45.8966,12.475 46.5632,12.3083 47.5,13C 46.9056,13.4643 46.2389,13.631 45.5,13.5 Z"/></g>
<g><path style="opacity:0.498" fill="#e84023" d="M 48.5,13.5 C 48.8966,12.475 49.5632,12.3083 50.5,13C 49.9056,13.4643 49.2389,13.631 48.5,13.5 Z"/></g>
<g><path style="opacity:0.498" fill="#e84023" d="M 51.5,13.5 C 51.8966,12.475 52.5632,12.3083 53.5,13C 52.9056,13.4643 52.2389,13.631 51.5,13.5 Z"/></g>
<g><path style="opacity:0.498" fill="#e84023" d="M 54.5,13.5 C 54.8966,12.475 55.5632,12.3083 56.5,13C 55.9056,13.4643 55.2389,13.631 54.5,13.5 Z"/></g>
<g><path style="opacity:0.498" fill="#e84023" d="M 57.5,13.5 C 57.8966,12.475 58.5632,12.3083 59.5,13C 58.9056,13.4643 58.2389,13.631 57.5,13.5 Z"/></g>
<g><path style="opacity:0.498" fill="#e84023" d="M 60.5,13.5 C 60.8966,12.475 61.5632,12.3083 62.5,13C 61.9056,13.4643 61.2389,13.631 60.5,13.5 Z"/></g>
<g><path style="opacity:0.498" fill="#030000" d="M 66.5,13.5 C 66.8966,12.475 67.5632,12.3083 68.5,13C 67.9056,13.4643 67.2389,13.631 66.5,13.5 Z"/></g>
<g><path style="opacity:0.498" fill="#030000" d="M 69.5,13.5 C 69.8966,12.475 70.5632,12.3083 71.5,13C 70.9056,13.4643 70.2389,13.631 69.5,13.5 Z"/></g>
<g><path style="opacity:0.498" fill="#e84023" d="M 72.5,13.5 C 72.8966,12.475 73.5632,12.3083 74.5,13C 73.9056,13.4643 73.2389,13.631 72.5,13.5 Z"/></g>
<g><path style="opacity:0.498" fill="#e84023" d="M 75.5,13.5 C 75.8966,12.475 76.5632,12.3083 77.5,13C 76.9056,13.4643 76.2389,13.631 75.5,13.5 Z"/></g>
<g><path style="opacity:0.498" fill="#030000" d="M 78.5,13.5 C 78.8966,12.475 79.5632,12.3083 80.5,13C 79.9056,13.4643 79.2389,13.631 78.5,13.5 Z"/></g>
<g><path style="opacity:0.498" fill="#030000" d="M 81.5,13.5 C 81.8966,12.475 82.5632,12.3083 83.5,13C 82.9056,13.4643 82.2389,13.631 81.5,13.5 Z"/></g>
<g><path style="opacity:0.498" fill="#030000" d="M 1.5,16.5 C 1.89657,15.475 2.56323,15.3083 3.5,16C 2.90558,16.4643 2.23891,16.631 1.5,16.5 Z"/></g>
<g><path style="opacity:0.498" fill="#030000" d="M 4.5,16.5 C 4.89657,15.475 5.56323,15.3083 6.5,16C 5.90558,16.4643 5.23891,16.631 4.5,16.5 Z"/></g>
<g><path style="opacity:0.498" fill="#e84023" d="M 7.5,16.5 C 7.89657,15.475 8.56323,15.3083 9.5,16C 8.90558,16.4643 8.23891,16.631 7.5,16.5 Z"/></g>
<g><path style="opacity:0.498" fill="#e84023" d="M 10.5,16.5 C 10.8966,15.475 11.5632,15.3083 12.5,16C 11.9056,16.4643 11.2389,16.631 10.5,16.5 Z"/></g>
<g><path style="opacity:0.498" fill="#030000" d="M 13.5,16.5 C 13.8966,15.475 14.5632,15.3083 15.5,16C 14.9056,16.4643 14.2389,16.631 13.5,16.5 Z"/></g>
<g><path style="opacity:0.498" fill="#030000" d="M 16.5,16.5 C 16.8966,15.475 17.5632,15.3083 18.5,16C 17.9056,16.4643 17.2389,16.631 16.5,16.5 Z"/></g>
<g><path style="opacity:0.498" fill="#e84023" d="M 23.5,16.5 C 23.8966,15.475 24.5632,15.3083 25.5,16C 24.9056,16.4643 24.2389,16.631 23.5,16.5 Z"/></g>
<g><path style="opacity:0.498" fill="#e84023" d="M 26.5,16.5 C 26.8966,15.475 27.5632,15.3083 28.5,16C 27.9056,16.4643 27.2389,16.631 26.5,16.5 Z"/></g>
<g><path style="opacity:0.498" fill="#e84023" d="M 29.5,16.5 C 29.8966,15.475 30.5632,15.3083 31.5,16C 30.9056,16.4643 30.2389,16.631 29.5,16.5 Z"/></g>
<g><path style="opacity:0.498" fill="#e84023" d="M 32.5,16.5 C 32.8966,15.475 33.5632,15.3083 34.5,16C 33.9056,16.4643 33.2389,16.631 32.5,16.5 Z"/></g>
<g><path style="opacity:0.498" fill="#e84023" d="M 35.5,16.5 C 35.8966,15.475 36.5632,15.3083 37.5,16C 36.9056,16.4643 36.2389,16.631 35.5,16.5 Z"/></g>
<g><path style="opacity:0.498" fill="#030000" d="M 38.5,16.5 C 38.8966,15.475 39.5632,15.3083 40.5,16C 39.9056,16.4643 39.2389,16.631 38.5,16.5 Z"/></g>
<g><path style="opacity:0.498" fill="#e84023" d="M 45.5,16.5 C 45.8966,15.475 46.5632,15.3083 47.5,16C 46.9056,16.4643 46.2389,16.631 45.5,16.5 Z"/></g>
<g><path style="opacity:0.498" fill="#e84023" d="M 48.5,16.5 C 48.8966,15.475 49.5632,15.3083 50.5,16C 49.9056,16.4643 49.2389,16.631 48.5,16.5 Z"/></g>
<g><path style="opacity:0.498" fill="#e84023" d="M 51.5,16.5 C 51.8966,15.475 52.5632,15.3083 53.5,16C 52.9056,16.4643 52.2389,16.631 51.5,16.5 Z"/></g>
<g><path style="opacity:0.498" fill="#e84023" d="M 54.5,16.5 C 54.8966,15.475 55.5632,15.3083 56.5,16C 55.9056,16.4643 55.2389,16.631 54.5,16.5 Z"/></g>
<g><path style="opacity:0.498" fill="#e84023" d="M 57.5,16.5 C 57.8966,15.475 58.5632,15.3083 59.5,16C 58.9056,16.4643 58.2389,16.631 57.5,16.5 Z"/></g>
<g><path style="opacity:0.498" fill="#e84023" d="M 60.5,16.5 C 60.8966,15.475 61.5632,15.3083 62.5,16C 61.9056,16.4643 61.2389,16.631 60.5,16.5 Z"/></g>
<g><path style="opacity:0.498" fill="#030000" d="M 66.5,16.5 C 66.8966,15.475 67.5632,15.3083 68.5,16C 67.9056,16.4643 67.2389,16.631 66.5,16.5 Z"/></g>
<g><path style="opacity:0.498" fill="#030000" d="M 69.5,16.5 C 69.8966,15.475 70.5632,15.3083 71.5,16C 70.9056,16.4643 70.2389,16.631 69.5,16.5 Z"/></g>
<g><path style="opacity:0.498" fill="#e84023" d="M 72.5,16.5 C 72.8966,15.475 73.5632,15.3083 74.5,16C 73.9056,16.4643 73.2389,16.631 72.5,16.5 Z"/></g>
<g><path style="opacity:0.498" fill="#e84023" d="M 75.5,16.5 C 75.8966,15.475 76.5632,15.3083 77.5,16C 76.9056,16.4643 76.2389,16.631 75.5,16.5 Z"/></g>
<g><path style="opacity:0.498" fill="#030000" d="M 78.5,16.5 C 78.8966,15.475 79.5632,15.3083 80.5,16C 79.9056,16.4643 79.2389,16.631 78.5,16.5 Z"/></g>
<g><path style="opacity:0.498" fill="#030000" d="M 81.5,16.5 C 81.8966,15.475 82.5632,15.3083 83.5,16C 82.9056,16.4643 82.2389,16.631 81.5,16.5 Z"/></g>
<g><path style="opacity:0.498" fill="#e84023" d="M 1.5,19.5 C 1.89657,18.475 2.56323,18.3083 3.5,19C 2.90558,19.4643 2.23891,19.631 1.5,19.5 Z"/></g>
<g><path style="opacity:0.498" fill="#e84023" d="M 4.5,19.5 C 4.89657,18.475 5.56323,18.3083 6.5,19C 5.90558,19.4643 5.23891,19.631 4.5,19.5 Z"/></g>
<g><path style="opacity:0.498" fill="#030000" d="M 7.5,19.5 C 7.89657,18.475 8.56323,18.3083 9.5,19C 8.90558,19.4643 8.23891,19.631 7.5,19.5 Z"/></g>
<g><path style="opacity:0.498" fill="#030000" d="M 10.5,19.5 C 10.8966,18.475 11.5632,18.3083 12.5,19C 11.9056,19.4643 11.2389,19.631 10.5,19.5 Z"/></g>
<g><path style="opacity:0.498" fill="#e84023" d="M 13.5,19.5 C 13.8966,18.475 14.5632,18.3083 15.5,19C 14.9056,19.4643 14.2389,19.631 13.5,19.5 Z"/></g>
<g><path style="opacity:0.498" fill="#e84023" d="M 16.5,19.5 C 16.8966,18.475 17.5632,18.3083 18.5,19C 17.9056,19.4643 17.2389,19.631 16.5,19.5 Z"/></g>
<g><path style="opacity:0.498" fill="#e84023" d="M 23.5,19.5 C 23.8966,18.475 24.5632,18.3083 25.5,19C 24.9056,19.4643 24.2389,19.631 23.5,19.5 Z"/></g>
<g><path style="opacity:0.498" fill="#e84023" d="M 26.5,19.5 C 26.8966,18.475 27.5632,18.3083 28.5,19C 27.9056,19.4643 27.2389,19.631 26.5,19.5 Z"/></g>
<g><path style="opacity:0.498" fill="#030000" d="M 29.5,19.5 C 29.8966,18.475 30.5632,18.3083 31.5,19C 30.9056,19.4643 30.2389,19.631 29.5,19.5 Z"/></g>
<g><path style="opacity:0.498" fill="#030000" d="M 32.5,19.5 C 32.8966,18.475 33.5632,18.3083 34.5,19C 33.9056,19.4643 33.2389,19.631 32.5,19.5 Z"/></g>
<g><path style="opacity:0.498" fill="#e84023" d="M 35.5,19.5 C 35.8966,18.475 36.5632,18.3083 37.5,19C 36.9056,19.4643 36.2389,19.631 35.5,19.5 Z"/></g>
<g><path style="opacity:0.498" fill="#e84023" d="M 38.5,19.5 C 38.8966,18.475 39.5632,18.3083 40.5,19C 39.9056,19.4643 39.2389,19.631 38.5,19.5 Z"/></g>
<g><path style="opacity:0.498" fill="#e84023" d="M 45.5,19.5 C 45.8966,18.475 46.5632,18.3083 47.5,19C 46.9056,19.4643 46.2389,19.631 45.5,19.5 Z"/></g>
<g><path style="opacity:0.498" fill="#e84023" d="M 48.5,19.5 C 48.8966,18.475 49.5632,18.3083 50.5,19C 49.9056,19.4643 49.2389,19.631 48.5,19.5 Z"/></g>
<g><path style="opacity:0.498" fill="#030000" d="M 51.5,19.5 C 51.8966,18.475 52.5632,18.3083 53.5,19C 52.9056,19.4643 52.2389,19.631 51.5,19.5 Z"/></g>
<g><path style="opacity:0.498" fill="#030000" d="M 54.5,19.5 C 54.8966,18.475 55.5632,18.3083 56.5,19C 55.9056,19.4643 55.2389,19.631 54.5,19.5 Z"/></g>
<g><path style="opacity:0.498" fill="#e84023" d="M 57.5,19.5 C 57.8966,18.475 58.5632,18.3083 59.5,19C 58.9056,19.4643 58.2389,19.631 57.5,19.5 Z"/></g>
<g><path style="opacity:0.498" fill="#e84023" d="M 60.5,19.5 C 60.8966,18.475 61.5632,18.3083 62.5,19C 61.9056,19.4643 61.2389,19.631 60.5,19.5 Z"/></g>
<g><path style="opacity:0.498" fill="#030000" d="M 66.5,19.5 C 66.8966,18.475 67.5632,18.3083 68.5,19C 67.9056,19.4643 67.2389,19.631 66.5,19.5 Z"/></g>
<g><path style="opacity:0.498" fill="#030000" d="M 69.5,19.5 C 69.8966,18.475 70.5632,18.3083 71.5,19C 70.9056,19.4643 70.2389,19.631 69.5,19.5 Z"/></g>
<g><path style="opacity:0.498" fill="#e84023" d="M 72.5,19.5 C 72.8966,18.475 73.5632,18.3083 74.5,19C 73.9056,19.4643 73.2389,19.631 72.5,19.5 Z"/></g>
<g><path style="opacity:0.498" fill="#e84023" d="M 75.5,19.5 C 75.8966,18.475 76.5632,18.3083 77.5,19C 76.9056,19.4643 76.2389,19.631 75.5,19.5 Z"/></g>
<g><path style="opacity:0.498" fill="#030000" d="M 78.5,19.5 C 78.8966,18.475 79.5632,18.3083 80.5,19C 79.9056,19.4643 79.2389,19.631 78.5,19.5 Z"/></g>
<g><path style="opacity:0.498" fill="#030000" d="M 81.5,19.5 C 81.8966,18.475 82.5632,18.3083 83.5,19C 82.9056,19.4643 82.2389,19.631 81.5,19.5 Z"/></g>
<g><path style="opacity:0.498" fill="#e84023" d="M 1.5,22.5 C 1.89657,21.475 2.56323,21.3083 3.5,22C 2.90558,22.4643 2.23891,22.631 1.5,22.5 Z"/></g>
<g><path style="opacity:0.498" fill="#e84023" d="M 4.5,22.5 C 4.89657,21.475 5.56323,21.3083 6.5,22C 5.90558,22.4643 5.23891,22.631 4.5,22.5 Z"/></g>
<g><path style="opacity:0.498" fill="#030000" d="M 7.5,22.5 C 7.89657,21.475 8.56323,21.3083 9.5,22C 8.90558,22.4643 8.23891,22.631 7.5,22.5 Z"/></g>
<g><path style="opacity:0.498" fill="#030000" d="M 10.5,22.5 C 10.8966,21.475 11.5632,21.3083 12.5,22C 11.9056,22.4643 11.2389,22.631 10.5,22.5 Z"/></g>
<g><path style="opacity:0.498" fill="#e84023" d="M 13.5,22.5 C 13.8966,21.475 14.5632,21.3083 15.5,22C 14.9056,22.4643 14.2389,22.631 13.5,22.5 Z"/></g>
<g><path style="opacity:0.498" fill="#e84023" d="M 16.5,22.5 C 16.8966,21.475 17.5632,21.3083 18.5,22C 17.9056,22.4643 17.2389,22.631 16.5,22.5 Z"/></g>
<g><path style="opacity:0.498" fill="#e84023" d="M 23.5,22.5 C 23.8966,21.475 24.5632,21.3083 25.5,22C 24.9056,22.4643 24.2389,22.631 23.5,22.5 Z"/></g>
<g><path style="opacity:0.498" fill="#e84023" d="M 26.5,22.5 C 26.8966,21.475 27.5632,21.3083 28.5,22C 27.9056,22.4643 27.2389,22.631 26.5,22.5 Z"/></g>
<g><path style="opacity:0.498" fill="#030000" d="M 29.5,22.5 C 29.8966,21.475 30.5632,21.3083 31.5,22C 30.9056,22.4643 30.2389,22.631 29.5,22.5 Z"/></g>
<g><path style="opacity:0.498" fill="#030000" d="M 32.5,22.5 C 32.8966,21.475 33.5632,21.3083 34.5,22C 33.9056,22.4643 33.2389,22.631 32.5,22.5 Z"/></g>
<g><path style="opacity:0.498" fill="#e84023" d="M 35.5,22.5 C 35.8966,21.475 36.5632,21.3083 37.5,22C 36.9056,22.4643 36.2389,22.631 35.5,22.5 Z"/></g>
<g><path style="opacity:0.498" fill="#e84023" d="M 38.5,22.5 C 38.8966,21.475 39.5632,21.3083 40.5,22C 39.9056,22.4643 39.2389,22.631 38.5,22.5 Z"/></g>
<g><path style="opacity:0.498" fill="#e84023" d="M 45.5,22.5 C 45.8966,21.475 46.5632,21.3083 47.5,22C 46.9056,22.4643 46.2389,22.631 45.5,22.5 Z"/></g>
<g><path style="opacity:0.498" fill="#e84023" d="M 48.5,22.5 C 48.8966,21.475 49.5632,21.3083 50.5,22C 49.9056,22.4643 49.2389,22.631 48.5,22.5 Z"/></g>
<g><path style="opacity:0.498" fill="#030000" d="M 51.5,22.5 C 51.8966,21.475 52.5632,21.3083 53.5,22C 52.9056,22.4643 52.2389,22.631 51.5,22.5 Z"/></g>
<g><path style="opacity:0.498" fill="#030000" d="M 54.5,22.5 C 54.8966,21.475 55.5632,21.3083 56.5,22C 55.9056,22.4643 55.2389,22.631 54.5,22.5 Z"/></g>
<g><path style="opacity:0.498" fill="#e84023" d="M 57.5,22.5 C 57.8966,21.475 58.5632,21.3083 59.5,22C 58.9056,22.4643 58.2389,22.631 57.5,22.5 Z"/></g>
<g><path style="opacity:0.498" fill="#e84023" d="M 60.5,22.5 C 60.8966,21.475 61.5632,21.3083 62.5,22C 61.9056,22.4643 61.2389,22.631 60.5,22.5 Z"/></g>
<g><path style="opacity:0.498" fill="#030000" d="M 66.5,22.5 C 66.8966,21.475 67.5632,21.3083 68.5,22C 67.9056,22.4643 67.2389,22.631 66.5,22.5 Z"/></g>
<g><path style="opacity:0.498" fill="#030000" d="M 69.5,22.5 C 69.8966,21.475 70.5632,21.3083 71.5,22C 70.9056,22.4643 70.2389,22.631 69.5,22.5 Z"/></g>
<g><path style="opacity:0.498" fill="#e84023" d="M 72.5,22.5 C 72.8966,21.475 73.5632,21.3083 74.5,22C 73.9056,22.4643 73.2389,22.631 72.5,22.5 Z"/></g>
<g><path style="opacity:0.498" fill="#e84023" d="M 75.5,22.5 C 75.8966,21.475 76.5632,21.3083 77.5,22C 76.9056,22.4643 76.2389,22.631 75.5,22.5 Z"/></g>
<g><path style="opacity:0.498" fill="#030000" d="M 78.5,22.5 C 78.8966,21.475 79.5632,21.3083 80.5,22C 79.9056,22.4643 79.2389,22.631 78.5,22.5 Z"/></g>
<g><path style="opacity:0.498" fill="#030000" d="M 81.5,22.5 C 81.8966,21.475 82.5632,21.3083 83.5,22C 82.9056,22.4643 82.2389,22.631 81.5,22.5 Z"/></g>
<g><path style="opacity:0.498" fill="#e84023" d="M 1.5,25.5 C 1.89657,24.475 2.56323,24.3083 3.5,25C 2.90558,25.4643 2.23891,25.631 1.5,25.5 Z"/></g>
<g><path style="opacity:0.498" fill="#e84023" d="M 4.5,25.5 C 4.89657,24.475 5.56323,24.3083 6.5,25C 5.90558,25.4643 5.23891,25.631 4.5,25.5 Z"/></g>
<g><path style="opacity:0.498" fill="#030000" d="M 7.5,25.5 C 7.89657,24.475 8.56323,24.3083 9.5,25C 8.90558,25.4643 8.23891,25.631 7.5,25.5 Z"/></g>
<g><path style="opacity:0.498" fill="#030000" d="M 10.5,25.5 C 10.8966,24.475 11.5632,24.3083 12.5,25C 11.9056,25.4643 11.2389,25.631 10.5,25.5 Z"/></g>
<g><path style="opacity:0.498" fill="#e84023" d="M 13.5,25.5 C 13.8966,24.475 14.5632,24.3083 15.5,25C 14.9056,25.4643 14.2389,25.631 13.5,25.5 Z"/></g>
<g><path style="opacity:0.498" fill="#e84023" d="M 16.5,25.5 C 16.8966,24.475 17.5632,24.3083 18.5,25C 17.9056,25.4643 17.2389,25.631 16.5,25.5 Z"/></g>
<g><path style="opacity:0.498" fill="#e84023" d="M 23.5,25.5 C 23.8966,24.475 24.5632,24.3083 25.5,25C 24.9056,25.4643 24.2389,25.631 23.5,25.5 Z"/></g>
<g><path style="opacity:0.498" fill="#e84023" d="M 26.5,25.5 C 26.8966,24.475 27.5632,24.3083 28.5,25C 27.9056,25.4643 27.2389,25.631 26.5,25.5 Z"/></g>
<g><path style="opacity:0.498" fill="#030000" d="M 29.5,25.5 C 29.8966,24.475 30.5632,24.3083 31.5,25C 30.9056,25.4643 30.2389,25.631 29.5,25.5 Z"/></g>
<g><path style="opacity:0.498" fill="#030000" d="M 32.5,25.5 C 32.8966,24.475 33.5632,24.3083 34.5,25C 33.9056,25.4643 33.2389,25.631 32.5,25.5 Z"/></g>
<g><path style="opacity:0.498" fill="#e84023" d="M 35.5,25.5 C 35.8966,24.475 36.5632,24.3083 37.5,25C 36.9056,25.4643 36.2389,25.631 35.5,25.5 Z"/></g>
<g><path style="opacity:0.498" fill="#e84023" d="M 38.5,25.5 C 38.8966,24.475 39.5632,24.3083 40.5,25C 39.9056,25.4643 39.2389,25.631 38.5,25.5 Z"/></g>
<g><path style="opacity:0.498" fill="#e84023" d="M 45.5,25.5 C 45.8966,24.475 46.5632,24.3083 47.5,25C 46.9056,25.4643 46.2389,25.631 45.5,25.5 Z"/></g>
<g><path style="opacity:0.498" fill="#e84023" d="M 48.5,25.5 C 48.8966,24.475 49.5632,24.3083 50.5,25C 49.9056,25.4643 49.2389,25.631 48.5,25.5 Z"/></g>
<g><path style="opacity:0.498" fill="#030000" d="M 51.5,25.5 C 51.8966,24.475 52.5632,24.3083 53.5,25C 52.9056,25.4643 52.2389,25.631 51.5,25.5 Z"/></g>
<g><path style="opacity:0.498" fill="#030000" d="M 54.5,25.5 C 54.8966,24.475 55.5632,24.3083 56.5,25C 55.9056,25.4643 55.2389,25.631 54.5,25.5 Z"/></g>
<g><path style="opacity:0.498" fill="#e84023" d="M 57.5,25.5 C 57.8966,24.475 58.5632,24.3083 59.5,25C 58.9056,25.4643 58.2389,25.631 57.5,25.5 Z"/></g>
<g><path style="opacity:0.498" fill="#e84023" d="M 60.5,25.5 C 60.8966,24.475 61.5632,24.3083 62.5,25C 61.9056,25.4643 61.2389,25.631 60.5,25.5 Z"/></g>
<g><path style="opacity:0.498" fill="#030000" d="M 66.5,25.5 C 66.8966,24.475 67.5632,24.3083 68.5,25C 67.9056,25.4643 67.2389,25.631 66.5,25.5 Z"/></g>
<g><path style="opacity:0.498" fill="#030000" d="M 69.5,25.5 C 69.8966,24.475 70.5632,24.3083 71.5,25C 70.9056,25.4643 70.2389,25.631 69.5,25.5 Z"/></g>
<g><path style="opacity:0.498" fill="#e84023" d="M 72.5,25.5 C 72.8966,24.475 73.5632,24.3083 74.5,25C 73.9056,25.4643 73.2389,25.631 72.5,25.5 Z"/></g>
<g><path style="opacity:0.498" fill="#e84023" d="M 75.5,25.5 C 75.8966,24.475 76.5632,24.3083 77.5,25C 76.9056,25.4643 76.2389,25.631 75.5,25.5 Z"/></g>
<g><path style="opacity:0.498" fill="#030000" d="M 78.5,25.5 C 78.8966,24.475 79.5632,24.3083 80.5,25C 79.9056,25.4643 79.2389,25.631 78.5,25.5 Z"/></g>
<g><path style="opacity:0.498" fill="#030000" d="M 81.5,25.5 C 81.8966,24.475 82.5632,24.3083 83.5,25C 82.9056,25.4643 82.2389,25.631 81.5,25.5 Z"/></g>
</svg>
