<svg xmlns="http://www.w3.org/2000/svg" xmlns:xlink="http://www.w3.org/1999/xlink" id="Layer_2" data-name="Layer 2" viewBox="0 0 396.96 119.5"><defs><linearGradient id="linear-gradient" x1="44.24" x2="105.56" y1="74.98" y2="74.98" gradientUnits="userSpaceOnUse"><stop offset="0" stop-color="#e35930"/><stop offset="1" stop-color="#e84125"/></linearGradient><linearGradient xlink:href="#linear-gradient" id="linear-gradient-2" x1="44.24" x2="105.56" y1="30.66" y2="30.66"/><linearGradient xlink:href="#linear-gradient" id="linear-gradient-3" x1="0" x2="61.32" y1="74.98" y2="74.98"/><linearGradient xlink:href="#linear-gradient" id="linear-gradient-4" x1="0" x2="61.32" y1="30.66" y2="30.66"/><style>.cls-2{stroke-width:0;fill:#e84125}</style></defs><g id="Layer_1-2" data-name="Layer 1"><g id="Icon"><path d="M105.56 105.64 94.7 65.1l-7.39 7.38 2.35 8.77-36.93-36.93-8.49 8.49 31.37 31.37 5.56 5.56-8.76-2.35-7.39 7.39 40.54 10.86z" style="stroke-width:0;fill:url(#linear-gradient)"/><path d="M105.56 0 65.02 10.86l7.39 7.39 8.76-2.35-36.93 36.93 8.49 8.49L84.1 29.95l5.56-5.56-2.35 8.76 7.39 7.39L105.56 0z" style="fill:url(#linear-gradient-2);stroke-width:0"/><path d="M0 105.64 10.86 65.1l7.39 7.38-2.35 8.77 36.93-36.93 8.49 8.49-31.37 31.37-5.56 5.56 8.76-2.35 7.39 7.39L0 105.64z" style="fill:url(#linear-gradient-3);stroke-width:0"/><path d="m0 0 40.54 10.86-7.39 7.39-8.76-2.35 36.93 36.93-8.49 8.49-31.37-31.37-5.56-5.56 2.35 8.76-7.39 7.39L0 0z" style="fill:url(#linear-gradient-4);stroke-width:0"/></g><path d="m175.73 67.19-15.65 23.27h-17.63l24.54-36.38-24.54-36.24h17.63l15.65 23.27 15.65-23.27h17.63l-24.39 36.24 24.39 36.38h-17.63l-15.65-23.27ZM248.35 32.36c-1.13-.71-2.54-1.55-5.08-1.55-8.32 0-13.11 7.19-13.11 18.19v41.46h-14.52V49c0-20.73 9.73-32.71 25.1-32.71 3.38 0 6.35.7 7.61 1.55v14.52ZM318.99 90.45h-14.52v-6.2c-5.92 5.08-13.96 7.61-23.27 7.61-17.06 0-27.92-8.6-27.92-22.56 0-19.46 21.43-23.55 40.19-23.55 3.81 0 7.47.14 10.86.42-1.27-12.41-9.87-15.37-18.61-15.37-8.04 0-15.09 2.4-15.79 14.95h-15.65c.71-18.89 15.09-29.47 32.43-29.47S319 26.15 319 49.13v41.31ZM291.91 58.3c-14.24 0-23.41 3.81-23.41 10.86 0 6.63 7.9 8.18 14.81 8.18 12.27 0 20.59-4.79 21.15-12.97v-5.22c-4.51-.56-8.6-.85-12.55-.85ZM323.07 17.83h15.51l21.71 58.94 21.15-58.94h15.51L360.57 119.5h-15.51l13.4-37.65h-11.84l-23.55-64.02Z" class="cls-2"/></g></svg>