<?xml version="1.0" encoding="UTF-8"?>
<svg id="Layer_2" data-name="Layer 2" xmlns="http://www.w3.org/2000/svg" xmlns:xlink="http://www.w3.org/1999/xlink" viewBox="0 0 396.96 119.5">
  <defs>
    <style>
      .cls-1 {
        fill: url(#linear-gradient);
      }

      .cls-1, .cls-2, .cls-3, .cls-4, .cls-5 {
        stroke-width: 0px;
      }

      .cls-2 {
        fill: #e84125;
      }

      .cls-3 {
        fill: url(#linear-gradient-4);
      }

      .cls-4 {
        fill: url(#linear-gradient-2);
      }

      .cls-5 {
        fill: url(#linear-gradient-3);
      }
    </style>
    <linearGradient id="linear-gradient" x1="44.24" y1="74.98" x2="105.56" y2="74.98" gradientUnits="userSpaceOnUse">
      <stop offset="0" stop-color="#e35930"/>
      <stop offset="1" stop-color="#e84125"/>
    </linearGradient>
    <linearGradient id="linear-gradient-2" x1="44.24" y1="30.66" x2="105.56" y2="30.66" xlink:href="#linear-gradient"/>
    <linearGradient id="linear-gradient-3" x1="0" y1="74.98" x2="61.32" y2="74.98" xlink:href="#linear-gradient"/>
    <linearGradient id="linear-gradient-4" x1="0" y1="30.66" x2="61.32" y2="30.66" xlink:href="#linear-gradient"/>
  </defs>
  <g id="Layer_1-2" data-name="Layer 1">
    <g>
      <g id="Icon">
        <polygon class="cls-1" points="105.56 105.64 94.7 65.1 87.31 72.48 89.66 81.25 52.73 44.32 44.24 52.81 75.61 84.18 81.17 89.74 72.41 87.39 65.02 94.78 105.56 105.64"/>
        <polygon class="cls-4" points="105.56 0 65.02 10.86 72.41 18.25 81.17 15.9 44.24 52.83 52.73 61.32 84.1 29.95 89.66 24.39 87.31 33.15 94.7 40.54 105.56 0"/>
        <polygon class="cls-5" points="0 105.64 10.86 65.1 18.25 72.48 15.9 81.25 52.83 44.32 61.32 52.81 29.95 84.18 24.39 89.74 33.15 87.39 40.54 94.78 0 105.64"/>
        <polygon class="cls-3" points="0 0 40.54 10.86 33.15 18.25 24.39 15.9 61.32 52.83 52.83 61.32 21.46 29.95 15.9 24.39 18.25 33.15 10.86 40.54 0 0"/>
      </g>
      <g>
        <path class="cls-2" d="M175.73,67.19l-15.65,23.27h-17.63l24.54-36.38-24.54-36.24h17.63l15.65,23.27,15.65-23.27h17.63l-24.39,36.24,24.39,36.38h-17.63l-15.65-23.27Z"/>
        <path class="cls-2" d="M248.35,32.36c-1.13-.71-2.54-1.55-5.08-1.55-8.32,0-13.11,7.19-13.11,18.19v41.46h-14.52v-41.46c0-20.73,9.73-32.71,25.1-32.71,3.38,0,6.35.7,7.61,1.55v14.52Z"/>
        <path class="cls-2" d="M318.99,90.45h-14.52v-6.2c-5.92,5.08-13.96,7.61-23.27,7.61-17.06,0-27.92-8.6-27.92-22.56,0-19.46,21.43-23.55,40.19-23.55,3.81,0,7.47.14,10.86.42-1.27-12.41-9.87-15.37-18.61-15.37-8.04,0-15.09,2.4-15.79,14.95h-15.65c.71-18.89,15.09-29.47,32.43-29.47s32.29,9.87,32.29,32.85v41.31ZM291.91,58.3c-14.24,0-23.41,3.81-23.41,10.86,0,6.63,7.9,8.18,14.81,8.18,12.27,0,20.59-4.79,21.15-12.97v-5.22c-4.51-.56-8.6-.85-12.55-.85Z"/>
        <path class="cls-2" d="M323.07,17.83h15.51l21.71,58.94,21.15-58.94h15.51l-36.38,101.67h-15.51l13.4-37.65h-11.84l-23.55-64.02Z"/>
      </g>
    </g>
  </g>
</svg>